<svg width="133" height="453" viewBox="0 0 133 453" fill="none" xmlns="http://www.w3.org/2000/svg">
<path d="M29.3824 130.303C31.6009 130.764 33.9117 130.813 36.1701 130.819C36.9467 130.821 37.5805 130.193 37.5826 129.417C37.5847 128.64 36.9572 128.006 36.1785 128.004L36.0861 128.006C34.0482 128.137 31.9094 128.241 29.8945 127.826C29.2082 127.683 28.5387 128.124 28.3981 128.808C28.2574 129.495 28.6961 130.162 29.3824 130.305M36.1701 130.819C40.1642 130.832 44.1646 130.389 48.1209 129.904C49.0234 129.795 49.6678 128.972 49.5565 128.069C49.4474 127.167 48.6246 126.523 47.7221 126.634C47.7081 126.634 47.6941 126.636 47.6802 126.64C43.8351 127.211 39.9669 127.761 36.0861 128.009C35.3096 128.059 34.7219 128.726 34.7702 129.503C34.8163 130.242 35.4292 130.817 36.1701 130.819ZM48.1209 129.904C53.2421 129.28 58.3682 128.703 63.4991 128.172C64.4583 128.072 65.1572 127.213 65.0565 126.254C64.9578 125.295 64.0994 124.598 63.1402 124.699C57.9729 125.234 52.8181 125.874 47.6802 126.64C46.7777 126.772 46.1585 127.612 46.2928 128.512C46.4229 129.394 47.2352 130.013 48.1209 129.904ZM63.4991 128.172C67.8647 127.719 72.2471 127.333 76.6358 127.209C77.6244 127.182 78.403 126.357 78.3758 125.368C78.3464 124.378 77.5215 123.599 76.533 123.626L76.5036 123.628C72.0393 123.832 67.5835 124.237 63.1402 124.699C62.1811 124.797 61.4821 125.656 61.5829 126.615C61.6815 127.574 62.54 128.271 63.4991 128.172ZM76.6358 127.209C79.6959 127.123 82.7581 127.058 85.8204 127.062C86.8614 127.062 87.7072 126.222 87.7093 125.179C87.7093 124.138 86.8656 123.292 85.8245 123.29H85.7784C82.6847 123.366 79.5952 123.488 76.5036 123.628C75.5171 123.674 74.749 124.51 74.7951 125.5C74.8371 126.476 75.6577 127.236 76.6358 127.209ZM85.8204 127.062C88.4677 127.066 91.1158 127.066 93.7645 127.062C94.8328 127.062 95.6954 126.195 95.6954 125.127C95.6954 124.058 94.8286 123.194 93.7603 123.196C91.099 123.197 88.4383 123.229 85.7784 123.292C84.7374 123.318 83.9125 124.18 83.9377 125.221C83.9629 126.243 84.7982 127.06 85.8204 127.062ZM93.7645 127.062C94.646 127.062 95.5359 127.062 96.409 127.173C97.2192 127.872 98.4449 127.782 99.1417 126.972C99.332 126.751 99.4664 126.499 99.5447 126.218C99.8322 125.162 99.2404 124.119 98.2749 123.683C97.8929 123.506 97.4753 123.418 97.0597 123.358C95.9725 123.198 94.8559 123.194 93.7603 123.196C92.692 123.196 91.8293 124.063 91.8293 125.131C91.8293 126.199 92.6962 127.062 93.7645 127.062ZM98.4344 128.307C99.5048 128.391 100.437 127.591 100.519 126.523C100.586 125.641 100.051 124.827 99.2173 124.539C98.5729 123.687 97.3577 123.517 96.5056 124.163C96.1698 124.415 95.9284 124.772 95.813 125.177C95.5443 126.122 95.8759 127.14 96.6714 127.725C97.1814 128.103 97.8111 128.258 98.4344 128.307ZM98.4344 128.307C99.0704 128.357 99.5741 128.659 100.025 129.098C100.466 129.526 101.169 129.518 101.597 129.077C101.776 128.894 101.885 128.657 101.908 128.401C101.984 127.561 101.83 126.701 101.373 125.981C100.794 125.076 99.7987 124.52 98.7346 124.438C97.6641 124.354 96.7323 125.154 96.6504 126.222C96.5665 127.293 97.3661 128.225 98.4344 128.307ZM29.5587 136.778C29.6343 137.42 30.2157 137.877 30.86 137.802C31.0846 137.774 31.2987 137.682 31.4729 137.535C32.3733 137.411 33.3052 137.46 34.2119 137.489C34.9549 137.514 35.5782 136.931 35.6034 136.188C35.6286 135.443 35.0451 134.817 34.3021 134.794H34.2077C33.2632 134.828 32.2998 134.868 31.3679 135.046C31.0195 135.113 30.6648 135.203 30.35 135.375C29.84 135.652 29.4874 136.181 29.5587 136.778ZM34.2119 137.491C37.7337 137.607 41.2703 137.478 44.79 137.348C45.6485 137.315 46.318 136.593 46.2844 135.739C46.2529 134.88 45.533 134.213 44.6746 134.244H44.6389C41.1632 134.458 37.6875 134.67 34.2077 134.794C33.4647 134.819 32.8812 135.445 32.9064 136.19C32.9316 136.897 33.5025 137.466 34.2119 137.491ZM44.79 137.348C49.6426 137.165 54.493 136.934 59.3413 136.656C60.248 136.605 60.9428 135.829 60.8903 134.922C60.8399 134.013 60.0612 133.321 59.1545 133.371H59.1503C54.3118 133.658 49.4747 133.948 44.6389 134.244C43.7826 134.297 43.132 135.035 43.1844 135.892C43.2348 136.731 43.9463 137.38 44.79 137.348ZM59.3413 136.656C63.7195 136.41 68.104 136.188 72.4864 136.032C73.4414 135.999 74.1865 135.199 74.1529 134.244C74.1193 133.291 73.3196 132.544 72.3647 132.58H72.3227C67.9319 132.848 63.5439 133.112 59.1545 133.371C58.2478 133.426 57.5531 134.204 57.6077 135.113C57.6602 136.016 58.4367 136.708 59.3434 136.658M72.4864 136.032C75.727 135.919 78.9676 135.818 82.2082 135.749C83.201 135.728 83.9902 134.903 83.9692 133.91C83.9482 132.916 83.1233 132.126 82.1306 132.15C78.8564 132.221 75.5885 132.385 72.3206 132.584C71.3677 132.641 70.6415 133.461 70.7024 134.412C70.7591 135.348 71.5503 136.066 72.4864 136.032ZM82.2082 135.749C86.9097 135.648 91.6069 135.256 96.2789 134.727C96.9002 134.656 97.3472 134.097 97.2759 133.476C97.2129 132.93 96.7679 132.506 96.218 132.473C91.5292 132.2 86.8278 132.049 82.1306 132.15C81.1378 132.171 80.3466 132.993 80.3697 133.988C80.3906 134.981 81.2134 135.77 82.2082 135.749ZM27.2836 190.323H29.5063C30.2052 190.323 30.7719 189.757 30.7719 189.058C30.7719 188.359 30.2052 187.792 29.5063 187.792H27.2815C26.5826 187.792 26.0159 188.359 26.0159 189.058C26.0159 189.757 26.5847 190.323 27.2836 190.323ZM26.7526 190.216C26.8169 190.244 26.8834 190.267 26.952 190.286C27.08 190.317 27.2101 190.325 27.3423 190.332C28.0455 190.369 28.6457 189.83 28.6856 189.127C28.7213 188.424 28.1819 187.821 27.4788 187.784H27.3423C27.1367 187.794 26.9457 187.815 26.7526 187.901C26.1124 188.187 25.8249 188.934 26.1103 189.574C26.2363 189.859 26.4671 190.088 26.7526 190.216ZM27.3423 190.332L31.0678 190.533C31.8821 190.575 32.579 189.952 32.6209 189.137C32.665 188.323 32.0417 187.626 31.2273 187.584H31.0678L27.3423 187.784C26.6371 187.821 26.0977 188.424 26.1355 189.127C26.1712 189.778 26.6896 190.298 27.3423 190.332ZM31.0678 190.533C33.939 190.686 36.8081 190.865 39.6752 191.049C40.6343 191.112 41.4592 190.384 41.5221 189.427C41.5851 188.47 40.8589 187.643 39.8997 187.58H39.8515C36.9278 187.473 33.9936 187.427 31.0678 187.584C30.2555 187.626 29.6322 188.323 29.6763 189.137C29.7182 189.891 30.3185 190.491 31.0699 190.531M39.6752 191.049C44.0827 191.333 48.4945 191.478 52.9063 191.595C53.9158 191.622 54.7575 190.827 54.7847 189.815C54.812 188.806 54.0145 187.964 53.0049 187.937H52.9965C48.6141 187.842 44.2318 187.735 39.8515 187.576C38.8923 187.542 38.0884 188.289 38.0527 189.251C38.0171 190.189 38.737 190.986 39.6773 191.047M52.9063 191.595C58.527 191.746 64.154 191.782 69.7768 191.725C70.7989 191.715 71.6196 190.877 71.6091 189.857C71.5986 188.833 70.7611 188.015 69.739 188.023C64.1575 188.085 58.5774 188.056 52.9986 187.939C51.987 187.916 51.1516 188.716 51.1286 189.727C51.1076 190.735 51.9009 191.568 52.9063 191.595ZM69.7768 191.725C74.665 191.675 79.5616 191.549 84.4351 191.138C85.4258 191.054 86.1625 190.181 86.0785 189.188C85.9946 188.208 85.1403 187.473 84.1581 187.54C79.3601 187.87 74.5454 187.975 69.739 188.023C68.7169 188.033 67.8962 188.871 67.9067 189.893C67.9172 190.915 68.7547 191.736 69.7768 191.725ZM84.4351 191.138C87.6401 190.865 90.8471 190.556 94.0289 190.073C94.9881 189.927 95.6471 189.032 95.5023 188.073C95.3554 187.114 94.4613 186.457 93.5021 186.6C90.4084 187.07 87.2791 187.326 84.1581 187.54C83.1653 187.609 82.416 188.47 82.4832 189.463C82.5504 190.458 83.4109 191.207 84.4057 191.14L84.4351 191.138ZM94.0289 190.073C98.1028 189.456 102.164 188.747 106.215 187.991C106.819 187.878 107.218 187.297 107.105 186.69C107.006 186.165 106.549 185.783 106.013 185.781C101.835 185.765 97.639 185.972 93.5021 186.6C92.543 186.747 91.8839 187.641 92.0287 188.6C92.1757 189.559 93.0698 190.22 94.0289 190.073ZM36.0924 200.457C37.0369 200.125 38.0779 200.012 39.0644 199.877C40.9974 199.613 42.9452 199.441 44.8908 199.285C45.5876 199.231 46.1081 198.62 46.0514 197.923C45.9948 197.226 45.3861 196.706 44.6872 196.763C42.6975 196.922 40.7036 197.098 38.7223 197.367C37.5637 197.524 36.3611 197.68 35.2529 198.068C34.5918 198.301 34.2454 199.023 34.4763 199.684C34.7093 200.343 35.4313 200.689 36.0924 200.457ZM44.8908 199.285C48.547 198.994 52.2053 198.74 55.8635 198.49C56.5373 198.444 57.0473 197.86 57.0011 197.189C56.9549 196.519 56.382 196.013 55.7145 196.049C52.0374 196.25 48.3581 196.469 44.6872 196.763C43.9904 196.817 43.472 197.428 43.5286 198.127C43.5832 198.821 44.194 199.342 44.8908 199.285ZM55.8635 198.49C60.1074 198.2 64.3534 197.955 68.6014 197.755C69.2584 197.724 69.7663 197.168 69.7348 196.509C69.7054 195.852 69.1471 195.344 68.4902 195.375H68.486C64.2281 195.591 59.971 195.815 55.7145 196.049C55.0408 196.087 54.5245 196.664 54.5602 197.338C54.5979 198.011 55.173 198.528 55.8489 198.492L55.8635 198.49ZM68.6014 197.755C72.0477 197.594 75.4982 197.464 78.9487 197.436C79.6288 197.432 80.1766 196.876 80.1703 196.198C80.1661 195.516 79.6099 194.97 78.932 194.976H78.9152C75.4374 195.048 71.9617 195.199 68.486 195.375C67.8312 195.407 67.3232 195.967 67.3547 196.624C67.3883 197.281 67.9466 197.785 68.6014 197.755ZM78.9529 197.436C83.2346 197.394 87.5162 197.111 91.7622 196.569C92.2113 196.513 92.5283 196.103 92.4716 195.656C92.4191 195.251 92.077 194.947 91.6698 194.943C87.4204 194.884 83.1674 194.895 78.9152 194.976C78.2351 194.989 77.6978 195.549 77.7104 196.229C77.723 196.903 78.2771 197.443 78.9529 197.436Z" fill="black"/>
<path d="M46.1669 188.558C46.9497 188.531 47.4891 187.918 47.6109 187.186C47.6528 186.928 47.6633 186.661 47.6696 186.399C47.6906 185.504 47.6487 184.606 47.6088 183.712C47.5773 183.013 46.9854 182.474 46.2865 182.503C45.5897 182.535 45.0482 183.126 45.0797 183.825C45.1153 184.61 45.1531 185.41 45.0755 186.197V186.195C44.5487 186.77 44.5906 187.664 45.1657 188.189C45.4386 188.439 45.7975 188.571 46.1669 188.558ZM43.9253 185.756C44.0554 186.287 44.2023 186.823 44.4395 187.318C44.7963 188.069 45.4973 188.712 46.3977 188.531C47.1617 188.376 47.657 187.631 47.5038 186.867C47.4758 186.732 47.4297 186.604 47.3653 186.48C47.2184 186.021 47.1344 185.538 47.0379 185.066C46.8658 184.203 46.0241 183.643 45.1615 183.817C44.2989 183.989 43.7385 184.831 43.9106 185.693L43.9253 185.756ZM43.2159 181.894C43.3901 183.191 43.6147 184.484 43.9253 185.756C44.1352 186.613 44.9957 187.137 45.852 186.93C46.6832 186.728 47.2058 185.905 47.0379 185.066C46.8007 183.884 46.6328 182.69 46.5027 181.494C46.4019 180.585 45.5855 179.928 44.6767 180.026C43.7679 180.125 43.1109 180.944 43.2096 181.852L43.2159 181.894ZM42.7143 176.956C42.8402 178.606 42.9934 180.255 43.2159 181.894C43.3376 182.801 44.1709 183.435 45.0776 183.313C45.9675 183.194 46.5992 182.386 46.5027 181.494C46.3285 179.905 46.2088 178.31 46.1039 176.717C46.0451 175.778 45.2371 175.069 44.2989 175.13C43.3628 175.191 42.6534 175.999 42.7143 176.935V176.956ZM42.4624 171.029C42.482 173.007 42.5659 174.983 42.7143 176.956C42.7856 177.89 43.6042 178.593 44.5403 178.519C45.4658 178.448 46.1648 177.644 46.106 176.714C45.9843 174.814 45.9227 172.911 45.9213 171.006C45.9213 170.051 45.1447 169.278 44.1877 169.28C43.2327 169.28 42.4603 170.057 42.4624 171.012V171.029ZM42.4624 171.029C42.4729 171.986 43.2558 172.75 44.2107 172.739C45.1594 172.729 45.9234 171.956 45.9213 171.006C45.9192 169.222 45.9843 167.431 46.1732 165.654C46.2718 164.688 45.5708 163.823 44.6074 163.723C43.642 163.622 42.7772 164.323 42.6765 165.288V165.305C42.496 167.207 42.4393 169.119 42.4624 171.029ZM46.1732 165.654C46.2991 164.436 46.4859 163.179 46.9518 162.037C47.3212 161.128 46.8847 160.092 45.9759 159.722C45.0671 159.353 44.0323 159.791 43.6629 160.7L43.6566 160.711C43.0774 162.17 42.8213 163.75 42.6744 165.307C42.5841 166.273 43.2935 167.129 44.259 167.219C45.2182 167.31 46.0724 166.611 46.1732 165.654ZM46.9518 162.037C47.1009 161.67 47.2625 161.307 47.466 160.967C47.5458 160.837 47.634 160.686 47.7494 160.583C48.4924 159.932 48.5679 158.805 47.9173 158.064C47.2709 157.319 46.1417 157.246 45.3987 157.892L45.3861 157.905C44.5591 158.639 44.0596 159.701 43.6566 160.711C43.2956 161.622 43.7406 162.654 44.6515 163.019C45.5561 163.378 46.5845 162.94 46.9518 162.037ZM47.7494 160.583C47.8019 160.539 47.8543 160.488 47.9173 160.457C47.8606 160.486 47.6403 160.509 47.89 160.49C48.8765 160.419 49.6174 159.563 49.5481 158.576C49.4809 157.678 48.7568 156.966 47.8564 156.918C46.9266 156.868 46.0661 157.298 45.3861 157.905C44.6515 158.559 44.5843 159.689 45.2392 160.425C45.8919 161.158 47.0127 161.227 47.7494 160.583ZM47.3842 160.453C47.4723 160.534 47.5542 160.621 47.6298 160.713C48.2594 161.468 49.3844 161.573 50.14 160.942C50.8914 160.316 51.0005 159.204 50.3834 158.444C49.7475 157.665 48.9038 156.975 47.8564 156.918C46.87 156.866 46.0262 157.623 45.9738 158.61C45.9276 159.487 46.5237 160.27 47.3842 160.457V160.453ZM47.6298 160.713C48.1419 161.33 48.5281 162.058 48.887 162.772C49.3277 163.647 50.3918 163.998 51.265 163.559C52.136 163.122 52.4886 162.065 52.0583 161.191C51.584 160.232 51.0593 159.277 50.3834 158.444C49.7622 157.68 48.6393 157.565 47.8732 158.188C47.1092 158.809 46.9938 159.93 47.6151 160.696L47.6298 160.713ZM48.887 162.772C49.4746 163.939 49.9154 165.175 50.3142 166.415C50.608 167.343 51.5966 167.855 52.5243 167.561C53.4478 167.268 53.962 166.281 53.6702 165.356C53.2253 163.935 52.7174 162.526 52.0583 161.191C51.6239 160.314 50.5618 159.953 49.6845 160.39C48.8072 160.822 48.4483 161.884 48.8828 162.761L48.887 162.772ZM50.3142 166.415C50.8179 168 51.1957 169.622 51.4895 171.257C51.6595 172.202 52.5641 172.832 53.5107 172.664C54.4468 172.496 55.0765 171.604 54.9169 170.664C54.6189 168.869 54.2159 167.091 53.6702 165.353C53.3785 164.428 52.3899 163.912 51.4622 164.203C50.5346 164.493 50.0182 165.484 50.31 166.409L50.3142 166.415ZM51.4895 171.257C51.84 173.209 52.0499 175.182 52.1801 177.159C52.243 178.108 53.0616 178.824 54.0102 178.761C54.9589 178.698 55.6746 177.879 55.6138 176.935C55.4773 174.836 55.2633 172.737 54.9169 170.664C54.7574 169.715 53.8633 169.077 52.9147 169.236C51.9681 169.394 51.3279 170.29 51.4874 171.237L51.4895 171.257ZM52.1801 177.159C52.32 179.246 52.4305 181.333 52.5117 183.422C52.5474 184.354 53.3302 185.08 54.2621 185.047C55.1814 185.011 55.9034 184.249 55.8866 183.328C55.8488 181.196 55.7523 179.065 55.6138 176.935C55.5508 175.988 54.7323 175.266 53.7857 175.327C52.837 175.39 52.1192 176.209 52.1801 177.155V177.159ZM52.5117 183.422C52.5872 185.437 52.8979 187.452 53.4981 189.383C53.666 189.918 54.2348 190.218 54.7721 190.051C55.1394 189.937 55.4102 189.627 55.4731 189.247C55.7985 187.295 55.9223 185.307 55.8866 183.328C55.8719 182.396 55.1016 181.653 54.1698 181.67C53.2358 181.687 52.4949 182.457 52.5117 183.389V183.422ZM61.1883 185.893C61.2785 186.459 61.4402 187.051 61.8284 187.49C62.3804 188.111 63.2641 188.212 63.9714 187.801C64.5758 187.45 64.7815 186.676 64.431 186.071C64.2673 185.79 64.0049 185.584 63.6943 185.492C63.5831 184.799 62.9324 184.331 62.2419 184.442C61.5493 184.554 61.0792 185.202 61.1883 185.893ZM60.8315 182.879C60.914 183.888 61.033 184.892 61.1883 185.893C61.2974 186.585 61.9481 187.058 62.6386 186.948C63.3312 186.837 63.8014 186.193 63.6943 185.5C63.5558 184.591 63.4816 183.675 63.4718 182.753C63.4613 182.023 62.8632 181.439 62.1328 181.449C61.4024 181.46 60.8189 182.058 60.8273 182.789L60.8315 182.879ZM60.6573 178.658C60.6825 180.064 60.7203 181.475 60.8315 182.877C60.8924 183.605 61.5283 184.147 62.2566 184.088C62.9492 184.033 63.4802 183.448 63.4718 182.753C63.4529 181.387 63.4676 180.018 63.4844 178.65C63.4949 177.869 62.8695 177.227 62.0887 177.218C61.3079 177.208 60.6678 177.833 60.6573 178.614V178.658ZM60.6573 178.658C60.672 179.439 61.3163 180.06 62.0971 180.045C62.8611 180.031 63.476 179.416 63.4844 178.65C63.5096 176.71 63.6041 174.771 63.73 172.836C63.7846 172.011 63.1591 171.299 62.3343 171.245C61.5094 171.19 60.7958 171.816 60.7412 172.641V172.678C60.6615 174.672 60.6195 176.666 60.6573 178.658ZM63.73 172.836C63.8643 170.789 64.1099 168.749 64.494 166.734C64.6535 165.895 64.1015 165.083 63.262 164.923C62.4224 164.764 61.6102 165.316 61.4506 166.155L61.4486 166.166C61.054 168.317 60.8294 170.496 60.7412 172.678C60.7098 173.505 61.3499 174.202 62.1768 174.236C62.987 174.267 63.6775 173.648 63.73 172.836ZM64.494 166.734C64.7815 165.221 65.1131 163.683 65.6903 162.249C66.0135 161.439 65.6232 160.52 64.813 160.194C64.0049 159.869 63.0856 160.262 62.7603 161.072L62.7477 161.101C62.1307 162.73 61.7634 164.455 61.4486 166.166C61.2953 167.007 61.8515 167.815 62.6932 167.971C63.5306 168.122 64.3345 167.572 64.494 166.734ZM65.6903 162.249C65.8624 161.817 66.0534 161.389 66.2927 160.988C66.4102 160.79 66.5403 160.581 66.7125 160.427C67.3694 159.836 67.424 158.824 66.8321 158.167C66.2423 157.508 65.2307 157.453 64.5716 158.045L64.5653 158.052C63.6838 158.853 63.1633 160.008 62.7477 161.101C62.4392 161.915 62.8506 162.826 63.6649 163.137C64.4688 163.441 65.3713 163.047 65.6903 162.249ZM66.7125 160.427C66.9076 160.249 67.1385 160.111 67.4051 160.083C68.2908 159.993 68.9372 159.202 68.8449 158.316C68.7546 157.43 67.9634 156.786 67.0777 156.876L67.0504 156.88C66.1164 156.992 65.258 157.422 64.5653 158.052C63.9105 158.648 63.8622 159.659 64.4583 160.314C65.0481 160.965 66.0555 161.015 66.7125 160.427ZM67.4051 160.083C67.4554 160.079 67.51 160.102 67.5562 160.119C67.7514 160.196 67.9256 160.327 68.0872 160.459C68.7798 161.032 69.804 160.933 70.3749 160.241C70.9479 159.548 70.8493 158.524 70.1567 157.953L70.1462 157.942C69.2752 157.237 68.1942 156.742 67.0504 156.88C66.1668 156.985 65.535 157.789 65.642 158.673C65.747 159.544 66.532 160.171 67.4051 160.083ZM68.0872 160.459C68.3349 160.66 68.5238 160.937 68.6896 161.21C68.9876 161.695 69.2164 162.222 69.4179 162.753C69.739 163.595 70.6793 164.019 71.523 163.697C72.3646 163.378 72.7886 162.438 72.4675 161.594C71.9596 160.255 71.2795 158.862 70.1462 157.942C69.4473 157.378 68.4251 157.485 67.8584 158.184C67.298 158.876 67.3967 159.892 68.0872 160.459ZM69.42 162.751C69.9992 164.275 70.3225 165.889 70.5386 167.501C70.6583 168.393 71.4789 169.02 72.3709 168.9C73.263 168.783 73.8884 167.962 73.7709 167.07C73.5232 165.211 73.1391 163.351 72.4696 161.592C72.1506 160.751 71.2103 160.327 70.3665 160.648C69.5249 160.967 69.0988 161.907 69.42 162.751ZM70.5386 167.501C70.7975 169.454 70.9605 171.415 71.0235 173.384C71.055 174.282 71.8063 174.985 72.7047 174.958C73.6009 174.926 74.3061 174.175 74.2788 173.279C74.2144 171.201 74.0465 169.131 73.7751 167.07C73.6554 166.178 72.8348 165.551 71.9428 165.67C71.0508 165.788 70.4211 166.606 70.5386 167.501ZM71.0235 173.384C71.1704 177.791 71.5587 182.195 71.9554 186.585C72.0057 187.16 72.5137 187.584 73.0887 187.532C73.6093 187.486 74.0122 187.062 74.0374 186.539C74.2326 182.127 74.4194 177.695 74.2788 173.279C74.2515 172.38 73.498 171.675 72.5997 171.705C71.7014 171.732 70.9941 172.483 71.0235 173.384ZM80.9993 185.632C80.9993 186.331 81.566 186.898 82.2649 186.898C82.9638 186.898 83.5305 186.331 83.5305 185.632V184.787C83.5305 184.088 82.9638 183.521 82.2649 183.521C81.566 183.521 80.9993 184.088 80.9993 184.787V185.632ZM81.0077 185.842C81.0916 186.235 81.312 186.577 81.6835 186.77C81.85 186.854 82.0256 186.9 82.2103 186.909C82.4496 186.919 82.6868 186.86 82.8946 186.741C83.2933 186.51 83.5305 186.082 83.5305 185.632C83.5305 185.544 83.5214 185.458 83.5032 185.372C83.3878 184.68 82.735 184.214 82.0424 184.327C81.3498 184.44 80.8818 185.093 80.9972 185.786L81.0077 185.842ZM80.7789 184.768L81.0077 185.842C81.1546 186.529 81.8262 186.967 82.5126 186.822C83.1569 186.684 83.5914 186.077 83.5095 185.423L83.3731 184.331C83.2849 183.611 82.6259 183.099 81.9039 183.189C81.184 183.278 80.6719 183.937 80.76 184.659L80.7789 184.768ZM80.4305 182.251C80.5019 183.095 80.6047 183.939 80.7789 184.77C80.93 185.479 81.6289 185.935 82.3405 185.784C83.01 185.641 83.4591 185.011 83.3731 184.333C83.2828 183.599 83.2535 182.86 83.2472 182.121C83.2409 181.342 82.6049 180.715 81.8241 180.723C81.0476 180.73 80.4179 181.368 80.4263 182.146C80.4263 182.183 80.4277 182.218 80.4305 182.251ZM80.2794 175.455C80.285 176.908 80.3025 178.359 80.3319 179.81C80.3508 180.625 80.3633 181.441 80.4305 182.251C80.4956 183.028 81.1798 183.605 81.9564 183.54C82.691 183.477 83.2535 182.86 83.2472 182.121C83.2283 179.905 83.2786 177.684 83.3101 175.468C83.3206 174.63 82.6511 173.944 81.8136 173.931C80.9783 173.921 80.2899 174.59 80.2794 175.426V175.455ZM80.2794 175.455C80.2836 176.293 80.9657 176.966 81.8031 176.962C82.628 176.956 83.2996 176.291 83.3101 175.468C83.3479 172.634 83.434 169.784 83.7782 166.967C83.8831 166.107 83.2702 165.322 82.4076 165.217C81.5471 165.112 80.76 165.725 80.6551 166.588V166.594C80.3067 169.53 80.2626 172.502 80.2794 175.455ZM83.7761 166.97C84.0027 165.114 84.3008 163.259 84.7961 161.454C85.0312 160.604 84.5296 159.726 83.6816 159.493C82.8316 159.26 81.9522 159.76 81.7192 160.61L81.7129 160.631C81.205 162.585 80.8902 164.589 80.653 166.592C80.5501 167.454 81.1672 168.237 82.0298 168.34C82.8903 168.441 83.6732 167.828 83.7782 166.967M84.7961 161.452C84.9619 160.851 85.1445 160.251 85.3943 159.68C85.4992 159.441 85.6125 159.162 85.7931 158.967C86.4122 158.306 86.3765 157.267 85.7154 156.65C85.0522 156.032 84.0153 156.066 83.3983 156.729L83.3416 156.792C82.4496 157.848 82.055 159.319 81.7129 160.631C81.4925 161.483 82.0025 162.352 82.8568 162.575C83.7005 162.793 84.5652 162.293 84.7961 161.452ZM85.7931 158.967C85.8602 158.895 85.9337 158.824 86.0155 158.769C86.9369 158.759 87.6736 158.003 87.6652 157.082C87.6547 156.2 86.9579 155.476 86.0764 155.434C84.9829 155.38 84.0258 155.98 83.3416 156.79C82.7581 157.483 82.8463 158.518 83.5368 159.099C84.2042 159.666 85.197 159.605 85.7931 158.967ZM85.5055 158.698C85.6671 158.912 85.7889 159.16 85.9043 159.401C86.2947 160.243 87.2937 160.608 88.1354 160.218C88.977 159.825 89.3422 158.826 88.9518 157.984L88.9455 157.972C88.3872 156.796 87.5099 155.506 86.0764 155.434C85.1529 155.392 84.3721 156.1 84.326 157.021C84.2903 157.783 84.7751 158.476 85.5055 158.7V158.698ZM85.9043 159.401C86.4437 160.562 86.79 161.813 87.0817 163.053C87.2979 163.972 88.2151 164.543 89.1344 164.327C90.0516 164.111 90.6204 163.194 90.4063 162.274L90.4 162.251C90.0348 160.791 89.592 159.334 88.9455 157.97C88.5467 157.132 87.5435 156.775 86.7061 157.174C85.8728 157.571 85.516 158.564 85.9043 159.401ZM87.0817 163.053C87.4679 164.701 87.7576 166.369 87.98 168.044C88.106 168.995 88.977 169.664 89.9278 169.539C90.8786 169.413 91.5481 168.539 91.4222 167.589V167.576C91.1703 165.786 90.8387 164.004 90.4 162.251C90.1691 161.336 89.2415 160.782 88.3264 161.009C87.4239 161.235 86.8677 162.146 87.0796 163.055M87.98 168.046C88.2277 169.929 88.3977 171.82 88.509 173.713C88.5656 174.679 89.3926 175.415 90.358 175.359C91.3235 175.302 92.0623 174.475 92.0056 173.509V173.503C91.8839 171.522 91.6971 169.545 91.4201 167.578C91.2878 166.627 90.4084 165.966 89.4597 166.101C88.5153 166.233 87.8541 167.102 87.98 168.046ZM88.509 173.713C88.8322 179.185 89.0924 184.659 89.3632 190.132C89.3947 190.762 89.9299 191.247 90.5595 191.215C91.143 191.186 91.609 190.72 91.6425 190.137C91.8188 186.751 91.9763 183.364 92.0497 179.974C92.098 177.821 92.1337 175.657 92.0035 173.505C91.9448 172.54 91.1157 171.805 90.1503 171.862C89.1848 171.921 88.4502 172.75 88.509 173.713Z" fill="black"/>
<path d="M52.0332 182.851C57.2887 182.472 62.5421 182.048 67.7829 181.487C68.4273 181.418 68.8953 180.841 68.8239 180.194C68.7568 179.565 68.1985 179.101 67.5646 179.149C62.328 179.56 57.0914 179.947 51.8506 180.327C51.1538 180.377 50.6291 180.983 50.6794 181.68C50.7298 182.379 51.3364 182.902 52.0332 182.851ZM67.7829 181.487C75.068 180.706 82.3657 180.035 89.6613 179.351C90.0601 179.313 90.3497 178.96 90.3119 178.563C90.2762 178.179 89.9446 177.892 89.5584 177.909C82.2272 178.257 74.8833 178.578 67.5646 179.149C66.9182 179.199 66.4376 179.764 66.4879 180.41C66.5383 181.057 67.1029 181.54 67.7472 181.489L67.7829 181.487ZM34.8667 114.901C34.9801 115.592 35.6328 116.058 36.3233 115.942C37.0118 115.829 37.4777 115.176 37.3644 114.488C37.1293 113.073 36.9866 111.646 36.9131 110.215C36.8795 109.564 36.3254 109.06 35.6727 109.096C35.0535 109.127 34.5645 109.633 34.5519 110.25C34.5204 111.808 34.6107 113.367 34.8667 114.901ZM36.9131 110.194C36.8313 109.039 36.8522 107.876 36.9131 106.722C36.9488 106.092 36.464 105.553 35.8343 105.519C35.2047 105.486 34.6652 105.971 34.6317 106.6V106.651C34.6219 107.844 34.596 109.038 34.554 110.231C34.5288 110.882 35.0367 111.432 35.6874 111.457C36.3401 111.48 36.89 110.974 36.9152 110.319L36.9131 110.194ZM36.9131 106.722C36.9992 105.114 37.1419 103.511 37.3014 101.909C37.3686 101.236 36.8753 100.633 36.2016 100.566C35.5258 100.499 34.9234 100.99 34.8583 101.666L34.8541 101.7C34.7366 103.347 34.6464 104.999 34.6317 106.651C34.6275 107.28 35.1333 107.799 35.7629 107.805C36.3737 107.809 36.8795 107.333 36.9131 106.722ZM37.3014 101.909C37.4735 100.195 37.7023 98.4842 38.0129 96.7883C38.1409 96.0915 37.6792 95.4198 36.9824 95.2918C36.2835 95.1659 35.6139 95.6276 35.4859 96.3244L35.4838 96.3412C35.1816 98.1147 34.9843 99.905 34.8541 101.7C34.808 102.377 35.3159 102.965 35.9938 103.013C36.6571 103.062 37.2342 102.573 37.3014 101.909ZM38.0129 96.7883C38.122 96.1943 38.2438 95.5961 38.4327 95.021C38.483 94.872 38.5901 94.5803 38.6573 94.509C39.1526 93.9759 39.1232 93.1447 38.5922 92.6472C38.0612 92.1519 37.2279 92.1793 36.7305 92.7103C36.3401 93.13 36.1218 93.6882 35.956 94.2276C35.7441 94.9182 35.6034 95.6297 35.4838 96.3412C35.3642 97.0401 35.8343 97.7034 36.5332 97.823C37.2258 97.9405 37.887 97.4788 38.0129 96.7883ZM37.7338 94.9286C38.2795 95.4323 39.1337 95.401 39.6395 94.8532C40.0299 94.4334 40.1097 93.8078 39.8389 93.2999C39.5661 92.7878 39.1547 92.3282 38.5817 92.154C37.9017 91.9442 37.2027 92.2023 36.7305 92.7103C36.2352 93.2413 36.2625 94.0765 36.7935 94.5719C37.0495 94.8111 37.3874 94.9391 37.7338 94.9286ZM37.4399 94.532C37.8429 95.3548 38.0024 96.3307 38.1787 97.2185C38.3277 97.9699 39.056 98.4568 39.8053 98.3057C40.5546 98.1588 41.0415 97.4305 40.8925 96.6812L40.8862 96.6602C40.6428 95.5268 40.3888 94.3305 39.8389 93.3021C39.4884 92.6452 38.6698 92.3953 38.0129 92.7479C37.3707 93.09 37.1188 93.8814 37.4399 94.532ZM38.1787 97.2185C38.474 98.7087 38.7412 100.204 38.9847 101.706C39.1127 102.484 39.8473 103.013 40.6281 102.885C41.4067 102.759 41.9357 102.025 41.8076 101.244L41.8013 101.211C41.5173 99.6896 41.2115 98.1721 40.8841 96.6581C40.7246 95.911 39.9879 95.4366 39.2407 95.5982C38.504 95.7577 38.0297 96.4798 38.1766 97.2207M38.9847 101.708C39.2176 103.131 39.4716 104.55 39.7717 105.96C39.9417 106.762 40.7309 107.272 41.5327 107.102C42.3344 106.932 42.8465 106.143 42.6744 105.341L42.666 105.301C42.3386 103.947 42.0595 102.579 41.8013 101.211C41.6544 100.434 40.9093 99.9261 40.1327 100.073C39.3688 100.216 38.8608 100.942 38.9847 101.708ZM39.7738 105.967C40.2818 108.309 41.2535 110.548 42.3134 112.687C42.5548 113.174 43.1425 113.371 43.6294 113.132C44.0282 112.933 44.2444 112.49 44.1541 112.051C43.6819 109.799 43.1992 107.549 42.6681 105.307C42.4793 104.51 41.6796 104.017 40.882 104.208C40.095 104.392 39.6017 105.175 39.7738 105.967Z" fill="black"/>
<path d="M34.6379 117.361C35.0471 117.472 35.448 117.645 35.8426 117.794C36.4953 118.043 37.2278 117.714 37.4755 117.059C37.7232 116.408 37.3957 115.676 36.7409 115.428C36.1259 115.195 35.3976 114.899 34.7281 115.025C34.0775 115.147 33.6472 115.772 33.7689 116.423C33.8529 116.876 34.1929 117.242 34.6379 117.361ZM34.3251 117.25L34.5245 117.325C35.1437 117.558 35.8363 117.246 36.0693 116.627C36.3043 116.007 35.9916 115.317 35.3725 115.082C35.129 114.99 34.8624 114.979 34.6127 115.052L34.4049 115.113C33.8088 115.287 33.4646 115.915 33.6409 116.511C33.7396 116.851 33.9935 117.124 34.3251 117.25ZM34.2412 117.216C34.8016 117.5 35.4858 117.275 35.7691 116.717C36.0546 116.154 35.83 115.47 35.2696 115.185C35.0996 115.101 34.9086 115.059 34.7176 115.065L34.4721 115.094C33.8634 115.233 33.4856 115.837 33.6241 116.446C33.6934 116.748 33.8844 117.011 34.153 117.168L34.2412 117.216ZM34.2517 117.223L34.8708 117.525C35.5446 117.859 36.361 117.581 36.6926 116.906C37.0243 116.232 36.7472 115.416 36.0735 115.084C35.8153 114.958 35.5236 114.916 35.2402 114.962C35.0164 115.004 34.7904 115.043 34.5623 115.08C33.9432 115.185 33.5276 115.774 33.6346 116.394C33.6976 116.753 33.9264 117.061 34.2517 117.223ZM34.8708 117.525C35.4648 117.819 36.1218 117.98 36.7766 118.058C37.6707 118.163 38.4809 117.527 38.5879 116.633C38.6928 115.741 38.0569 114.929 37.1628 114.824C37.0844 114.814 37.0075 114.81 36.9319 114.813C36.3652 114.826 35.7985 114.866 35.2402 114.962C34.4993 115.088 34.0019 115.795 34.1299 116.536C34.2034 116.965 34.4784 117.334 34.8708 117.525ZM36.7766 118.058C37.4902 118.142 38.208 118.155 38.9237 118.127C39.8766 118.092 40.6217 117.292 40.586 116.337C40.5503 115.384 39.7507 114.641 38.7957 114.675L38.6697 114.685C38.0926 114.748 37.5112 114.801 36.9319 114.813C36.0315 114.834 35.32 115.581 35.341 116.48C35.362 117.29 35.9727 117.964 36.7766 118.058ZM38.9237 118.127C39.8178 118.094 40.7035 117.938 41.5641 117.695C42.5043 117.43 43.05 116.457 42.7856 115.516C42.5211 114.578 41.5473 114.03 40.607 114.295C39.9731 114.473 39.3267 114.612 38.6697 114.685C37.7211 114.79 37.0389 115.644 37.1439 116.593C37.2425 117.491 38.0191 118.161 38.9237 118.127ZM41.5641 117.695C42.8947 117.321 44.2002 116.855 45.4847 116.345C46.064 116.114 46.3452 115.457 46.1143 114.878C45.9716 114.521 45.6568 114.261 45.2811 114.188C43.7427 113.892 42.1223 113.869 40.607 114.295C39.6667 114.559 39.121 115.535 39.3855 116.473C39.6499 117.414 40.6238 117.959 41.5641 117.695Z" fill="black"/>
<path d="M33.6914 121.429C33.7523 122.098 34.3442 122.591 35.0137 122.53C35.6706 122.47 36.1597 121.901 36.1198 121.244C36.082 120.585 36.0547 119.922 36.0862 119.26C36.103 118.962 36.103 118.631 36.2436 118.362C36.5668 117.741 36.3255 116.977 35.7042 116.654C35.1375 116.36 34.4449 116.532 34.0797 117.057C33.7082 117.592 33.6264 118.282 33.597 118.916C33.555 119.754 33.6138 120.595 33.6914 121.429ZM33.6914 121.441C33.8174 122.658 33.9552 123.877 34.1049 125.095C34.1826 125.738 34.7681 126.195 35.4104 126.115C36.0526 126.038 36.5102 125.452 36.4304 124.81C36.2821 123.629 36.1793 122.444 36.1219 121.256C36.0883 120.585 35.5174 120.066 34.8437 120.1C34.1721 120.132 33.6537 120.704 33.6872 121.376L33.6914 121.441ZM34.1049 125.095C34.3253 126.9 34.7723 128.703 35.5993 130.328C35.7924 130.705 36.2499 130.852 36.6277 130.661C36.909 130.517 37.0727 130.212 37.037 129.895C36.8439 128.199 36.6417 126.506 36.4304 124.81C36.3528 124.167 35.7672 123.71 35.1249 123.79C34.4806 123.867 34.0251 124.453 34.1049 125.095ZM46.7693 117.957C46.7567 117.428 46.8155 116.899 46.9477 116.389C47.0947 115.82 46.7525 115.241 46.1838 115.094C45.615 114.947 45.0357 115.289 44.8888 115.858C44.7209 116.512 44.5949 117.174 44.511 117.846C44.4312 118.467 44.8741 119.034 45.4953 119.111C46.1166 119.191 46.6833 118.748 46.7609 118.127C46.7693 118.071 46.7721 118.014 46.7693 117.957ZM44.5571 120.581C44.6306 121.261 45.2435 121.752 45.9214 121.678C46.6035 121.603 47.0947 120.99 47.0191 120.31L47.0128 120.257C46.8953 119.498 46.7903 118.727 46.7693 117.957C46.7546 117.33 46.232 116.836 45.6066 116.851C45.0462 116.868 44.5802 117.29 44.511 117.846C44.3997 118.752 44.4564 119.678 44.5571 120.581ZM44.5571 120.589C44.7838 122.522 45.573 124.365 46.5175 126.048C46.74 126.447 47.2437 126.59 47.6425 126.365C47.9636 126.187 48.1273 125.815 48.0412 125.456C47.6383 123.739 47.2689 122.012 47.0128 120.266C46.9142 119.59 46.2845 119.12 45.6066 119.221C44.9454 119.317 44.4795 119.924 44.5571 120.589ZM85.6945 109.935C85.8393 110.37 85.8477 110.857 85.854 111.308C85.8666 112.013 86.448 112.576 87.1553 112.563C87.8605 112.55 88.4209 111.969 88.4104 111.262V111.237C88.381 110.536 88.3223 109.816 88.1019 109.146C87.8836 108.481 87.1679 108.12 86.5047 108.338C85.8393 108.556 85.4741 109.272 85.6945 109.935ZM85.8561 111.3C85.8575 111.477 85.8624 111.656 85.8708 111.835C85.896 112.297 86.0534 112.723 86.4606 112.997C86.5963 113.088 86.7432 113.152 86.9013 113.188C87.0651 113.226 87.2309 113.232 87.3988 113.205C87.7892 113.142 88.1292 112.901 88.3265 112.563C88.5154 112.234 88.5531 111.835 88.4251 111.476L88.4104 111.23C88.3789 110.525 87.7829 109.979 87.0776 110.009C86.3892 110.04 85.8498 110.611 85.8561 111.3ZM88.3265 112.563L88.6035 112.084C88.9792 111.434 88.7588 110.605 88.1082 110.227C87.4596 109.851 86.6285 110.074 86.2528 110.722C86.2052 110.805 86.1668 110.89 86.1374 110.978L85.9632 111.505C85.7407 112.187 86.1101 112.922 86.7943 113.147C87.3778 113.34 88.0179 113.096 88.3265 112.563ZM88.6035 112.084C88.9288 111.52 89.0862 110.855 89.2332 110.227C89.4137 109.467 88.9435 108.707 88.1837 108.529C87.4261 108.351 86.6663 108.821 86.4879 109.579L86.4837 109.595C86.3787 110.057 86.2843 110.527 86.1374 110.978C85.9023 111.69 86.2906 112.46 87.0042 112.693C87.6129 112.895 88.2803 112.641 88.6035 112.084ZM89.2332 110.227C89.4458 109.32 89.6494 108.412 89.8439 107.503C90.0118 106.726 89.5186 105.964 88.7441 105.796C87.9697 105.628 87.2057 106.122 87.0399 106.896L87.0336 106.925C86.8615 107.818 86.6782 108.708 86.4837 109.595C86.3137 110.355 86.7922 111.111 87.5541 111.281C88.3076 111.449 89.0569 110.978 89.2332 110.227ZM89.8439 107.503C90.1252 106.197 90.3581 104.879 90.5743 103.561C90.7024 102.77 90.1671 102.025 89.3759 101.895C88.5846 101.764 87.8374 102.302 87.7094 103.093C87.4995 104.373 87.2812 105.654 87.0336 106.925C86.8825 107.702 87.3904 108.458 88.167 108.609C88.9351 108.756 89.676 108.267 89.8439 107.503ZM90.5743 103.561C90.8164 102.078 91.0669 100.595 91.3215 99.1116C91.4537 98.3266 90.929 97.5836 90.1462 97.4493C89.3696 97.3171 88.6308 97.8334 88.4881 98.6079C88.2138 100.101 87.9529 101.596 87.7094 103.093C87.5793 103.884 88.1187 104.631 88.9078 104.76C89.7012 104.89 90.4463 104.352 90.5764 103.563M91.3215 99.1116C91.4936 98.0957 91.6615 97.0694 91.9407 96.0787C92.1527 95.3273 91.7182 94.5465 90.9668 94.3367C90.2301 94.1268 89.4598 94.5444 89.2332 95.2769C88.8973 96.362 88.6938 97.4913 88.4881 98.6079C88.3454 99.3886 88.8617 100.142 89.6424 100.285C90.4253 100.427 91.1746 99.9112 91.3173 99.1304L91.3215 99.1116ZM91.9407 96.0787C92.0078 95.8479 92.054 95.533 92.1883 95.3273C92.6081 94.6829 92.4255 93.8204 91.7812 93.4006C91.2481 93.0543 90.5491 93.1131 90.0811 93.5413C89.6068 93.9778 89.4179 94.6809 89.2332 95.2769C89.0023 96.022 89.42 96.8132 90.165 97.0441C90.9101 97.275 91.7014 96.8574 91.9323 96.1123L91.9407 96.0787ZM89.9678 95.47C90.0153 95.6547 90.0587 95.8401 90.0979 96.0262C90.2574 96.7818 91.0004 97.2645 91.7518 97.1029C92.5074 96.9434 92.9901 96.2005 92.8285 95.4491L92.8243 95.4239C92.7403 95.0671 92.6564 94.7124 92.5325 94.3682C92.3038 93.728 91.8294 93.1822 91.0906 93.1634C91.0067 93.1606 90.9227 93.1663 90.8388 93.1803C90.7562 93.1915 90.6758 93.2103 90.5974 93.2369C90.4043 93.3027 90.2322 93.4027 90.0811 93.5413C89.5291 94.0471 89.4766 94.9033 89.9657 95.4742L89.9678 95.47ZM90.0979 96.0262C90.3078 97.0169 90.5247 98.0061 90.7485 98.994C90.9185 99.758 91.6762 100.239 92.4402 100.066C93.2042 99.8944 93.6848 99.1368 93.5106 98.3728V98.3581C93.2797 97.38 93.0524 96.4019 92.8243 95.4239C92.6522 94.6725 91.8987 94.2044 91.1494 94.3765C90.4085 94.5486 89.9405 95.2832 90.0979 96.0262ZM90.7485 98.994C91.0186 100.193 91.311 101.387 91.6258 102.575C91.8294 103.339 92.6123 103.796 93.3784 103.595C94.1445 103.391 94.5999 102.608 94.3984 101.842L94.3963 101.832C94.0801 100.679 93.7863 99.5208 93.5106 98.3581C93.3322 97.5962 92.564 97.1239 91.8042 97.3044C91.0487 97.4828 90.5785 98.2363 90.7485 98.994ZM91.6258 102.575C92.0057 104.01 92.5199 105.414 93.0279 106.808C93.8737 109.115 94.7699 111.402 95.6829 113.684C95.8739 114.167 96.4238 114.402 96.9066 114.209C97.3515 114.032 97.5929 113.547 97.4648 113.086C96.4385 109.335 95.408 105.587 94.3942 101.834C94.1885 101.07 93.4015 100.616 92.6354 100.826C91.8756 101.03 91.4223 101.813 91.6258 102.575Z" fill="black"/>
<path d="M85.3104 114.194C85.3342 114.278 85.367 114.36 85.409 114.439C85.6357 114.859 86.0764 115.111 86.5466 115.124C86.9286 115.134 87.2938 114.971 87.5393 114.679V114.677C88.1627 114.362 88.4167 113.604 88.1039 112.977C87.7891 112.353 87.0293 112.099 86.4039 112.412L86.3997 112.416C86.2359 112.5 86.0722 112.584 85.919 112.689C85.5014 112.97 85.2201 113.419 85.2642 113.942C85.2698 114.026 85.2852 114.11 85.3104 114.194ZM86.5634 115.124L87.3441 115.134C88.0179 115.14 88.572 114.599 88.5783 113.925C88.5867 113.296 88.1123 112.765 87.4869 112.697L86.7103 112.614C86.0177 112.542 85.4006 113.042 85.325 113.734C85.2537 114.425 85.7532 115.044 86.4458 115.12L86.5634 115.124ZM87.3441 115.134C87.7933 115.138 88.2466 115.05 88.6853 114.966C89.3947 114.83 90.0978 114.666 90.8009 114.498C91.4537 114.343 91.8588 113.684 91.7013 113.029C91.5439 112.376 90.887 111.971 90.2322 112.127L90.2091 112.135C89.5542 112.305 88.8994 112.471 88.2361 112.597C88.0179 112.637 87.6695 112.716 87.4869 112.697C86.8152 112.626 86.215 113.113 86.1436 113.783C86.0722 114.454 86.5571 115.055 87.2287 115.126L87.3441 115.134ZM90.8051 114.498C93.0068 113.963 95.2043 113.392 97.3619 112.697C97.7859 112.561 98.0189 112.106 97.8824 111.68C97.7775 111.348 97.469 111.123 97.1227 111.119C94.7929 111.098 92.459 111.556 90.2133 112.133C89.5605 112.301 89.168 112.966 89.3359 113.617C89.5039 114.263 90.1545 114.656 90.8051 114.498Z" fill="black"/>
<path d="M88.784 116.261C88.784 116.192 88.7735 115.989 88.8469 115.94C89.3045 115.625 89.4241 115 89.1114 114.54C88.7966 114.079 88.1711 113.961 87.7115 114.274C87.0608 114.714 86.7733 115.468 86.7565 116.232C86.7439 116.79 87.1889 117.254 87.7471 117.267C88.3075 117.279 88.7714 116.834 88.784 116.276V116.261ZM86.8027 118.537C86.8279 119.12 87.3232 119.571 87.9067 119.546C88.488 119.521 88.9414 119.028 88.9141 118.444L88.912 118.39C88.8427 117.682 88.7777 116.973 88.784 116.261C88.7882 115.703 88.3369 115.243 87.7765 115.239C87.2224 115.235 86.7691 115.678 86.7565 116.232C86.7397 117 86.7691 117.768 86.8027 118.537ZM86.8027 118.537C86.8418 119.473 86.9153 120.405 87.023 121.334C87.0944 121.951 87.6527 122.392 88.2677 122.321C88.8847 122.247 89.3255 121.691 89.2541 121.074L89.2457 121.026C89.1058 120.15 88.996 119.271 88.912 118.39C88.8574 117.808 88.339 117.382 87.7556 117.439C87.1973 117.491 86.7775 117.976 86.8027 118.537ZM87.023 121.343C87.1826 122.621 87.6527 124.05 88.7777 124.793C89.124 125.022 89.5878 124.927 89.8145 124.583C89.9446 124.386 89.974 124.143 89.8964 123.92C89.5668 122.992 89.3968 122.006 89.2457 121.034C89.1534 120.421 88.5804 120.001 87.9675 120.096C87.3673 120.188 86.9496 120.74 87.023 121.343ZM98.063 114.498C98.1154 114.228 98.084 114.372 98.0567 114.429C98.0336 114.479 97.9454 114.589 98.1154 114.385C98.5646 113.848 98.4932 113.05 97.9559 112.601C97.4648 112.194 96.7491 112.213 96.2811 112.647C95.9872 112.921 95.7424 113.233 95.5465 113.583C95.1771 114.238 95.41 115.065 96.0649 115.43C96.7197 115.797 97.5467 115.564 97.9119 114.912C97.986 114.783 98.0364 114.644 98.063 114.498ZM98.0504 115.73C98.0546 115.264 98.0567 114.798 98.084 114.333C98.1301 113.585 97.5592 112.941 96.8121 112.895C96.2915 112.863 95.8004 113.13 95.5444 113.585C95.1918 114.215 95.1582 114.996 95.1519 115.697C95.1435 116.498 95.7836 117.153 96.5854 117.164C97.385 117.172 98.042 116.53 98.0504 115.73ZM95.4562 118.518C95.6031 119.252 96.3209 119.733 97.0576 119.586C97.7335 119.449 98.2015 118.832 98.149 118.146C98.0861 117.342 98.042 116.536 98.0504 115.73C98.0588 114.929 97.4165 114.272 96.6169 114.263C95.8151 114.255 95.1603 114.897 95.1519 115.697C95.1414 116.645 95.2715 117.59 95.4562 118.518ZM95.4562 118.518C95.6353 119.406 95.8018 120.297 95.9557 121.191C96.0754 121.888 96.7323 122.354 97.4291 122.235C98.1238 122.117 98.5919 121.458 98.4722 120.761V120.753C98.3148 119.89 98.2162 119.019 98.149 118.146C98.0924 117.397 97.4375 116.836 96.6882 116.893C95.9389 116.952 95.3764 117.607 95.4352 118.354C95.4394 118.408 95.4464 118.463 95.4562 118.518ZM95.9557 121.194C96.1908 122.558 96.7386 123.895 97.6663 124.936C97.9706 125.28 98.4974 125.312 98.8416 125.005C99.0599 124.81 99.1607 124.516 99.1061 124.229C98.8878 123.071 98.6779 121.913 98.4722 120.753C98.3484 120.06 97.6852 119.598 96.9905 119.72C96.2978 119.844 95.8361 120.503 95.9557 121.194ZM43.3419 118.952C44.7663 119.028 46.1893 119.021 47.6109 118.931C48.2826 118.889 48.7926 118.312 48.7506 117.64C48.7107 116.992 48.1671 116.488 47.5165 116.499C46.1732 116.521 44.8279 116.496 43.4804 116.423C42.7836 116.385 42.1854 116.92 42.1476 117.619C42.1099 118.316 42.6409 118.912 43.3419 118.952ZM47.6109 118.931C49.4957 118.818 51.3833 118.715 53.2694 118.622C53.9704 118.587 54.5077 117.993 54.4721 117.294C54.4385 116.593 53.8424 116.056 53.1435 116.089L53.0721 116.095C51.2293 116.291 49.374 116.469 47.5186 116.499C46.847 116.509 46.3096 117.065 46.3222 117.737C46.3327 118.408 46.8847 118.944 47.5585 118.933L47.6109 118.931ZM53.2694 118.622C55.7838 118.497 58.2962 118.36 60.8064 118.213C61.5704 118.171 62.1538 117.514 62.1077 116.75C62.0657 115.988 61.4108 115.405 60.6469 115.449H60.6343C58.1101 115.614 55.5893 115.83 53.0721 116.095C52.3753 116.169 51.8716 116.794 51.945 117.491C52.0164 118.159 52.5978 118.656 53.2694 118.625M60.8064 118.213C63.283 118.069 65.761 117.931 68.2405 117.794C69.0129 117.752 69.6047 117.088 69.5628 116.314C69.5208 115.541 68.8575 114.95 68.0831 114.991C65.6008 115.131 63.1179 115.285 60.6343 115.453C59.8703 115.504 59.2931 116.163 59.3456 116.927C59.396 117.684 60.0487 118.257 60.8064 118.213ZM68.2405 117.794C72.6942 117.544 77.1144 116.694 81.4611 115.732C81.9522 115.623 82.2608 115.138 82.1537 114.647C82.053 114.198 81.6353 113.892 81.1778 113.938C76.8185 114.358 72.455 114.748 68.0831 114.991C67.3107 115.033 66.7188 115.697 66.7608 116.471C66.8049 117.244 67.466 117.835 68.2405 117.794Z" fill="black"/>
<path d="M56.8899 119.063C56.8899 119.003 56.8976 118.944 56.913 118.885C56.9214 118.858 56.7283 119.116 56.9865 118.813C57.4398 118.28 57.3748 117.481 56.8417 117.027C56.3568 116.614 55.639 116.627 55.1668 117.057C54.6211 117.556 54.3713 118.274 54.3545 119.002C54.3377 119.703 54.8939 120.283 55.5928 120.302C56.2939 120.316 56.8731 119.762 56.8899 119.063ZM54.7281 121.586C54.8582 122.237 55.49 122.663 56.1406 122.535C56.7619 122.413 57.1817 121.832 57.104 121.204C57.0159 120.505 56.8731 119.771 56.8899 119.063C56.9067 118.362 56.3526 117.783 55.6516 117.764C54.9527 117.749 54.3713 118.304 54.3545 119.002C54.3335 119.861 54.5644 120.751 54.7302 121.584M54.7302 121.567C54.8918 122.463 55.0912 123.355 55.3809 124.22C55.5907 124.85 55.8468 125.486 56.2456 126.019C56.489 126.346 56.9529 126.413 57.2803 126.17C57.4755 126.023 57.5867 125.79 57.5763 125.547C57.5154 124.088 57.3034 122.629 57.104 121.187C57.0138 120.528 56.4051 120.069 55.7482 120.159C55.0891 120.251 54.6295 120.858 54.7197 121.517L54.7302 121.567ZM61.7194 118.944C61.8649 119.845 61.9908 120.748 62.0972 121.653C62.1727 122.329 62.7835 122.812 63.4593 122.734C64.112 122.659 64.5906 122.083 64.5444 121.427C64.4773 120.457 64.3765 119.487 64.2149 118.53C64.1016 117.838 63.4488 117.372 62.7604 117.487C62.0699 117.603 61.606 118.253 61.7194 118.944ZM62.0972 121.653C62.284 123.261 62.9724 124.827 63.623 126.292C63.7993 126.684 64.259 126.861 64.6515 126.686C64.9705 126.544 65.1552 126.204 65.1027 125.857C64.8781 124.388 64.6452 122.91 64.5444 121.429C64.4982 120.751 63.9106 120.239 63.2326 120.285C62.5547 120.331 62.0426 120.919 62.0888 121.597L62.0972 121.653ZM72.6334 123.828C72.8621 124.191 73.3407 124.3 73.7038 124.071C73.9955 123.888 74.1319 123.536 74.0396 123.204C73.5673 121.504 73.2945 119.71 73.5506 117.949C73.6492 117.256 73.1707 116.616 72.478 116.515C71.7854 116.417 71.1432 116.895 71.0445 117.586C70.7255 119.79 71.4706 121.979 72.6334 123.828ZM83.0289 118.194C83.0268 117.932 82.9996 117.596 83.0898 117.344C83.3417 116.639 82.9723 115.86 82.265 115.611C81.7528 115.428 81.1819 115.569 80.8126 115.968C80.2752 116.551 80.1178 117.378 80.0864 118.144C80.0528 118.956 80.6845 119.64 81.4968 119.674C82.309 119.708 82.9933 119.076 83.0268 118.264L83.0289 118.194ZM82.139 122.119C82.4811 122.533 83.0919 122.591 83.5054 122.249C83.8118 121.995 83.9335 121.578 83.8097 121.2C83.5872 120.516 83.3731 119.827 83.201 119.128C83.1255 118.828 83.031 118.505 83.0289 118.194C83.0205 117.38 82.3573 116.725 81.5451 116.731C80.7601 116.74 80.1178 117.359 80.0864 118.142C80.057 118.851 80.3592 119.531 80.7076 120.134C81.1169 120.839 81.6206 121.492 82.139 122.119ZM68.0138 32.2278C68.7274 32.1585 69.2521 31.5247 69.1829 30.8111C69.1409 30.3808 68.889 29.9987 68.507 29.7931C67.6885 29.3502 66.7545 29.5937 66.085 30.1856C65.5036 30.6998 65.4469 31.5876 65.9611 32.169C66.4754 32.7525 67.3632 32.807 67.9445 32.2949L68.0138 32.2278ZM67.8102 32.6727C67.9278 32.4418 68.0558 32.2187 68.1943 32.0032C68.6162 31.3526 68.4315 30.4815 67.7787 30.0596C67.2729 29.7301 66.6118 29.7638 66.1395 30.1395C65.745 30.4543 65.4175 30.8509 65.1783 31.2938C64.79 32.0179 65.0607 32.9183 65.7827 33.3066C66.5068 33.6948 67.4072 33.4242 67.7955 32.7022L67.8102 32.6727ZM67.5374 33.336C67.6101 33.1065 67.7011 32.8854 67.8102 32.6727C68.1838 31.9402 67.8921 31.0462 67.1596 30.6747C66.4418 30.3074 65.5603 30.5844 65.1783 31.2938C64.9852 31.6576 64.8257 32.034 64.6997 32.423C64.4479 33.208 64.8802 34.0475 65.6631 34.2994C66.446 34.5512 67.2855 34.1189 67.5374 33.336ZM66.8615 36.627C67.0085 35.8434 67.1624 35.0619 67.3233 34.2826C67.3883 33.9677 67.4408 33.6382 67.5374 33.336C67.7892 32.551 67.359 31.7136 66.5761 31.4617C65.7911 31.2099 64.9516 31.6402 64.6997 32.423C64.5696 32.8302 64.4898 33.2562 64.4059 33.6738C64.2394 34.4714 64.0806 35.269 63.9294 36.0665C63.7741 36.8767 64.3051 37.6575 65.1132 37.8128C65.9234 37.9682 66.7041 37.4392 66.8594 36.629M65.5519 43.0998C66.008 40.9478 66.4439 38.7908 66.8594 36.629C67.0127 35.821 66.4816 35.0381 65.6736 34.8849C64.8634 34.7296 64.0827 35.2607 63.9274 36.0687C63.5146 38.2095 63.0822 40.3468 62.6303 42.4807C62.4624 43.2887 62.9766 44.0799 63.7846 44.2499C64.5885 44.4199 65.3798 43.9058 65.5519 43.0998ZM63.4761 51.8982C64.2107 48.9745 64.9264 46.0466 65.5519 43.0998C65.7219 42.2917 65.2077 41.5004 64.3996 41.3304C63.5936 41.1583 62.8024 41.6747 62.6303 42.4807C62.0174 45.3939 61.308 48.286 60.586 51.1698C60.3845 51.9674 60.8693 52.7796 61.6669 52.979C62.4645 53.1805 63.2746 52.6957 63.4761 51.8982ZM60.2817 63.4712C61.4213 59.6345 62.5001 55.779 63.4761 51.8982C63.6776 51.1006 63.1928 50.2905 62.3931 50.089C61.5955 49.8875 60.7854 50.3722 60.586 51.1698C59.6184 55.0212 58.5921 58.8559 57.5343 62.6821C57.3244 63.4439 57.7693 64.2309 58.5291 64.4408C59.2805 64.6507 60.0613 64.2184 60.2817 63.4712ZM56.9319 74.6245C58.0639 70.9095 59.1805 67.1917 60.2817 63.4712C60.5062 62.7156 60.076 61.9181 59.3183 61.6935C58.5627 61.4689 57.7651 61.8991 57.5406 62.6568L57.5343 62.6821C56.496 66.4236 55.4718 70.1679 54.4616 73.9151C54.2769 74.6014 54.6819 75.3065 55.3683 75.4912C56.0399 75.6717 56.7325 75.2877 56.9319 74.6245ZM54.4385 83.5236C55.1878 80.5369 56.0336 77.5713 56.9319 74.6245C57.1397 73.9466 56.7556 73.2266 56.0777 73.0209C55.3976 72.8131 54.6798 73.1973 54.4721 73.8752L54.4616 73.9151C53.6577 76.9017 52.8308 79.8842 51.9618 82.8519C51.7624 83.5319 52.1507 84.2455 52.8329 84.4449C53.5129 84.6443 54.2265 84.2539 54.4238 83.5739L54.4385 83.5236ZM52.3102 91.3522C53.0728 88.7566 53.7822 86.1471 54.4385 83.5236C54.6106 82.8372 54.1929 82.1404 53.5045 81.9683C52.8371 81.8004 52.1549 82.1908 51.9618 82.8519C51.2063 85.4251 50.4423 87.9955 49.6699 90.5631C49.4495 91.2914 49.8609 92.0596 50.5913 92.2799C51.3196 92.5003 52.0878 92.089 52.3081 91.3607L52.3102 91.3522ZM49.544 100.518C50.4801 97.4662 51.4077 94.4144 52.3102 91.3522C52.5264 90.6218 52.1088 89.8537 51.3784 89.6396C50.6522 89.4255 49.8882 89.8369 49.6699 90.5631C48.7478 93.6106 47.8194 96.6568 46.8847 99.7015C46.6581 100.436 47.0736 101.213 47.8082 101.439C48.5428 101.666 49.3194 101.252 49.544 100.518ZM46.5783 108.118C47.1513 107.19 47.5732 106.166 47.9677 105.152C48.5596 103.63 49.0654 102.075 49.544 100.514C49.7706 99.7812 49.3551 99.0026 48.6205 98.778C47.8859 98.5534 47.1093 98.9669 46.8847 99.7015C46.4062 101.257 45.9528 102.822 45.5771 104.409C45.3253 105.461 45.0923 106.533 45.0147 107.614C44.9811 108.08 45.3337 108.485 45.7996 108.517C46.1145 108.54 46.4125 108.386 46.5783 108.118Z" fill="black"/>
<path d="M67.191 33.4893C67.4975 33.6782 67.8417 33.8062 68.1838 33.909C68.6162 34.0349 69.0695 33.7832 69.1954 33.3529C69.3214 32.9205 69.0716 32.4693 68.6392 32.3433C68.5553 32.3181 68.4021 32.2761 68.3517 32.2089C68.0579 31.8228 67.5059 31.7472 67.1197 32.0432C66.7335 32.337 66.6579 32.889 66.9539 33.2752C67.0196 33.3605 67.0987 33.432 67.191 33.4893ZM66.5215 32.7547C66.6663 33.0926 66.9308 33.3634 67.2561 33.5271C67.6906 33.7454 68.2216 33.5711 68.4378 33.1367C68.5595 32.8953 68.5637 32.612 68.4483 32.3686C68.3664 32.1944 68.4105 32.2929 68.4189 32.3328C68.4252 32.3622 68.4315 32.4525 68.4294 32.3433C68.4147 31.7955 67.9592 31.3611 67.4114 31.3737C66.8657 31.3884 66.4313 31.8438 66.4439 32.3916C66.4467 32.5176 66.4725 32.6385 66.5215 32.7547ZM66.3704 32.125C66.3641 32.3517 66.4334 32.549 66.5215 32.7547C66.6978 33.166 67.126 33.4116 67.5709 33.3507C68.2363 33.357 68.782 32.8218 68.7862 32.1544C68.7904 31.489 68.2552 30.9434 67.5898 30.9371C67.0861 30.935 66.6328 31.2436 66.4523 31.7137C66.4173 31.8061 66.3935 31.9012 66.3809 31.9991L66.3746 32.062L66.3704 32.125ZM66.3998 32.3979C66.4397 32.5868 66.4481 32.7862 66.4669 32.9772C66.5488 33.7726 67.2582 34.3498 68.0537 34.268C68.8491 34.1861 69.4263 33.4767 69.3445 32.6813C69.3333 32.5805 69.3123 32.4811 69.2815 32.3832C69.164 32.0159 68.9918 31.6549 68.7211 31.3758C68.4713 31.1155 68.1397 30.9371 67.7766 30.9056C67.2141 30.8553 66.6579 31.1784 66.4543 31.7115C66.3704 31.9298 66.3494 32.1691 66.3998 32.3979ZM66.4669 32.9772C66.5425 33.7384 66.6146 34.5009 66.6831 35.2649C66.7629 36.1212 67.5206 36.753 68.3769 36.6732C69.2353 36.5956 69.8671 35.8379 69.7873 34.9794L69.7789 34.9103C69.6635 34.0644 69.548 33.1975 69.2815 32.3832C69.0359 31.6234 68.2195 31.2078 67.4597 31.4534C66.8091 31.6633 66.3977 32.2993 66.4669 32.9772ZM66.6831 35.2649C66.7671 36.182 66.8615 37.0993 66.9875 38.0123C67.1113 38.8938 67.9235 39.5066 68.803 39.3849C69.6845 39.2632 70.2994 38.4488 70.1756 37.5694C70.1756 37.5554 70.1735 37.5414 70.1693 37.5274C70.0245 36.6564 69.9007 35.7834 69.7789 34.9103C69.6614 34.056 68.8764 33.462 68.0222 33.5775C67.1973 33.6929 66.6076 34.4337 66.6831 35.2649ZM66.9875 38.0123C67.2351 39.7963 67.6675 41.5656 68.0453 43.3265C68.2384 44.2227 69.122 44.7916 70.0182 44.5985C70.9144 44.4054 71.4832 43.5238 71.2901 42.6255L71.2838 42.6004C70.8934 40.9172 70.4547 39.2296 70.1714 37.5254C70.0245 36.648 69.1954 36.0562 68.3181 36.2031C67.4576 36.3458 66.8678 37.1476 66.9875 38.0123ZM68.0453 43.3265C68.7127 46.4216 69.3773 49.5182 70.0392 52.6161C70.2344 53.5312 71.1348 54.1167 72.0499 53.9194C72.965 53.7242 73.5484 52.8239 73.3533 51.9088C72.69 48.8004 72.0058 45.6962 71.2838 42.6004C71.076 41.7063 70.184 41.1522 69.292 41.3621C68.4105 41.5656 67.8564 42.4408 68.0453 43.3265ZM70.0392 52.6161C70.8633 56.4695 71.6966 60.3203 72.5389 64.1682C72.7383 65.0791 73.6408 65.6582 74.5517 65.4568C75.4626 65.2574 76.0398 64.3591 75.8425 63.4482C75.0071 59.6031 74.1774 55.7567 73.3533 51.9088C73.1581 50.9937 72.2577 50.4102 71.3426 50.6054C70.4254 50.8005 69.8419 51.701 70.0392 52.6161ZM72.5389 64.1682C73.4484 68.3337 74.4369 72.4789 75.5046 76.6038C75.7144 77.4118 76.5393 77.8987 77.3474 77.6888C78.1239 77.4873 78.6087 76.715 78.4513 75.9259C77.6146 71.7604 76.745 67.6011 75.8425 63.4482C75.6431 62.5352 74.7427 61.958 73.8318 62.1553C72.9188 62.3526 72.3416 63.253 72.5389 64.166V64.1682ZM75.5046 76.6038C76.4183 80.1299 77.3292 83.6565 78.2373 87.184C78.4262 87.9207 79.1775 88.3636 79.9163 88.1747C80.6509 87.9858 81.0938 87.2344 80.9028 86.4977L80.8986 86.4767C79.9457 82.9947 79.1607 79.4645 78.4513 75.9259C78.2876 75.1073 77.4901 74.5763 76.6715 74.7421C75.853 74.9058 75.322 75.7034 75.4857 76.5219L75.5046 76.6038ZM78.2373 87.184C78.8879 89.7026 79.591 92.2297 80.5628 94.6475C80.8629 95.3968 81.715 95.7599 82.4643 95.4577C83.2136 95.1575 83.5767 94.3054 83.2745 93.5561L83.2556 93.51C82.2565 91.2495 81.5513 88.8547 80.8986 86.4767C80.6971 85.7421 79.9415 85.314 79.2069 85.5134C78.4828 85.7128 78.0526 86.4578 78.2373 87.184ZM80.567 94.656C81.9186 97.9659 83.413 101.221 84.9431 104.455C85.1739 104.947 85.7616 105.154 86.2507 104.923C86.6851 104.718 86.9076 104.231 86.7754 103.769C85.791 100.296 84.7017 96.8303 83.2598 93.5183C82.9366 92.7774 82.076 92.4395 81.3351 92.7627C80.6069 93.0776 80.2647 93.9171 80.5649 94.6538" fill="black"/>
<path d="M66.0493 25.142C66.0745 25.887 66.6978 26.4706 67.4429 26.4454C68.1523 26.4223 68.7232 25.8514 68.7463 25.142C68.7757 24.273 68.7946 23.3895 68.8324 22.5269C68.8701 21.7356 68.2573 21.0618 67.4639 21.0261C66.6706 20.9904 65.9989 21.6033 65.9632 22.3967V22.5269C66.0031 23.3895 66.022 24.273 66.0493 25.142ZM68.8408 22.5121C68.8387 22.3211 68.8198 22.1344 68.7526 21.9518C68.7064 21.8217 68.6435 21.7026 68.5637 21.5949C68.0957 20.9506 67.1953 20.8079 66.5509 21.2739C66.4292 21.3648 66.3235 21.4711 66.234 21.5929C66.0283 21.8741 65.9611 22.1805 65.9548 22.5121C65.9464 23.3097 66.5845 23.9625 67.3821 23.973C68.1775 23.9835 68.8303 23.3432 68.8408 22.5457V22.5121ZM68.8722 25.2365L68.8408 22.5121C68.8303 21.7146 68.1775 21.0787 67.38 21.0871C66.5971 21.0976 65.9653 21.7293 65.9548 22.5143L65.9234 25.2365C65.9129 26.0508 66.5656 26.7204 67.38 26.7288C68.1943 26.7393 68.8638 26.0865 68.8722 25.2721V25.2365ZM65.9234 29.812C65.9381 30.6452 66.6223 31.3084 67.4555 31.2937C68.2867 31.2811 68.9499 30.5949 68.9352 29.7616C68.9128 28.2546 68.8918 26.7463 68.8722 25.2365C68.8638 24.4221 68.1943 23.7673 67.3821 23.7778C66.5803 23.7883 65.9339 24.4347 65.9234 25.2365C65.9045 26.7624 65.8982 28.2882 65.9234 29.812ZM65.9234 29.812C65.9548 31.7534 66.2844 33.7325 67.1302 35.4935C67.3611 35.972 67.9362 36.1735 68.4147 35.9426C68.7442 35.7831 68.9562 35.4516 68.9604 35.0864C68.9744 33.3107 68.966 31.5344 68.9352 29.7616C68.9226 28.9305 68.2363 28.2693 67.4051 28.2819C66.574 28.2945 65.9108 28.9787 65.9234 29.812ZM56.0588 96.4335C56.5163 96.0977 57.1082 95.9634 57.6644 95.8983C58.4095 95.808 58.9405 95.1343 58.8524 94.3892C58.7642 93.6441 58.0905 93.1131 57.3454 93.2012C57.2852 93.2082 57.2258 93.2187 57.167 93.2327C56.2435 93.4699 55.3347 93.8246 54.5602 94.3913C53.9977 94.8048 53.876 95.5961 54.2874 96.1607C54.7008 96.7252 55.4963 96.847 56.0588 96.4335ZM57.6161 95.9025C58.2374 95.8521 58.86 95.829 59.4841 95.8332C60.2817 95.8332 60.9323 95.1868 60.9344 94.385C60.9344 93.5833 60.288 92.9347 59.4862 92.9326C58.6886 92.9326 57.8869 93.0208 57.1208 93.2475C56.4009 93.4573 55.9874 94.2129 56.1994 94.9307C56.382 95.5499 56.9739 95.955 57.6161 95.9025ZM59.4841 95.8332C60.1767 95.8332 60.8714 95.9193 61.5536 96.0515C62.3154 96.1984 63.0521 95.7009 63.1991 94.9391C63.3397 94.215 62.8968 93.5056 62.1832 93.3146C61.3059 93.0816 60.3992 92.9347 59.4862 92.9326C58.6865 92.9326 58.038 93.5811 58.0359 94.3808C58.0359 95.1825 58.6823 95.8311 59.4841 95.8332ZM61.5536 96.0515C62.6114 96.2551 63.6839 96.3747 64.7564 96.4586C65.512 96.5216 66.1752 95.9549 66.234 95.1994C66.297 94.4438 65.7303 93.7806 64.9747 93.7218L64.9537 93.7196C64.0239 93.6588 63.0857 93.5581 62.1832 93.3168C61.4339 93.1153 60.6637 93.5601 60.4622 94.3094C60.2628 95.0587 60.7077 95.829 61.457 96.0305L61.5536 96.0515ZM64.7564 96.4586C66.0094 96.5573 67.2813 96.4692 68.5301 96.3579C70.3645 96.19 72.1926 95.9318 74.0123 95.6443C74.5055 95.5645 74.8414 95.1028 74.7616 94.6116C74.6923 94.1709 74.3124 93.8477 73.8654 93.8498C70.9018 93.8687 67.9173 93.9169 64.9579 93.7196C64.2002 93.6693 63.5454 94.2422 63.495 94.9999C63.4446 95.7492 64.0071 96.4019 64.7564 96.4586ZM56.871 217.873C56.9865 218.015 57.1355 218.141 57.2698 218.271C57.7715 218.754 58.5711 218.744 59.058 218.24C59.545 217.736 59.5303 216.937 59.0287 216.45L58.7348 216.166C58.2311 215.681 57.4293 215.696 56.9445 216.2C56.5037 216.66 56.4702 217.375 56.871 217.873ZM57.0746 218.074C57.2887 218.242 57.5574 218.339 57.8302 218.347C58.527 218.368 59.1084 217.816 59.1273 217.119C59.1287 216.995 59.114 216.872 59.0832 216.752C59.0098 216.49 58.8524 216.25 58.6383 216.082C58.0884 215.65 57.2929 215.747 56.8605 216.296C56.4282 216.846 56.5247 217.64 57.0746 218.074ZM57.1964 218.156L57.5595 218.383C58.1199 218.733 58.8565 218.563 59.2071 218.003C59.4799 217.562 59.4421 216.995 59.1063 216.599L58.8293 216.271C58.3801 215.738 57.5847 215.671 57.0515 216.12C56.5184 216.569 56.4513 217.367 56.9004 217.9C56.9844 218.001 57.083 218.086 57.1964 218.156ZM57.5595 218.383C57.5112 218.351 57.5972 218.418 57.6077 218.429C57.6833 218.496 57.7554 218.568 57.8239 218.645C58.08 218.918 58.3213 219.212 58.5585 219.503C58.9825 220.028 59.7507 220.108 60.2733 219.684C60.798 219.26 60.8798 218.492 60.4559 217.967C60.4251 217.929 60.3915 217.893 60.3551 217.858C59.9354 217.451 59.4862 217.05 59.1063 216.599C58.6824 216.095 57.9268 216.032 57.423 216.456C56.9193 216.882 56.8564 217.636 57.2803 218.139C57.3601 218.237 57.4531 218.318 57.5595 218.383ZM58.5585 219.503C59.3141 220.437 60.1578 221.296 61.0373 222.112C61.5809 222.616 62.4309 222.587 62.9346 222.043C63.4383 221.499 63.4089 220.649 62.8653 220.146L62.8318 220.116C61.9901 219.382 61.159 218.637 60.3551 217.858C59.8724 217.39 59.1 217.402 58.6299 217.885C58.1996 218.33 58.1681 219.025 58.5585 219.503ZM61.0435 222.114C62.8863 223.81 65.2685 224.853 67.6297 225.601C68.1083 225.752 68.6162 225.487 68.7694 225.009C68.8953 224.606 68.7274 224.167 68.3622 223.953C66.4313 222.822 64.5213 221.6 62.8381 220.118C62.2819 219.629 61.4318 219.684 60.9428 220.24C60.4601 220.788 60.5062 221.621 61.0435 222.114Z" fill="black"/>
<path d="M67.5353 224.23C67.5667 224.755 67.6948 225.273 67.9361 225.741C68.2552 226.365 69.017 226.612 69.6404 226.293C70.2617 225.974 70.5072 225.21 70.1882 224.589C70.1294 224.471 70.1147 224.337 70.1189 224.205C70.1483 223.491 69.5942 222.891 68.8785 222.862C68.1649 222.832 67.5625 223.388 67.5353 224.102V224.23ZM67.5038 223.869L67.5374 224.262C67.5982 224.975 68.2237 225.502 68.9352 225.443C69.5732 225.389 70.0769 224.877 70.1168 224.238L70.1441 223.844C70.1903 223.115 69.6383 222.486 68.91 222.438C68.1796 222.389 67.5499 222.941 67.5038 223.672C67.4996 223.738 67.4996 223.803 67.5038 223.869ZM70.1357 223.978L70.142 223.869C70.1945 222.992 68.9331 225.248 68.295 224.969C68.9646 225.263 69.7411 224.958 70.035 224.289C70.0756 224.198 70.1049 224.104 70.1231 224.008L69.6362 222.713C69.1325 222.318 68.4168 222.343 67.9403 222.771C67.636 223.044 67.5311 223.374 67.4891 223.745C67.4051 224.473 67.9256 225.135 68.656 225.219C69.3843 225.303 70.0434 224.78 70.1294 224.052L70.1357 223.978ZM69.9489 227.034L70.1357 223.978C70.1777 223.246 69.6215 222.616 68.889 222.572C68.1859 222.53 67.5688 223.044 67.4891 223.745L67.1365 226.786C67.0462 227.561 67.6024 228.262 68.3748 228.352C69.1514 228.442 69.8524 227.886 69.9426 227.112L69.9489 227.034ZM69.3864 233.167C69.632 231.129 69.8251 229.083 69.9489 227.034C69.9972 226.255 69.4032 225.586 68.6267 225.538C67.8753 225.493 67.2204 226.041 67.1365 226.786C66.9028 228.794 66.6649 230.802 66.4229 232.81C66.3242 233.629 66.9077 234.372 67.7262 234.468C68.5448 234.569 69.2878 233.985 69.3864 233.167ZM68.8302 238.393C68.9793 236.647 69.1766 234.905 69.3864 233.167C69.4851 232.348 68.9016 231.605 68.0852 231.507C67.2666 231.408 66.5215 231.994 66.4229 232.81C66.2088 234.588 66.0094 236.363 65.8667 238.147C65.8016 238.966 66.4124 239.682 67.2309 239.749C68.0453 239.814 68.7631 239.207 68.8302 238.393ZM66.8993 242.469C67.2204 242.889 67.8228 242.966 68.2426 242.645C68.4734 242.469 68.6099 242.198 68.6162 241.911C68.6476 240.735 68.7316 239.562 68.8302 238.393C68.9016 237.574 68.295 236.855 67.4765 236.783C66.6579 236.714 65.938 237.321 65.8667 238.139V238.147C65.747 239.631 65.9695 241.258 66.8993 242.469ZM34.1342 132.206C34.2916 131.784 34.5057 131.331 34.8688 131.045C35.3579 130.657 35.4397 129.946 35.0514 129.457C34.6631 128.968 33.9537 128.886 33.4647 129.272C32.7742 129.818 32.3208 130.6 32.0165 131.413C31.7982 131.998 32.0942 132.651 32.6797 132.867C33.2632 133.088 33.9139 132.79 34.1342 132.206ZM33.8341 133.64C33.8782 133.155 33.96 132.664 34.1342 132.206C34.3525 131.621 34.0566 130.97 33.471 130.752C32.8875 130.531 32.2348 130.829 32.0165 131.413C31.7688 132.078 31.6597 132.788 31.6282 133.495C31.6051 134.103 32.0795 134.618 32.6881 134.643C33.2758 134.666 33.7795 134.225 33.8341 133.64ZM31.6429 135.768C31.6702 136.381 32.1886 136.857 32.8036 136.83C33.4185 136.801 33.895 136.282 33.8656 135.667C33.8656 135.646 33.8642 135.625 33.8614 135.604C33.7963 134.954 33.7732 134.292 33.8341 133.64C33.8887 133.031 33.4416 132.494 32.8351 132.439C32.2264 132.382 31.6891 132.83 31.6324 133.438L31.6282 133.495C31.6002 134.25 31.6051 135.008 31.6429 135.768ZM31.6429 135.768C31.6849 136.746 31.7877 137.72 31.9095 138.692C31.9892 139.342 32.5853 139.804 33.2359 139.724C33.8887 139.642 34.3504 139.048 34.2707 138.396L34.2602 138.335C34.1007 137.43 33.9558 136.519 33.8614 135.606C33.7984 134.993 33.2527 134.546 32.642 134.609C32.0543 134.67 31.6156 135.176 31.6429 135.768ZM31.9095 138.692C32.0711 139.991 32.1487 141.298 32.2033 142.606C32.2348 143.326 32.8413 143.886 33.5613 143.857C34.2812 143.827 34.8415 143.219 34.8122 142.499C34.8122 142.472 34.8101 142.446 34.8059 142.419C34.6652 141.055 34.5015 139.689 34.2602 138.335C34.1468 137.688 33.5277 137.258 32.8812 137.371C32.2579 137.483 31.8318 138.064 31.9095 138.692ZM32.2033 142.606C32.2873 144.575 32.2957 146.546 32.2873 148.516C32.2873 149.314 32.9316 149.962 33.7292 149.965C34.5267 149.967 35.1753 149.322 35.1774 148.525V148.472C35.1081 146.453 35.0116 144.43 34.8059 142.419C34.7324 141.703 34.0923 141.181 33.3745 141.254C32.6881 141.326 32.176 141.918 32.2033 142.606ZM35.3348 161.342C35.318 157.052 35.3222 152.758 35.1774 148.472C35.1501 147.675 34.4805 147.049 33.683 147.076C32.9064 147.104 32.2894 147.74 32.2873 148.516C32.2726 152.788 32.2222 157.059 32.1739 161.33C32.1655 162.203 32.8644 162.919 33.7376 162.927C34.6107 162.937 35.3243 162.239 35.3348 161.365V161.342ZM32.1634 176.542C32.176 177.453 32.9274 178.179 33.8383 178.167C34.7492 178.152 35.4754 177.403 35.4607 176.492C35.383 171.442 35.3558 166.392 35.3348 161.342C35.3306 160.469 34.6212 159.764 33.7481 159.768C32.8854 159.77 32.1844 160.467 32.1739 161.33C32.1172 166.401 32.0858 171.471 32.1634 176.542ZM32.1634 176.542C32.2306 180.962 32.3523 185.378 32.4992 189.796C32.5307 190.688 33.2758 191.385 34.1678 191.356C35.0535 191.326 35.7483 190.59 35.7273 189.704C35.6209 185.301 35.5321 180.897 35.4607 176.492C35.4481 175.581 34.6967 174.855 33.7858 174.867C32.8749 174.882 32.1487 175.631 32.1634 176.542ZM32.4992 189.796C32.6741 194.972 32.8267 200.149 32.9568 205.326C32.9778 206.144 33.6578 206.789 34.4764 206.768C35.2802 206.747 35.9225 206.088 35.9204 205.284C35.9078 200.089 35.8511 194.894 35.7273 189.704C35.7063 188.814 34.9654 188.109 34.0755 188.13C33.1835 188.151 32.4803 188.89 32.5013 189.782L32.4992 189.796ZM32.9568 205.326C33.1023 211.002 33.2352 216.679 33.3556 222.356C33.3682 223.044 33.939 223.588 34.6254 223.573C35.297 223.561 35.8364 223.015 35.8427 222.343C35.9071 216.655 35.9329 210.969 35.9204 205.284C35.9183 204.465 35.2529 203.804 34.4344 203.806C33.6158 203.806 32.9547 204.472 32.9568 205.29V205.326ZM33.3556 222.356C33.4815 228.337 33.5843 234.321 33.6641 240.305C33.6704 240.88 34.1447 241.34 34.7198 241.333C35.2886 241.325 35.7482 240.861 35.7482 240.29C35.7482 234.309 35.7804 228.326 35.8448 222.343C35.8511 221.655 35.2991 221.092 34.6128 221.084C33.9244 221.078 33.3619 221.63 33.3535 222.316L33.3556 222.356ZM33.6641 240.305C33.748 246.518 33.8376 252.732 33.9327 258.947C33.9411 259.48 34.3819 259.906 34.915 259.898C35.4481 259.892 35.8742 259.453 35.8658 258.92C35.786 252.71 35.7468 246.5 35.7482 240.29C35.7482 239.715 35.2823 239.249 34.7051 239.249C34.13 239.249 33.6641 239.715 33.6641 240.29V240.305ZM33.9327 258.947C34.0335 265.432 34.1636 271.918 34.3231 278.403C34.3357 278.915 34.7639 279.321 35.2739 279.308C35.786 279.295 36.1911 278.873 36.1806 278.363C36.0547 271.882 35.9497 265.401 35.8658 258.92C35.8595 258.387 35.4208 257.958 34.8877 257.965C34.3525 257.973 33.9264 258.41 33.9327 258.945V258.947ZM34.3231 278.403C34.4966 285.528 34.6596 292.653 34.8122 299.778C34.8227 300.273 35.2319 300.668 35.7294 300.655C36.2247 300.645 36.6172 300.235 36.6067 299.74C36.4598 292.615 36.3177 285.491 36.1806 278.363C36.1701 277.851 35.7462 277.442 35.2361 277.453C34.7219 277.461 34.3126 277.885 34.3231 278.397V278.403ZM34.8122 299.778C34.9787 307.443 35.1046 315.108 35.19 322.773C35.1984 323.266 35.6013 323.661 36.0946 323.654C36.5899 323.65 36.9845 323.245 36.9782 322.752C36.89 315.08 36.7662 307.409 36.6067 299.74C36.5983 299.245 36.1869 298.85 35.6916 298.861C35.1963 298.871 34.8017 299.28 34.8122 299.778ZM35.19 322.773C35.2795 330.483 35.3537 338.192 35.4124 345.902C35.4166 346.393 35.8196 346.792 36.3149 346.788C36.8061 346.784 37.2049 346.381 37.2007 345.885C37.1419 338.176 37.0677 330.464 36.9782 322.752C36.9719 322.259 36.5689 321.864 36.0757 321.87C35.5824 321.875 35.1837 322.28 35.19 322.773ZM35.4124 345.902C35.467 353.286 35.5195 360.67 35.5656 368.055C35.5677 368.549 35.9707 368.948 36.464 368.943C36.9572 368.941 37.356 368.538 37.3539 368.045C37.3077 360.657 37.2573 353.271 37.2028 345.887C37.1986 345.392 36.7956 344.995 36.3002 345C35.807 345.004 35.4082 345.407 35.4124 345.902ZM35.5656 368.055C35.602 374.449 35.6566 380.84 35.7294 387.23C35.7357 387.726 36.1407 388.12 36.6319 388.114C37.1272 388.108 37.5218 387.705 37.5176 387.212C37.4448 380.823 37.3902 374.434 37.3539 368.045C37.3497 367.552 36.9467 367.153 36.4535 367.157C35.9602 367.157 35.5614 367.562 35.5656 368.055ZM35.7294 387.23L35.912 402.852C35.9183 403.408 36.3737 403.853 36.9278 403.847C37.484 403.839 37.9289 403.385 37.9227 402.829V402.798C37.6981 397.605 37.5784 392.408 37.5176 387.209C37.5113 386.716 37.1062 386.322 36.613 386.328C36.1197 386.332 35.7231 386.737 35.7294 387.23ZM35.912 402.852C35.9595 407.137 36.0176 411.421 36.0862 415.706C36.0967 416.404 36.6717 416.961 37.3665 416.948C38.0654 416.938 38.6216 416.362 38.6111 415.668L38.609 415.603C38.3235 411.338 38.1073 407.067 37.9227 402.798C37.8996 402.241 37.4273 401.811 36.8732 401.836C36.3317 401.857 35.9057 402.309 35.912 402.852ZM36.0862 415.718C36.2184 421.087 36.6319 426.464 37.5449 431.764C37.6309 432.261 38.1053 432.597 38.6027 432.511C39.0539 432.433 39.3793 432.035 39.3625 431.577C39.182 426.252 38.9175 420.932 38.609 415.613C38.567 414.916 37.9709 414.385 37.2741 414.425C36.5941 414.465 36.0694 415.038 36.0862 415.718ZM97.9307 134.219C97.8971 133.352 97.8699 132.481 97.9055 131.616C97.9111 131.38 97.9293 131.146 97.9601 130.915C97.9706 130.831 98.0021 130.741 97.9916 130.764C98.2938 130.135 98.0294 129.379 97.3976 129.077C96.8246 128.8 96.1341 128.993 95.7878 129.53C95.452 130.046 95.3827 130.722 95.3072 131.318C95.1896 132.273 95.1309 133.239 95.0826 134.2C95.0406 134.985 95.6451 135.657 96.4321 135.697C97.2171 135.739 97.8887 135.132 97.9286 134.347L97.9307 134.219ZM94.963 143.16C94.9735 144.071 95.7227 144.803 96.6357 144.791C97.5487 144.78 98.2791 144.031 98.2665 143.118V143.076L97.9307 134.219C97.8992 133.432 97.2381 132.819 96.451 132.848C95.7143 132.878 95.1204 133.463 95.0826 134.2C94.9273 137.183 94.9252 140.173 94.963 143.158M94.963 143.158C94.9986 146.054 95.0469 148.951 95.1518 151.843C95.1896 152.808 96.0019 153.564 96.9674 153.528C97.9328 153.491 98.6884 152.68 98.6506 151.713V151.683C98.4932 148.814 98.3757 145.945 98.2665 143.076C98.2309 142.163 97.4648 141.449 96.5518 141.485C95.6556 141.519 94.9504 142.264 94.963 143.158ZM95.1518 151.843C95.2463 154.336 95.3869 156.826 95.5548 159.315C95.622 160.297 96.4699 161.036 97.4501 160.973C98.4302 160.906 99.1711 160.056 99.1082 159.076C98.9403 156.613 98.787 154.148 98.6485 151.681C98.5961 150.716 97.7712 149.975 96.8057 150.03C95.8529 150.08 95.1183 150.888 95.1539 151.841M95.5548 159.315C95.7451 162.145 95.9354 164.975 96.1215 167.805C96.1845 168.785 97.0303 169.526 98.0084 169.463C98.9843 169.398 99.7252 168.554 99.6644 167.578C99.4839 164.745 99.2985 161.909 99.1082 159.076C99.0431 158.093 98.1931 157.355 97.2129 157.42C96.2328 157.487 95.4898 158.335 95.5548 159.315ZM96.1215 167.805C96.3174 170.802 96.4902 173.8 96.6399 176.798C96.6882 177.764 97.5109 178.507 98.4764 178.456C99.4356 178.41 100.176 177.596 100.137 176.637C100.011 173.614 99.8533 170.595 99.6644 167.578C99.6014 166.598 98.7577 165.857 97.7796 165.918C96.8015 165.981 96.0586 166.824 96.1215 167.803V167.805ZM96.6399 176.798C96.805 180.089 96.9422 183.381 97.0513 186.673C97.0849 187.612 97.8699 188.346 98.808 188.313C99.7378 188.281 100.468 187.509 100.447 186.577C100.377 183.262 100.274 179.949 100.137 176.637C100.097 175.671 99.2824 174.922 98.3148 174.962C97.3493 175.002 96.6001 175.816 96.6399 176.781V176.798ZM97.0513 186.673C97.1758 190.328 97.2794 193.984 97.3619 197.64C97.3829 198.538 98.1259 199.25 99.0242 199.229C99.912 199.208 100.619 198.479 100.613 197.591C100.585 193.918 100.53 190.247 100.447 186.577C100.426 185.639 99.6497 184.898 98.7115 184.919C97.7733 184.94 97.0324 185.716 97.0534 186.654L97.0513 186.673ZM97.3619 197.64C97.4942 203.454 97.5131 209.274 97.5361 215.09C97.5382 215.944 98.235 216.634 99.0893 216.632C99.9414 216.628 100.632 215.94 100.634 215.085C100.647 209.255 100.659 203.424 100.613 197.591C100.607 196.693 99.8721 195.969 98.9759 195.977C98.0755 195.984 97.3535 196.718 97.3598 197.615L97.3619 197.64ZM97.5361 215.09C97.5571 221.248 97.5781 227.408 97.5781 233.566C97.5781 234.384 98.2413 235.047 99.0599 235.047C99.8722 235.047 100.533 234.395 100.542 233.58C100.605 227.416 100.619 221.252 100.634 215.085C100.634 214.231 99.9414 213.536 99.0872 213.532C98.233 213.532 97.5382 214.225 97.534 215.079L97.5361 215.09ZM100.328 254.124C100.402 247.277 100.473 240.43 100.542 233.58C100.55 232.762 99.891 232.092 99.0725 232.084C98.256 232.078 97.5865 232.735 97.5781 233.553V233.566C97.576 240.41 97.5277 247.256 97.4816 254.101C97.4753 254.886 98.1091 255.528 98.8941 255.532C99.6791 255.538 100.321 254.909 100.328 254.126M100.034 275.482C100.174 268.365 100.252 261.245 100.328 254.126C100.336 253.341 99.7064 252.699 98.9214 252.688C98.1343 252.68 97.49 253.312 97.4816 254.097V254.103C97.4333 261.218 97.3871 268.337 97.3766 275.454C97.3745 276.189 97.9685 276.785 98.7031 276.785C99.4293 276.785 100.019 276.206 100.034 275.482ZM99.805 290.258C99.8638 285.332 99.9386 280.407 100.034 275.482C100.051 274.747 99.4692 274.138 98.7346 274.126C98 274.111 97.3913 274.695 97.3787 275.429L97.3766 275.454C97.3696 280.38 97.3535 285.306 97.3242 290.234C97.32 290.919 97.874 291.477 98.5583 291.481C99.2404 291.485 99.7966 290.94 99.805 290.258ZM99.6182 305.216C99.6854 300.229 99.7483 295.242 99.8071 290.253C99.8134 289.569 99.2656 289.007 98.5793 288.998C97.895 288.99 97.3326 289.54 97.3242 290.224V290.234C97.2962 295.221 97.264 300.206 97.2276 305.193C97.2234 305.852 97.7523 306.391 98.4135 306.396C99.0725 306.402 99.6098 305.873 99.6182 305.216ZM99.4608 320.907C99.4972 315.677 99.5496 310.446 99.6182 305.216C99.6266 304.557 99.0998 304.013 98.4386 304.005C97.7796 303.997 97.236 304.525 97.2276 305.185V305.193C97.1898 310.426 97.159 315.659 97.1353 320.892C97.1332 321.535 97.6495 322.057 98.2917 322.061C98.934 322.063 99.4566 321.547 99.4608 320.907ZM99.4335 363.614C99.4209 349.378 99.3621 335.141 99.4608 320.907C99.465 320.265 98.9487 319.74 98.3064 319.736C97.6642 319.732 97.1395 320.25 97.1353 320.892V320.894C97.0723 335.133 97.0765 349.374 97.0597 363.612C97.0597 364.269 97.5886 364.8 98.2455 364.802C98.9004 364.802 99.4335 364.269 99.4335 363.614ZM99.4251 404.248C99.5112 390.704 99.4461 377.158 99.4335 363.614C99.4335 362.957 98.9004 362.426 98.2455 362.429C97.5907 362.429 97.0597 362.957 97.0597 363.612C97.0429 377.152 97.0681 390.694 96.982 404.233C96.9778 404.907 97.5215 405.457 98.1952 405.463C98.871 405.467 99.4209 404.924 99.4251 404.248ZM97.2213 429.535C97.2297 429.969 97.5886 430.316 98.0231 430.309C98.4428 430.301 98.7828 429.967 98.7975 429.547C99.0872 421.119 99.3705 412.683 99.4251 404.248C99.4293 403.574 98.8857 403.024 98.212 403.018C97.5361 403.014 96.9862 403.557 96.982 404.233C96.9275 412.666 97.0723 421.102 97.2213 429.535Z" fill="black"/>
</svg>
