<svg width="853" height="499" viewBox="0 0 853 499" fill="none" xmlns="http://www.w3.org/2000/svg">
<path d="M91.6161 201.047C89.4036 216.983 87.2281 232.914 85.089 248.839C84.68 251.831 86.7876 254.555 89.7604 254.964C92.7488 255.358 95.4853 253.264 95.8785 250.272L95.9102 249.863C96.8382 233.958 98.8202 218.132 101.022 202.37C101.384 199.771 99.5749 197.378 96.9796 197.016C94.3844 196.638 91.9942 198.449 91.6324 201.047M85.1207 248.744C84.114 255.342 83.1382 261.94 82.4461 268.586C82.0843 272.16 84.6795 275.356 88.2656 275.734C91.8361 276.096 95.0296 273.498 95.4071 269.908L95.4379 269.231C95.4221 262.743 95.6745 256.256 95.9419 249.768C96.052 246.776 93.7236 244.225 90.7194 244.099C87.9354 244.005 85.5296 245.989 85.1207 248.744ZM82.4461 268.586C81.9742 273.121 80.8738 279.026 85.7812 281.655C86.4208 282.012 87.0917 282.254 87.7943 282.38C88.4968 282.506 89.2048 282.527 89.9178 282.443C91.3491 282.27 92.6854 281.655 93.755 280.71C95.9727 278.726 96.6805 275.546 95.5166 272.806C95.4641 271.62 95.4379 270.428 95.4379 269.231C95.4379 265.641 92.5127 262.728 88.9108 262.728C85.592 262.728 82.7927 265.247 82.4624 268.57M86.6461 267.893L83.9725 270.947C81.4559 273.829 81.7387 278.207 84.6013 280.726C87.2437 283.041 91.176 283.025 93.7713 280.695L96.8068 277.986C99.7638 275.341 100.015 270.806 97.3886 267.845C94.7462 264.885 90.2166 264.633 87.2596 267.278C87.0394 267.467 86.8349 267.677 86.6461 267.908M91.1754 257.106C89.7756 261.058 88.4233 265.137 86.0797 268.649C83.8777 271.94 84.7585 276.396 88.0458 278.6C90.7669 280.427 94.3689 280.175 96.8068 278.002C101.179 274.097 103.176 267.342 105.064 262.003C106.401 258.161 104.388 253.956 100.55 252.602C96.7278 251.264 92.5281 253.28 91.1754 257.106ZM99.1032 233.123C96.6075 241.165 93.9647 249.159 91.1754 257.106C89.8228 260.948 91.8366 265.152 95.6587 266.507C99.4965 267.861 103.711 265.846 105.064 262.003C107.926 253.846 110.491 245.611 112.913 237.312C114.014 233.486 111.827 229.47 108.005 228.368C104.23 227.266 100.283 229.376 99.1032 233.123ZM108.431 206.889C104.981 215.519 101.871 224.263 99.1032 233.123C97.9078 236.934 100.031 240.997 103.822 242.178C107.628 243.375 111.686 241.264 112.866 237.454L112.913 237.312C115.398 228.736 118.203 220.269 121.328 211.913C122.681 208.322 120.856 204.338 117.301 202.984C113.778 201.661 109.83 203.394 108.431 206.889ZM118.764 185.505C114.675 192.276 111.372 199.536 108.431 206.889C107.015 210.432 108.729 214.463 112.284 215.896C115.823 217.314 119.849 215.597 121.28 212.054L121.328 211.897C123.813 205.315 126.66 198.748 130.482 192.811C132.527 189.599 131.614 185.332 128.405 183.269C125.197 181.206 120.919 182.135 118.858 185.347L118.764 185.505ZM118.764 185.505C116.798 188.765 117.836 193.016 121.092 194.985C124.301 196.921 128.453 195.961 130.482 192.811C131.3 191.536 132.212 190.182 133.423 189.221L133.423 189.237C137.387 189.725 141.005 186.907 141.492 182.923C141.964 179.096 139.353 175.553 135.547 174.892C127.966 173.553 122.335 179.616 118.764 185.505ZM131.127 188.544C132.7 191.41 133.171 195.079 133.643 198.26C134.304 202.559 138.315 205.519 142.609 204.873C146.918 204.212 149.875 200.197 149.215 195.898L149.136 195.441C148.224 191.142 147.092 186.749 145.047 182.828C143.065 179.049 139.935 175.663 135.547 174.892C131.615 174.199 127.84 176.844 127.163 180.781C126.597 183.962 128.217 187.143 131.111 188.56L131.127 188.544ZM133.643 198.26C135.048 207.54 136.119 216.857 136.853 226.211C137.23 230.966 141.382 234.509 146.132 234.147C150.898 233.769 154.437 229.612 154.06 224.856L154.028 224.431C152.791 214.7 151.165 205.042 149.152 195.457C148.24 191.19 144.056 188.465 139.809 189.363C135.72 190.229 133.014 194.134 133.643 198.26ZM136.853 226.211C137.482 234.241 138.189 242.273 139.228 250.256C139.888 255.295 144.481 258.838 149.514 258.193C154.547 257.531 158.101 252.917 157.441 247.894L157.378 247.485C156.041 239.832 155.019 232.131 154.028 224.431C153.415 219.707 149.105 216.353 144.37 216.951C139.809 217.534 136.506 221.613 136.853 226.211ZM139.228 250.256C139.904 255.531 140.643 261.594 143.789 266.05C146.84 270.333 152.77 271.325 157.048 268.286C161.201 265.326 162.286 259.626 159.517 255.358C158.102 253.154 157.819 250.004 157.378 247.485C156.513 242.493 151.747 239.139 146.745 240.021C141.917 240.871 138.598 245.375 139.228 250.256ZM149.357 251.264C144.245 252.461 141.083 257.594 142.278 262.712C142.583 263.919 143.086 265.032 143.789 266.05C147.359 271.073 154.169 272.034 159.202 268.727C161.876 266.964 163.874 264.349 165.573 261.688C168.451 257.216 167.146 251.248 162.679 248.367C158.212 245.485 152.235 246.792 149.357 251.264ZM159.549 231.218C156.482 238.005 153.399 244.981 149.357 251.264C146.478 255.736 147.799 261.704 152.266 264.586C156.733 267.468 162.695 266.16 165.573 261.688C170.134 254.571 173.547 246.634 176.866 238.887C178.942 234.068 176.708 228.494 171.911 226.431C167.177 224.384 161.688 226.526 159.549 231.234M174.208 199.882C169.196 210.275 164.31 220.725 159.549 231.234C157.394 236.005 159.502 241.627 164.267 243.784C169.033 245.957 174.648 243.831 176.803 239.06L176.882 238.903C181.38 228.426 185.999 218.007 190.739 207.645C192.831 203.047 190.817 197.63 186.225 195.52C181.711 193.473 176.363 195.394 174.208 199.882ZM190.534 169.664C184.557 179.427 179.179 189.568 174.208 199.882C172.022 204.417 173.925 209.881 178.471 212.086C183.016 214.274 188.474 212.353 190.66 207.802L190.739 207.645C195.253 197.756 200.113 188.009 205.524 178.561C207.899 174.388 206.452 169.049 202.284 166.672C198.194 164.325 193.004 165.664 190.534 169.664ZM206.94 150.138C199.862 154.751 194.875 162.593 190.534 169.664C188.018 173.758 189.292 179.143 193.397 181.663C197.486 184.182 202.85 182.907 205.366 178.797L205.524 178.561C207.49 175.112 209.566 171.711 212.004 168.561C213.231 166.955 214.568 165.254 216.251 164.105C220.073 161.491 221.064 156.263 218.453 152.437C215.874 148.657 210.762 147.65 206.94 150.138ZM206.94 150.138C203.055 152.657 201.954 157.854 204.486 161.759C205.901 163.916 208.198 165.302 210.761 165.538L210.761 165.522C211.737 170.246 216.345 173.254 221.048 172.293C225.767 171.301 228.771 166.688 227.811 161.964L227.749 161.759C226.758 157.507 225.075 153.098 221.567 150.295C217.21 146.831 211.438 147.193 206.94 150.138ZM210.683 165.097C211.375 169.585 211.563 174.167 211.721 178.702C211.972 186.261 211.957 193.851 211.878 201.409C211.799 206.889 216.188 211.393 221.646 211.456C227.135 211.519 231.618 207.141 231.681 201.661L231.681 201.063C231.303 193.19 230.847 185.316 230.077 177.49C229.558 172.23 228.96 166.908 227.749 161.743C226.648 157.066 221.976 154.168 217.289 155.255C212.853 156.294 209.975 160.593 210.683 165.097ZM211.878 201.409C211.721 213.377 211.186 225.581 212.255 237.532C212.79 243.485 218.059 247.878 224.005 247.343C229.966 246.808 234.355 241.548 233.82 235.58L233.788 235.296C232.467 223.959 232.216 212.464 231.681 201.063C231.414 195.599 226.773 191.363 221.299 191.615C216.077 191.867 211.957 196.165 211.878 201.409ZM212.255 237.532C212.853 244.02 214.882 250.917 219.978 255.327C223.974 258.744 229.997 258.287 233.426 254.303C235.424 251.972 236.179 248.807 235.456 245.831C234.622 242.367 234.213 238.824 233.788 235.296C233.096 229.36 227.701 225.108 221.755 225.801C215.936 226.478 211.736 231.69 212.255 237.532ZM219.978 255.327C223.282 258.161 227.434 260.082 231.822 260.208C235.235 260.287 238.082 257.579 238.161 254.146C238.182 252.991 237.909 251.915 237.343 250.917C236.447 249.343 235.88 247.579 235.456 245.815C234.197 240.698 229.054 237.564 223.942 238.808C218.83 240.068 215.685 245.217 216.943 250.335C217.415 252.272 218.469 254.019 219.978 255.311M256.359 139.083C255.793 139.209 257.696 138.878 257.979 138.831L263.657 137.965C267.337 137.414 269.854 133.981 269.304 130.296C268.863 127.367 266.567 125.084 263.657 124.628L258.137 123.793C257.775 123.746 255.965 123.447 256.327 123.525C252.033 122.612 247.803 125.352 246.89 129.666C245.994 133.95 248.731 138.17 253.025 139.083C254.136 139.314 255.247 139.314 256.359 139.083ZM249.69 125.068C246.261 127.824 245.711 132.832 248.432 136.28C248.81 136.742 249.228 137.162 249.69 137.54C252.835 140.028 255.493 139.272 258.624 138.626C262.65 137.76 265.23 133.792 264.381 129.761C263.767 126.864 261.518 124.596 258.624 123.982C257.302 123.714 255.935 123.32 254.582 123.352C252.805 123.352 251.09 123.982 249.706 125.084M256.139 138.737C257.146 138.894 258.142 138.852 259.128 138.611C259.993 138.391 260.857 138.186 261.644 137.792C262.294 137.477 262.876 137.073 263.39 136.58C266.284 133.855 266.426 129.289 263.705 126.391C262.918 125.552 261.985 124.937 260.904 124.549C260.265 124.339 259.609 124.171 258.938 124.045L258.152 123.919C254.063 123.321 250.287 126.155 249.69 130.249C249.108 134.343 251.939 138.123 256.029 138.721L256.139 138.737ZM249.942 127.714C248.574 130.155 248.668 133.131 250.162 135.477C251.593 137.761 254.157 139.099 256.847 138.973C259.505 138.863 262.226 138.107 264.837 137.65C267.668 137.162 269.556 134.469 269.084 131.635C268.769 129.871 267.59 128.407 265.969 127.714C264.942 127.294 263.919 126.853 262.902 126.391C261.754 125.084 260.181 124.218 258.451 123.966C255.148 123.446 251.72 124.549 249.942 127.73M279.622 154.547C275.564 161.113 273.488 168.829 271.994 176.34C271.349 179.6 273.471 182.781 276.727 183.426C279.999 184.072 283.176 181.946 283.805 178.686C283.858 178.487 283.89 178.293 283.9 178.104C284.498 172.057 285.536 165.459 288.776 160.2C290.349 157.68 289.562 154.342 287.03 152.783C284.498 151.208 281.179 151.996 279.622 154.531M272.025 176.167C270.767 181.82 269.822 187.536 269.351 193.316C269.036 197.284 271.962 200.764 275.926 201.094C279.889 201.409 283.366 198.465 283.696 194.512C283.727 194.197 283.727 193.872 283.696 193.536C283.455 188.339 283.528 183.138 283.916 177.931C284.152 174.608 281.651 171.727 278.332 171.475C275.36 171.254 272.654 173.254 272.025 176.167ZM269.367 193.316C268.895 198.906 269.115 204.574 270.311 210.07C271.239 214.243 275.344 216.873 279.528 215.959C283.696 215.03 286.322 210.92 285.41 206.732C284.487 202.386 283.926 197.987 283.727 193.536C283.522 189.567 280.141 186.513 276.177 186.718C272.56 186.906 269.666 189.71 269.367 193.316ZM270.311 210.07C271.254 214.306 272.45 218.558 274.416 222.431C276.35 226.242 280.99 227.769 284.796 225.848C288.571 223.927 290.097 219.298 288.21 215.503C286.842 212.763 286.054 209.708 285.41 206.732C284.482 202.559 280.376 199.929 276.193 200.843C272.024 201.772 269.398 205.881 270.311 210.07ZM274.416 222.431C276.555 226.652 280.55 230.919 285.693 230.462C289.169 230.147 291.748 227.061 291.434 223.581C291.381 223.109 291.293 222.663 291.167 222.243C290.428 219.896 289.295 217.676 288.21 215.503C286.307 211.676 281.666 210.149 277.86 212.039C274.038 213.944 272.513 218.589 274.4 222.4L274.416 222.431ZM284.325 230.431C288.619 230.982 292.126 228.494 293.29 224.416C293.888 222.369 292.708 220.243 290.664 219.66C290.265 219.545 289.856 219.492 289.437 219.503C286.889 217.14 282.878 217.266 280.503 219.817C278.112 222.384 278.253 226.4 280.817 228.793C281.776 229.675 283.019 230.258 284.325 230.431ZM369.591 141.366C372.548 143.051 374.466 145.744 374.938 149.145C375.331 152.2 378.147 154.342 381.198 153.948C384.249 153.539 386.388 150.736 385.995 147.681C385.114 141.02 381.654 135.21 376.338 131.147C373.664 129.1 369.795 129.604 367.75 132.296C365.69 134.989 366.193 138.847 368.898 140.91L369.591 141.366ZM363.991 140.185C366.004 139.949 367.986 140.532 369.763 141.461C372.752 143.036 376.479 141.886 378.052 138.879C379.405 136.296 378.76 133.115 376.495 131.273C372.83 128.281 368.411 126.281 363.661 125.934C359.728 125.651 356.299 128.612 356.016 132.564C355.733 136.501 358.69 139.934 362.622 140.217C363.083 140.248 363.54 140.238 363.991 140.185ZM346.893 133.588C343.669 136.674 343.575 141.776 346.658 145.004C349.741 148.216 354.837 148.311 358.061 145.224C358.271 145.035 358.464 144.826 358.643 144.595C359.744 143.272 360.971 141.965 362.402 140.973C362.842 140.658 363.425 140.264 363.991 140.185C367.923 139.713 370.707 136.17 370.251 132.234C369.842 128.832 367.074 126.186 363.661 125.934C357.18 125.462 351.376 129.289 346.893 133.588ZM346.893 133.588C341.703 138.579 337.598 144.61 334.295 151.004C331.999 155.428 333.729 160.893 338.148 163.192C342.584 165.491 348.042 163.759 350.322 159.318C350.469 159.056 350.595 158.783 350.7 158.499C352.666 153.539 355.182 148.689 358.643 144.595C361.505 141.178 361.066 136.107 357.668 133.241C354.523 130.58 349.866 130.722 346.893 133.588ZM334.295 151.004C330.913 157.523 328.255 164.467 326.776 171.679C325.675 177.064 329.136 182.324 334.515 183.442C339.894 184.544 345.163 181.08 346.264 175.695L346.422 174.829C347.051 169.223 348.623 163.743 350.7 158.499C352.54 153.854 350.275 148.61 345.651 146.752C341.341 145.036 336.418 146.878 334.295 151.004ZM326.776 171.679C325.361 178.529 325.141 185.663 326.682 192.513C327.94 198.103 333.493 201.598 339.077 200.338C344.645 199.079 348.152 193.52 346.878 187.93C345.903 183.647 345.918 179.19 346.422 174.829C347.051 169.364 343.119 164.42 337.661 163.79C332.549 163.192 327.814 166.64 326.776 171.679ZM326.682 192.497C328.302 199.583 332.188 205.976 337.976 210.401C342.506 213.849 348.954 212.983 352.399 208.464C355.796 203.992 355.009 197.63 350.621 194.134C348.623 192.56 347.444 190.371 346.878 187.914C345.62 182.34 340.067 178.828 334.5 180.104C328.916 181.363 325.424 186.922 326.682 192.497ZM337.976 210.401C343.323 214.495 349.772 216.92 356.488 217.377C361.805 217.739 366.397 213.723 366.759 208.401C367.073 203.677 363.928 199.425 359.319 198.339C356.142 197.614 353.185 196.166 350.621 194.134C346.17 190.591 339.706 191.363 336.167 195.803C332.628 200.26 333.382 206.748 337.834 210.291L337.976 210.401ZM375.457 192.449C370.975 195.677 364.918 199.488 359.099 198.291C353.877 197.22 348.781 200.591 347.711 205.803C346.642 211.031 349.993 216.133 355.215 217.204C355.561 217.267 355.906 217.319 356.252 217.361C368.19 218.463 377.847 210.369 384.249 201.11C386.215 198.276 385.508 194.37 382.676 192.402C380.49 190.89 377.611 190.906 375.441 192.449M400.591 110.408C399.868 133.635 399.176 156.862 399.066 180.072C399.034 186.308 399.003 192.544 399.302 198.764C399.553 203.724 399.821 209.346 404.712 212.212C409.116 214.825 414.81 213.361 417.421 208.937C418.915 206.386 419.12 203.267 417.956 200.543C416.666 191.064 416.714 181.332 416.447 171.821C415.88 151.413 415.66 130.99 415.471 110.582C415.424 106.472 412.073 103.18 407.952 103.196C403.973 103.243 400.717 106.424 400.591 110.424M407.78 192.119C407.098 193.378 406.359 194.601 405.562 195.788C400.891 197.913 398.846 203.441 400.985 208.102C401.771 209.834 403.077 211.267 404.712 212.243C409.824 215.251 415.518 212.952 418.994 208.747C420.945 206.385 422.486 203.677 423.933 200.984C426.339 196.496 424.672 190.906 420.19 188.497C415.754 186.104 410.249 187.709 407.78 192.119ZM420.552 169.979C416.21 177.306 411.953 184.686 407.78 192.119C405.294 196.559 406.883 202.196 411.335 204.669C415.77 207.141 421.385 205.551 423.87 201.11L423.933 200.984C427.928 193.594 431.97 186.224 436.059 178.875C438.466 174.561 436.909 169.113 432.6 166.703C428.353 164.341 423.005 165.79 420.552 169.979ZM438.718 144.658C431.844 152.468 425.821 161.019 420.552 169.979C418.035 174.23 419.451 179.726 423.697 182.23C427.96 184.749 433.449 183.332 435.965 179.08C435.986 179.007 436.018 178.938 436.059 178.875C440.621 170.655 445.749 162.735 451.553 155.334C454.4 151.712 453.77 146.437 450.137 143.587C446.661 140.862 441.643 141.319 438.718 144.658ZM457.309 129.068C449.917 132.391 443.955 138.674 438.718 144.658C435.666 148.122 436.013 153.397 439.473 156.468C442.934 159.507 448.218 159.145 451.27 155.68L451.553 155.334C455.013 150.925 459.008 145.665 464.089 142.972C467.864 140.973 469.295 136.296 467.297 132.517C465.41 128.911 461.021 127.399 457.309 129.068ZM457.309 129.068C453.409 130.832 451.678 135.398 453.424 139.303C455.139 143.13 459.574 144.894 463.444 143.272C465.96 146.705 470.805 147.445 474.249 144.91C477.317 142.642 478.276 138.454 476.499 135.084C474.706 131.667 471.78 128.879 468.021 127.84C464.419 126.848 460.659 127.572 457.309 129.084M462.562 141.776C463.553 144.075 463.506 147.13 463.664 149.571C464.088 155.854 464.026 162.168 463.9 168.467C463.79 173.317 467.643 177.333 472.488 177.443C477.348 177.537 481.359 173.695 481.453 168.829L481.453 168.231C481.139 161.459 480.73 154.657 479.818 147.917C479.22 143.619 478.559 138.989 476.514 135.099C474.517 131.32 469.846 129.855 466.055 131.839C462.484 133.729 460.958 138.044 462.562 141.76M463.9 168.435C463.758 174.813 463.648 181.222 464.025 187.583C464.151 189.694 464.324 191.835 464.765 193.882C465.991 199.472 471.182 204.433 477.505 201.378C479.078 200.622 480.399 199.362 481.233 197.803C482.963 194.623 482.333 190.245 482.223 186.749C482.014 180.576 481.757 174.414 481.453 168.231C481.233 163.38 477.127 159.617 472.267 159.838C467.659 160.058 463.994 163.821 463.9 168.435ZM473.259 202.197C474.784 202.307 476.342 202.008 477.726 201.331L478.449 200.937L479.125 200.464C481.799 198.417 482.271 195.63 482.476 192.576C482.633 190.308 481.343 188.198 479.251 187.3C475.681 184.308 470.365 184.765 467.36 188.339C464.372 191.914 464.828 197.237 468.398 200.244C469.767 201.394 471.466 202.087 473.259 202.197ZM523.575 136.233C520.681 137.713 518.227 140.012 517.849 143.43C517.22 148.988 522.096 152.594 527.13 152.751C531.408 152.893 534.962 149.539 535.103 145.256C535.166 143.02 534.27 140.847 532.619 139.335C531.077 136.013 527.13 134.564 523.811 136.107L523.575 136.233ZM531.36 136.139C530.212 136.642 528.797 137.304 527.491 137.288C523.245 137.209 519.721 140.626 519.658 144.894C519.579 149.114 522.914 152.61 527.113 152.751C530.715 152.877 534.255 151.807 537.526 150.389C541.459 148.689 543.267 144.122 541.568 140.17C539.869 136.233 535.292 134.422 531.36 136.139ZM536.692 132.076C535.182 133.729 533.421 135.225 531.36 136.139C527.428 137.839 525.62 142.422 527.334 146.358C529.033 150.295 533.61 152.09 537.526 150.389C541.396 148.72 544.871 146.295 548.001 143.477C551.304 140.516 551.572 135.43 548.599 132.123C545.626 128.816 540.546 128.549 537.259 131.525C537.049 131.693 536.86 131.876 536.692 132.076ZM541.159 125.368C540.058 127.84 538.517 130.092 536.692 132.076C533.704 135.351 533.924 140.437 537.211 143.445C540.263 146.232 544.918 146.248 548.001 143.477C551.414 140.406 554.293 136.737 556.353 132.611C558.429 128.454 556.762 123.4 552.594 121.305C548.441 119.227 543.393 120.911 541.316 125.068L541.159 125.368ZM542.874 118.187C542.732 120.66 542.181 123.116 541.159 125.368C539.24 129.619 541.128 134.611 545.374 136.517C549.48 138.375 554.34 136.658 556.353 132.611C558.398 128.549 559.657 124.139 560.144 119.62C560.663 114.864 557.234 110.566 552.468 110.046C547.718 109.527 543.44 112.959 542.905 117.73L542.874 118.187ZM541.945 111.731C542.732 113.794 542.999 115.999 542.874 118.187C542.606 122.974 546.271 127.068 551.053 127.336C555.646 127.604 559.641 124.202 560.144 119.62C560.679 114.817 560.144 109.904 558.398 105.385C556.636 100.834 551.541 98.5667 546.995 100.33C542.449 102.094 540.2 107.196 541.962 111.746M541.868 111.526L541.962 111.762C543.723 116.297 548.819 118.565 553.365 116.801C557.91 115.054 560.159 109.936 558.398 105.401C556.164 99.5744 551.226 95.4171 545.076 94.3936C540.326 93.6062 535.843 96.8342 535.073 101.574C534.302 106.172 537.306 110.55 541.868 111.526ZM526.421 103.936C523.48 107.605 524.062 112.959 527.727 115.904C531.344 118.833 536.629 118.298 539.602 114.723C540.546 113.605 541.553 112.424 542.811 111.652C547.593 112.125 551.84 108.629 552.311 103.842C552.752 99.2752 549.59 95.1494 545.076 94.3936C537.369 93.1338 530.951 98.2991 526.421 103.936ZM526.421 103.936C520.869 110.849 517.377 119.305 514.624 127.667C513.115 132.249 515.6 137.194 520.177 138.69C524.738 140.217 529.677 137.713 531.187 133.131L531.297 132.816C533.09 126.533 535.387 119.825 539.602 114.707C542.606 111.101 542.118 105.731 538.501 102.724C534.883 99.7159 529.52 100.204 526.516 103.826L526.421 103.936ZM514.624 127.667C511.494 137.162 509.23 146.925 508.05 156.846C507.421 162.105 511.165 166.892 516.434 167.522C521.687 168.152 526.453 164.388 527.098 159.129C527.129 158.856 527.145 158.583 527.145 158.31C527.459 149.681 528.922 141.114 531.297 132.8C532.618 128.171 529.945 123.336 525.321 122.014C520.807 120.722 516.087 123.211 514.624 127.683M508.05 156.862C506.886 166.467 507.579 176.529 511.763 185.379C514.169 190.465 520.24 192.622 525.305 190.229C530.385 187.835 532.556 181.757 530.165 176.687C527.491 171.018 526.94 164.514 527.145 158.326C527.334 153.035 523.197 148.578 517.896 148.405C512.91 148.232 508.632 151.901 508.05 156.862ZM511.763 185.379C515.648 193.599 522.38 200.166 531.093 203.031C536.127 204.701 541.584 201.945 543.251 196.89C544.777 192.245 542.591 187.19 538.155 185.127C534.459 183.41 531.864 180.309 530.165 176.671C527.759 171.601 521.703 169.427 516.622 171.821C511.542 174.23 509.356 180.293 511.763 185.379ZM530.92 202.969C539.775 206.086 552.185 207.566 558.76 199.189C560.883 196.465 560.411 192.528 557.69 190.387C556.353 189.347 554.655 188.875 552.972 189.127C551.226 189.347 549.386 189.001 547.687 188.576C544.353 187.741 541.143 186.434 537.998 185.049C533.122 182.907 527.459 185.127 525.305 189.993C523.165 194.875 525.368 200.543 530.244 202.7L530.92 202.969ZM599.528 70.3797C598.081 84.1897 596.493 97.9838 594.904 111.762C594.401 116.171 597.578 120.171 601.982 120.675C606.386 121.179 610.366 117.998 610.869 113.589L610.885 113.321C611.986 99.212 613.307 84.8669 612.568 70.7262C612.379 67.1044 609.296 64.3327 605.694 64.5217C602.47 64.6949 599.874 67.1831 599.528 70.3797ZM594.92 111.683C593.489 123.1 592.277 134.548 591.46 146.012C591.098 150.925 594.794 155.192 599.686 155.554C604.593 155.901 608.84 152.216 609.201 147.303L609.218 146.925C609.564 135.692 610.125 124.46 610.901 113.227C611.199 108.802 607.85 104.96 603.43 104.661C599.183 104.377 595.455 107.448 594.92 111.683ZM591.46 146.012C590.878 154.011 590.296 162.042 590.406 170.057C590.469 175.191 594.669 179.301 599.796 179.238C604.924 179.175 609.029 174.955 608.966 169.837L608.966 169.711C608.762 162.121 608.997 154.515 609.218 146.925C609.375 142.012 605.506 137.902 600.582 137.76C595.832 137.619 591.806 141.256 591.46 146.012ZM590.406 170.073C590.485 177.301 593.237 185.537 601.07 187.489C605.694 188.639 610.35 185.82 611.499 181.19C612.222 178.308 611.388 175.238 609.296 173.097C609.045 171.994 608.982 170.845 608.966 169.727C608.825 164.593 604.561 160.531 599.45 160.672C594.369 160.798 590.327 164.987 590.39 170.073M611.719 164.31C609.784 166.656 607.723 169.034 605.207 170.766C600.598 169.616 595.926 172.419 594.778 177.049C593.677 181.458 596.226 185.993 600.567 187.348C606.009 189.048 611.183 186.339 614.565 182.135C617.428 178.545 619.41 174.262 621.172 170.057C622.383 167.223 621.045 163.916 618.199 162.719C615.934 161.774 613.291 162.404 611.719 164.31ZM654.626 67.7342C654.846 69.2774 655.035 71.7025 655.224 73.5134C655.57 76.9147 658.59 79.3867 661.987 79.0403C664.897 78.7411 667.21 76.4424 667.493 73.5293C667.697 71.6869 667.854 69.3874 668.09 67.7655C668.625 64.0492 666.046 60.6008 662.334 60.0497C658.622 59.53 655.176 62.0968 654.626 65.8288C654.542 66.4587 654.542 67.0939 654.626 67.7342ZM659.502 60.2073C658.285 60.5537 657.238 61.1942 656.357 62.1285C655.161 63.4198 654.627 65.026 654.517 66.7424C654.249 70.5216 657.096 73.8123 660.886 74.08C664.661 74.3477 667.948 71.4818 668.216 67.7025L668.216 66.7424C668.011 63.7819 666.391 61.1048 663.23 60.2073C662.003 59.8608 660.713 59.8608 659.502 60.2073ZM654.517 66.7424L653.699 78.3002C653.4 82.5361 656.593 86.2051 660.824 86.5043C665.071 86.8192 668.735 83.6068 669.034 79.3709L669.034 78.3002L668.216 66.7424C667.948 62.9631 664.661 60.0967 660.886 60.3644C657.473 60.6006 654.752 63.3253 654.517 66.7424ZM653.699 78.3002C653.09 86.7405 652.424 95.1809 651.701 103.621C651.276 108.518 654.909 112.849 659.817 113.274C664.724 113.684 669.034 110.046 669.459 105.149L669.49 104.582C669.678 95.8266 669.648 87.0396 669.018 78.2844C668.72 74.0642 665.055 70.8676 660.824 71.1668C657.002 71.4345 653.966 74.4737 653.699 78.3002ZM651.701 103.621C650.914 112.802 650.395 122.029 650.348 131.257C650.317 136.422 654.485 140.658 659.659 140.689C664.834 140.721 669.049 136.548 669.081 131.367C669.144 122.444 669.28 113.516 669.49 104.582C669.6 99.6531 665.7 95.5748 660.777 95.4489C656.074 95.3544 652.094 98.9129 651.701 103.621ZM650.348 131.241C650.301 138.926 650.773 146.799 653.022 154.2C654.437 158.877 659.376 161.507 664.047 160.089C668.294 158.782 670.922 154.546 670.198 150.169C669.176 143.98 669.049 137.634 669.081 131.367C669.112 126.186 664.944 121.967 659.77 121.919C654.595 121.904 650.395 126.076 650.348 131.241ZM652.959 154.027C654.249 158.594 656.42 163.207 660.21 166.262C663.796 169.144 668.657 170.136 672.951 168.246C675.829 166.971 677.134 163.585 675.86 160.688C675.278 159.381 674.224 158.326 672.887 157.759C672.478 157.57 672.258 157.066 672.069 156.688C671.031 154.625 670.575 152.248 670.15 149.996C669.254 145.177 664.646 142.012 659.833 142.91C655.036 143.823 651.874 148.437 652.77 153.24C652.823 153.502 652.886 153.765 652.959 154.027ZM724.981 77.4025C722.685 80.0323 719.916 82.3156 716.597 83.5123C713.074 84.7721 711.234 88.6461 712.477 92.1734C713.436 94.8661 715.969 96.6768 718.831 96.6925C725.61 96.7555 731.996 93.858 737.045 89.4174C740.584 86.3153 740.946 80.9142 737.832 77.3554C734.717 73.8124 729.338 73.4662 725.784 76.5683C725.5 76.8307 725.243 77.1086 724.981 77.4025ZM729.464 71.2144C728.835 73.3402 726.444 75.7022 724.966 77.3872C721.883 80.9617 722.26 86.3627 725.814 89.4491C729.039 92.2521 733.837 92.2361 737.045 89.4174C741.04 85.9059 745.224 81.7805 746.86 76.5683C748.369 71.7655 745.711 66.6477 740.914 65.1517C736.117 63.64 731.005 66.3011 729.495 71.1039L729.464 71.2144ZM729.763 69.5925C729.841 70.002 729.606 70.7735 729.464 71.2144C728.017 76.033 730.722 81.1188 735.551 82.5676C740.332 84.0163 745.366 81.3397 746.876 76.5842C747.93 73.1828 748.354 69.5768 747.662 66.0653C746.687 61.1207 741.889 57.8926 736.95 58.8689C732.012 59.8452 728.788 64.648 729.763 69.5925ZM731.335 73.214C734.292 77.2767 739.986 78.1899 744.075 75.2295C746.954 73.1351 748.354 69.5611 747.662 66.0653C746.341 59.2941 739.955 56.1289 733.601 56.0029C728.788 55.9084 724.793 59.7507 724.714 64.5693C724.635 68.6477 727.387 72.2377 731.335 73.214ZM717.51 62.821C714.239 65.624 713.846 70.5371 716.645 73.8282C719.162 76.7886 723.503 77.4501 726.774 75.34C728.001 74.5526 730.203 73.0095 731.808 73.3087C736.526 74.2063 741.103 71.104 742 66.3642C742.897 61.6244 739.797 57.0576 735.063 56.16C734.581 56.0551 734.094 56.0029 733.601 56.0029C727.514 55.8927 722.009 58.9788 717.51 62.821ZM717.51 62.821C711.25 68.175 707.522 76.1428 704.549 83.6541C703.055 87.4018 704.895 91.6538 708.639 93.134C712.382 94.63 716.629 92.7874 718.124 89.0397L718.124 89.0238C719.413 85.7485 720.892 82.4888 722.874 79.5756C723.928 78.0009 725.17 76.3634 726.774 75.3241C730.408 73.0093 731.461 68.1752 729.133 64.5534C726.821 60.9159 721.993 59.861 718.375 62.1915C718.071 62.3805 717.783 62.5901 717.51 62.821ZM704.549 83.6541C700.57 93.6691 698.006 104.188 696.323 114.833C695.647 119.179 698.603 123.258 702.96 123.951C707.301 124.628 711.376 121.667 712.068 117.321L712.147 116.691C712.886 107.275 714.663 97.8421 718.124 89.0238C719.602 85.2603 717.762 81.0246 714.002 79.5444C710.259 78.0642 706.028 79.9221 704.549 83.6541ZM696.323 114.817C694.593 125.746 694.42 137.052 697.031 147.87C698.211 152.704 703.07 155.681 707.915 154.5C712.744 153.334 715.717 148.453 714.537 143.618L714.396 143.099C711.801 134.596 711.439 125.51 712.147 116.691C712.493 112.282 709.221 108.455 704.832 108.093C700.68 107.778 696.968 110.691 696.339 114.801M697.047 147.854C699.485 157.932 705.147 167.176 714.411 172.262C718.863 174.687 724.43 173.049 726.868 168.609C729.228 164.294 727.765 158.877 723.566 156.326C718.753 153.429 716 148.327 714.396 143.099C712.949 138.328 707.931 135.65 703.165 137.099C698.604 138.501 695.93 143.209 697.047 147.854ZM714.348 172.23C719.318 175.002 724.73 177.364 730.408 178.135C735.237 178.765 740.615 178.167 744.39 174.829C746.844 172.64 747.064 168.876 744.893 166.404C743.918 165.286 742.534 164.577 741.072 164.42C738.917 164.184 736.825 163.27 734.89 162.388C730.958 160.641 727.183 158.499 723.503 156.294C719.146 153.712 713.515 155.145 710.92 159.507C708.34 163.869 709.771 169.506 714.128 172.104L714.348 172.23ZM415.015 329.352C408.566 331.1 406.427 337.887 406.033 343.856C405.813 347.194 408.33 350.091 411.665 350.312C415.015 350.532 417.893 347.997 418.113 344.659L418.113 343.966C418.05 342.674 417.988 341.179 418.46 339.935C418.617 339.478 417.547 340.344 418.585 339.919C421.448 338.738 422.8 335.478 421.636 332.628C420.567 330.03 417.721 328.628 415.015 329.352ZM406.033 343.856C405.483 352.201 405.924 360.626 406.412 368.956C406.648 372.814 409.95 375.758 413.804 375.522C417.657 375.302 420.583 371.995 420.362 368.121L420.331 367.744C419.418 359.839 418.507 351.918 418.129 343.966C417.956 340.627 415.124 338.045 411.774 338.202C408.707 338.36 406.222 340.785 406.033 343.871M406.412 368.972C407.051 379.858 407.355 390.749 407.324 401.646C407.324 406.087 410.925 409.709 415.361 409.709C419.812 409.709 423.414 406.103 423.414 401.662L423.414 401.095C422.638 389.967 421.61 378.856 420.331 367.759C419.875 363.917 416.415 361.177 412.577 361.618C408.912 362.043 406.191 365.271 406.412 368.972ZM407.324 401.646C407.334 412.354 407.125 423.062 406.663 433.77C406.427 438.966 410.438 443.344 415.629 443.581C420.819 443.817 425.191 439.801 425.427 434.605L425.427 433.691C424.851 422.826 424.18 411.96 423.414 401.095C423.1 396.654 419.262 393.317 414.826 393.616C410.611 393.915 407.339 397.41 407.324 401.646ZM406.663 433.77L405.939 449.942C405.688 455.564 410.028 460.319 415.659 460.571C421.275 460.823 426.025 456.477 426.277 450.84L426.277 449.863L425.427 433.691C425.144 428.495 420.725 424.526 415.55 424.794C410.721 425.046 406.868 428.936 406.663 433.77ZM406.08 448.667L406.05 448.809C405.987 449.155 405.95 449.512 405.939 449.879L405.939 449.942L405.908 450.871C405.955 456.225 410.154 460.666 415.502 460.981C418.553 461.17 421.543 459.973 423.619 457.721C425.412 455.784 426.245 453.375 426.355 450.824C426.622 445.187 422.266 440.399 416.619 440.132C411.46 439.895 406.93 443.549 406.08 448.667ZM406.726 432.951L405.939 449.879C405.688 455.517 410.029 460.303 415.676 460.571C421.307 460.839 426.087 456.477 426.355 450.824L427.142 433.896C427.409 428.259 423.052 423.456 417.406 423.188C411.775 422.936 406.993 427.298 406.726 432.951ZM410.5 397.269C408.629 409.079 407.276 420.999 406.726 432.951C406.458 438.589 410.815 443.376 416.462 443.644C422.093 443.895 426.875 439.549 427.142 433.88C427.677 422.574 428.731 411.283 430.13 400.024C430.807 394.592 426.953 389.631 421.511 388.954C416.194 388.293 411.318 391.962 410.5 397.269ZM418.081 356.783C415.203 370.2 412.624 383.711 410.485 397.253C409.636 402.686 413.332 407.772 418.743 408.623C424.154 409.473 429.233 405.772 430.082 400.355L430.13 400.04C431.782 386.797 433.968 373.617 436.468 360.515C437.444 355.413 434.109 350.5 429.013 349.524C423.996 348.564 419.135 351.807 418.081 356.783ZM431.326 315.952C425.333 328.975 421.07 342.769 418.081 356.783C416.98 361.854 420.221 366.846 425.285 367.917C430.35 369.003 435.352 365.775 436.421 360.689L436.468 360.515C438.891 347.792 442.493 335.242 447.747 323.4C449.791 318.834 447.746 313.511 443.185 311.48C438.671 309.464 433.386 311.464 431.326 315.952ZM450.625 289.214C441.518 295.513 435.84 306.142 431.326 315.952C429.234 320.471 431.215 325.841 435.729 327.92C440.259 330.014 445.623 328.03 447.7 323.511L447.747 323.4C449.744 318.928 451.993 314.503 454.84 310.519C456.429 308.315 458.284 306.047 460.628 304.598C464.953 301.953 466.306 296.3 463.664 291.969C461.021 287.639 455.374 286.301 451.049 288.93L450.625 289.214ZM450.625 289.214C446.457 292.096 445.418 297.827 448.297 302C451.065 306 456.476 307.149 460.628 304.598C462.61 303.386 465.709 301.528 468.178 302.237C473.4 303.732 478.842 300.725 480.336 295.497C481.83 290.285 478.811 284.836 473.589 283.34C473.253 283.256 472.913 283.178 472.567 283.104C464.702 281.734 457.011 284.789 450.625 289.214ZM468.178 302.237C469.358 302.583 469.767 304.221 470.081 305.228C471.654 310.74 477.41 313.92 482.915 312.314C488.421 310.74 491.566 304.977 489.994 299.465L489.852 299.04C487.163 291.04 481.092 284.584 472.567 283.104C467.219 282.175 462.138 285.765 461.21 291.119C460.36 296.064 463.365 300.867 468.194 302.252M470.081 305.244C471.261 309.37 471.497 313.7 470.946 317.936C470.191 323.81 474.343 329.179 480.21 329.935C486.061 330.675 491.425 326.534 492.164 320.661C492.196 320.556 492.211 320.435 492.211 320.298C492.888 313.149 492.149 305.874 489.852 299.04C488.028 293.623 482.145 290.694 476.719 292.536C471.465 294.316 468.54 299.922 470.066 305.26M470.931 317.952C470.38 322.203 468.964 326.313 466.684 329.967C463.538 335.053 465.111 341.761 470.192 344.926C475.288 348.091 481.987 346.533 485.133 341.431C489.097 335.037 491.503 327.793 492.211 320.329C492.746 314.424 488.436 309.197 482.538 308.646C476.797 308.11 471.654 312.22 470.931 317.952ZM466.684 329.967C464.45 333.588 462.044 337.163 459.15 340.297C455.217 344.548 455.469 351.225 459.731 355.177C463.664 358.831 469.719 358.925 473.777 355.398C478.338 351.446 481.972 346.533 485.133 341.431C488.295 336.329 486.738 329.62 481.642 326.471C476.545 323.306 469.829 324.865 466.684 329.967ZM459.15 340.297C456.948 342.674 454.698 345.084 452.811 347.729C450.137 351.477 451.018 356.689 454.761 359.351C455.307 359.739 455.883 360.054 456.491 360.295C462.626 362.752 469.216 359.382 473.793 355.414C478.198 351.587 478.653 344.926 474.831 340.533C471.025 336.14 464.371 335.683 459.983 339.494L459.15 340.297ZM454.069 346.328L453.645 346.706C451.16 346.895 449.209 348.894 449.052 351.382C448.722 356.736 453.534 360.059 458.332 360.799C462.862 361.508 467.109 358.39 467.816 353.839C468.509 349.288 465.394 345.037 460.849 344.344C458.411 343.966 455.909 344.69 454.069 346.328ZM549.181 279.01C548.583 281.954 545.201 282.537 542.637 282.632C540.026 282.758 537.982 284.962 538.076 287.592C538.187 290.143 540.278 292.158 542.842 292.158C549.983 292.158 556.888 289.56 560.285 282.868C561.764 279.955 560.6 276.38 557.674 274.884C554.748 273.404 551.179 274.569 549.7 277.498C549.459 277.97 549.286 278.469 549.181 278.994M549.134 279.215L549.118 279.325C548.647 282.585 550.911 285.592 554.151 286.049C556.542 286.395 558.901 285.261 560.112 283.167C563.211 277.86 562.865 271.199 557.596 267.389C554.34 265.026 549.794 265.767 547.451 269.01C545.092 272.27 545.815 276.821 549.07 279.183L549.134 279.215ZM540.341 269.467C536.975 272.333 536.566 277.404 539.429 280.773C542.292 284.143 547.357 284.553 550.723 281.687C550.974 281.467 551.221 281.23 551.462 280.978C551.619 280.789 551.797 280.605 551.997 280.427C555.929 281.183 559.735 278.585 560.49 274.632C560.993 271.861 559.877 269.042 557.596 267.389C552.028 263.342 545.201 265.342 540.341 269.467ZM540.341 269.467C534.836 274.176 531.439 281.183 528.702 287.749C526.877 292.174 528.97 297.26 533.39 299.087C537.794 300.945 542.874 298.851 544.714 294.426L544.856 294.064C546.46 289.655 548.222 284.521 551.462 280.994C554.435 277.703 554.199 272.648 550.927 269.656C547.939 266.932 543.424 266.853 540.341 269.467ZM528.702 287.749C525.32 295.906 522.867 304.441 521.263 313.133C520.319 318.204 523.684 323.085 528.749 324.014C533.814 324.959 538.69 321.605 539.634 316.519L539.712 315.92C540.593 308.472 542.276 301.118 544.856 294.064C546.492 289.56 544.179 284.584 539.681 282.931C535.339 281.356 530.496 283.466 528.718 287.749M521.263 313.133C519.863 320.692 518.762 328.345 518.447 336.029C518.211 341.541 522.473 346.154 527.963 346.39C533.436 346.627 538.076 342.36 538.296 336.864L538.296 336.455C538.296 329.589 538.925 322.739 539.728 315.936C540.341 310.803 536.677 306.157 531.549 305.543C526.673 304.961 522.159 308.283 521.263 313.133ZM518.447 336.029C518.148 343.037 519.107 350.752 524.203 356.028C528.088 360.043 534.491 360.138 538.517 356.248C542.182 352.705 542.638 346.973 539.587 342.895C538.234 341.1 538.313 338.643 538.313 336.439C538.313 330.959 533.861 326.518 528.372 326.518C523.04 326.518 518.667 330.707 518.447 336.029ZM524.188 356.012C529.898 361.902 538.343 362.028 545.138 358.059C549.92 355.272 551.54 349.146 548.757 344.359C546.24 340.045 540.971 338.234 536.347 340.108L536.362 340.092C531.47 337.383 525.305 339.163 522.616 344.076C520.461 347.966 521.105 352.816 524.188 356.012ZM543.22 331.447C541.223 334.549 538.753 338.738 535.356 340.564C530.48 343.178 528.655 349.256 531.266 354.138C533.877 359.02 539.948 360.846 544.824 358.232L545.138 358.059C551.603 354.28 556.07 347.682 559.64 341.273C562.22 336.643 560.585 330.801 555.96 328.219C551.525 325.746 545.941 327.148 543.22 331.431M558.791 300.173C554.104 310.755 549.433 321.637 543.22 331.415C540.373 335.888 541.678 341.808 546.145 344.659C550.597 347.509 556.527 346.202 559.358 341.73L559.64 341.257C565.711 330.392 570.494 318.739 575.291 307.276C577.194 302.693 575.039 297.418 570.462 295.497C565.948 293.607 560.757 295.686 558.775 300.173M572.066 272.223C570.085 275.231 568.606 278.6 567.065 281.86C564.202 287.907 561.496 294.032 558.775 300.173C556.778 304.709 558.807 310.031 563.352 312.031C567.882 314.047 573.198 311.984 575.196 307.449L575.275 307.276C577.854 301.113 580.381 294.925 582.856 288.71C584.146 285.466 585.53 282.207 586.474 278.837C587.685 274.585 585.215 270.129 580.969 268.916C577.587 267.971 574.001 269.294 572.066 272.223ZM575.055 267.704L572.066 272.223C569.628 275.923 570.651 280.899 574.363 283.34C578.059 285.781 583.013 284.757 585.467 281.057C585.918 280.364 586.254 279.624 586.474 278.837L587.953 273.64C589.054 269.814 586.82 265.83 583.013 264.743C579.993 263.877 576.769 265.074 575.039 267.704M575.039 267.704C573.466 270.066 573.45 273.105 574.945 275.483C576.517 279.057 580.685 280.679 584.256 279.104C586.867 277.955 588.534 275.325 588.471 272.491C588.408 269.562 587.48 266.806 584.728 265.231C584.309 265.011 583.889 264.822 583.469 264.665C583.029 264.518 582.573 264.412 582.101 264.349C579.286 264.003 576.58 265.373 575.039 267.704ZM574.347 272.79L574.583 284.222C574.677 288.127 577.902 291.214 581.803 291.135C585.688 291.041 588.786 287.828 588.692 283.923L588.471 272.491C588.377 268.585 585.153 265.483 581.236 265.562C577.351 265.656 574.253 268.885 574.347 272.79ZM574.583 284.222C574.74 291.198 574.536 298.19 574.127 305.15C573.906 309.086 576.911 312.456 580.827 312.677C584.76 312.897 588.125 309.905 588.345 305.969L588.345 305.89C588.691 298.567 588.849 291.245 588.692 283.923C588.597 280.018 585.389 276.916 581.488 276.994C577.603 277.089 574.505 280.333 574.599 284.238M574.143 305.166C573.723 312.252 573.419 319.343 573.23 326.439C573.136 330.502 576.344 333.888 580.402 333.982C584.46 334.077 587.826 330.864 587.936 326.802L587.936 326.55C587.873 319.663 588.02 312.782 588.377 305.906C588.55 301.969 585.514 298.631 581.582 298.457C577.697 298.268 574.379 301.26 574.143 305.166ZM573.23 326.439C573.104 331.966 573.23 337.73 574.85 343.068C576.014 346.879 580.041 349.02 583.863 347.855C587.355 346.784 589.494 343.257 588.849 339.667C588.063 335.352 587.983 330.912 587.936 326.55C587.889 322.471 584.555 319.212 580.497 319.259C576.549 319.306 573.324 322.487 573.23 326.439ZM574.85 343.068C576.329 347.871 579.773 352.217 584.618 353.886C587.071 354.737 589.73 353.414 590.579 350.973C590.862 350.091 590.898 349.199 590.689 348.296C589.965 345.44 589.353 342.564 588.849 339.667C588.126 335.73 584.382 333.147 580.466 333.84C576.533 334.565 573.938 338.328 574.646 342.249L574.85 343.068ZM632.512 268.129C633.047 269.735 632.606 272.396 632.481 274.16C632.15 278.947 631.489 283.734 630.781 288.49C630.325 291.545 632.448 294.379 635.5 294.835C638.535 295.292 641.383 293.182 641.839 290.112C642.594 284.915 643.301 279.703 643.647 274.443C643.868 271.262 644.119 267.719 643.113 264.633C642.137 261.704 638.992 260.113 636.066 261.074C633.141 262.035 631.553 265.184 632.512 268.129ZM630.781 288.49C629.575 296.636 628.422 304.787 627.321 312.944C626.834 316.566 629.366 319.904 632.984 320.392C636.601 320.896 639.936 318.346 640.424 314.724C640.466 314.409 640.486 314.073 640.486 313.716C640.329 305.843 640.69 297.922 641.839 290.112C642.279 287.057 640.172 284.222 637.12 283.765C634.069 283.324 631.237 285.435 630.781 288.49ZM627.321 312.944C626.252 320.849 625.356 328.77 624.899 336.722C624.648 341.21 628.077 345.068 632.559 345.304C637.042 345.556 640.864 342.139 641.131 337.651L641.131 336.864C640.827 329.148 640.612 321.432 640.486 313.716C640.423 310.063 637.404 307.165 633.754 307.228C630.499 307.275 627.778 309.716 627.321 312.944ZM624.899 336.722C624.585 342.297 624.301 348.217 625.78 353.666C627.069 358.437 631.977 361.24 636.727 359.949C641.492 358.642 644.293 353.744 643.003 348.973C642.888 348.553 642.741 348.144 642.563 347.745C641.163 344.532 641.273 340.281 641.131 336.864C640.942 332.376 637.168 328.88 632.685 329.069C628.501 329.227 625.135 332.549 624.899 336.722ZM625.78 353.666C627.746 360.941 634.667 365.334 642.075 363.35C647.014 362.028 649.939 356.957 648.618 352.013C647.659 348.406 644.623 345.729 640.927 345.241C637.576 341.619 631.93 341.415 628.312 344.769C625.874 347.036 624.899 350.453 625.78 353.666ZM641.729 338.989C640.439 341.021 639.087 343.037 637.482 344.816C637.157 345.163 636.806 345.493 636.428 345.808C636.239 345.95 637.639 345.257 636.192 345.84C631.473 347.777 629.193 353.178 631.128 357.918C632.89 362.232 637.576 364.563 642.075 363.35C649.058 361.492 653.682 354.595 657.284 348.816C659.974 344.501 658.669 338.817 654.359 336.124C650.065 333.447 644.45 334.738 641.729 339.005M655.413 315.731C651.025 323.605 646.558 331.415 641.729 339.005C638.992 343.304 640.25 348.989 644.544 351.729C648.822 354.453 654.516 353.194 657.237 348.895L657.284 348.816C662.255 340.848 666.8 332.612 671.204 324.329C673.532 319.936 671.881 314.488 667.493 312.157C663.168 309.842 657.788 311.432 655.397 315.716M672.116 287.151C666.328 296.536 660.75 306.053 655.381 315.7C652.975 320.046 654.532 325.542 658.873 327.951C663.214 330.376 668.688 328.817 671.11 324.471L671.189 324.314C676.275 314.74 681.454 305.218 686.729 295.749C689.009 291.655 687.546 286.474 683.457 284.207C679.509 282.002 674.508 283.293 672.133 287.151M688.584 263.436C682.529 270.916 677.197 278.963 672.133 287.151C669.679 291.135 670.906 296.363 674.885 298.819C678.88 301.292 684.102 300.064 686.556 296.08L686.745 295.749C691.055 288.033 695.663 280.411 701.136 273.467C703.873 269.971 703.275 264.916 699.784 262.176C696.339 259.452 691.353 260.019 688.584 263.436ZM688.584 263.436C685.8 266.885 686.32 271.94 689.764 274.742C693.224 277.53 698.258 276.994 701.058 273.546L701.136 273.467C702.363 271.892 703.7 270.286 705.335 269.121C709.818 269.877 714.05 266.869 714.805 262.381C715.497 258.255 712.964 254.256 708.937 253.122C700.522 250.729 693.429 257.437 688.584 263.436ZM702.017 267.767C703.322 271.31 703.432 275.388 703.605 279.104C703.826 284.128 708.073 288.001 713.059 287.765C718.06 287.545 721.929 283.309 721.709 278.317C721.709 278.086 721.694 277.86 721.662 277.64C721.08 272.758 720.278 267.751 718.485 263.153C716.754 258.697 713.735 254.492 708.937 253.122C704.58 251.878 700.035 254.413 698.808 258.791C697.849 262.161 699.123 265.767 702.017 267.767ZM703.605 279.104C704.088 289.854 704.36 300.609 704.423 311.369C704.471 316.928 709 321.416 714.552 321.369C720.12 321.337 724.604 316.803 724.557 311.228L724.557 310.724C723.927 299.67 722.962 288.647 721.662 277.656C721.065 272.664 716.566 269.121 711.596 269.703C706.877 270.254 703.401 274.365 703.605 279.12M704.423 311.385C704.486 320.912 704.691 330.471 705.367 339.982C705.792 345.934 710.951 350.406 716.897 349.997C722.842 349.571 727.325 344.406 726.9 338.454L726.837 337.872C725.704 328.864 725.059 319.794 724.54 310.74C724.226 305.181 719.476 300.929 713.924 301.26C708.576 301.559 704.392 306.016 704.423 311.385ZM705.367 339.982C706.043 349.587 710.243 359.272 718.233 364.972C721.473 367.287 725.988 366.515 728.3 363.271C729.369 361.76 729.826 359.87 729.558 358.044C728.573 351.325 727.665 344.601 726.837 337.872C726.097 331.951 720.703 327.762 714.789 328.502C709.111 329.211 704.974 334.25 705.367 339.982Z" fill="black"/>
</svg>
