<svg width="158" height="453" viewBox="0 0 158 453" fill="none" xmlns="http://www.w3.org/2000/svg">
<path d="M78.1391 103.618C78.1727 104.131 78.6135 104.521 79.1256 104.485C79.6146 104.454 79.9945 104.049 79.9966 103.562C79.9966 102.67 80.2128 101.778 80.4646 100.93C80.8466 99.6349 81.3608 98.3796 81.917 97.1518C82.2088 96.5075 81.9233 95.7499 81.279 95.4602C80.6367 95.1706 79.8791 95.4561 79.5895 96.0983C79.5699 96.1403 79.553 96.1836 79.539 96.2284C79.0899 97.6073 78.6848 99.0052 78.412 100.43C78.2105 101.475 78.0678 102.552 78.1391 103.618ZM81.9002 97.1876C82.2025 96.5635 82.5152 95.945 82.8385 95.3321C83.0001 95.032 83.1533 94.7025 83.3716 94.4381C83.9634 93.7245 83.8648 92.6687 83.1533 92.0769C82.4397 91.485 81.3839 91.5837 80.7921 92.2952C80.6116 92.5135 80.4898 92.7716 80.4352 93.0508C80.3807 93.332 80.2758 93.6594 80.1939 93.9532C79.9756 94.7256 79.7532 95.4966 79.5265 96.2661C79.3292 96.9441 79.7175 97.6514 80.3954 97.8508C80.9915 98.025 81.6274 97.7459 81.9002 97.1876ZM83.1952 94.6206L83.5626 94.2932C84.3244 93.6174 84.3937 92.4525 83.7178 91.6906C83.042 90.9288 81.8772 90.8596 81.1153 91.5354C80.8131 91.8062 80.6053 92.1671 80.5276 92.5638L80.4352 93.0508C80.261 93.9616 80.855 94.8369 81.7638 95.0132C82.2759 95.1118 82.8049 94.9669 83.1952 94.6206ZM84.0873 93.9659C84.23 93.2103 84.3391 92.4526 83.8249 91.7831C83.7074 91.6291 83.5689 91.497 83.4094 91.3864C83.126 91.1892 82.7944 91.0757 82.4481 91.0568L80.5024 92.7486C80.4122 93.7623 81.1594 94.6585 82.1731 94.7508C82.327 94.7648 82.4796 94.7598 82.6307 94.7361C82.6265 94.7319 82.6237 94.7312 82.6223 94.734C82.8951 94.6921 83.1554 94.5914 83.3821 94.4361C83.2687 94.5137 83.1995 94.5452 83.1008 94.5893L83.1029 94.5934L83.1827 94.5535L80.3492 93.4978C80.2863 94.5389 81.0775 95.433 82.1164 95.498C83.0651 95.5568 83.9089 94.8999 84.0873 93.9659ZM83.3484 97.8676L84.0873 93.9637C84.2804 92.9416 83.6066 91.9552 82.5845 91.76C81.5771 91.5711 80.6011 92.2175 80.387 93.2207L79.56 97.1037C79.3376 98.1489 80.0029 99.1751 81.0482 99.3976C82.0913 99.6201 83.1176 98.9548 83.3379 97.9096L83.3484 97.8676ZM80.5234 109.508C81.1447 107.142 81.7575 104.773 82.3347 102.397C82.6978 100.894 83.0609 99.3871 83.3484 97.8676C83.5457 96.8182 82.8573 95.8086 81.81 95.6092C80.7774 95.414 79.7783 96.0773 79.56 97.1037C78.7457 100.926 77.6753 104.704 76.6511 108.473C76.3593 109.544 76.9911 110.643 78.0573 110.933C79.1277 111.225 80.2296 110.593 80.5192 109.525L80.5234 109.508ZM74.5543 130.868C76.6174 123.769 78.6471 116.659 80.5234 109.508C80.8047 108.437 80.1666 107.342 79.0941 107.061C78.03 106.781 76.9386 107.411 76.6511 108.473C74.7201 115.58 72.6863 122.659 70.6337 129.73C70.3188 130.813 70.9422 131.947 72.0252 132.259C73.1082 132.574 74.2395 131.951 74.5543 130.868ZM66.6417 155.813C69.4961 147.568 72.1217 139.246 74.5543 130.868C74.8691 129.787 74.2458 128.653 73.1628 128.339C72.0818 128.024 70.9485 128.647 70.6337 129.73C68.22 138.048 65.6468 146.322 62.8889 154.532C62.5426 155.571 63.1009 156.694 64.1399 157.042C65.1683 157.389 66.2869 156.839 66.6417 155.813ZM59.514 176.096C61.934 169.35 64.2993 162.583 66.6417 155.813C66.9985 154.778 66.4528 153.651 65.418 153.29C64.3833 152.933 63.2562 153.481 62.8973 154.515L62.891 154.532C60.6159 161.312 58.3155 168.08 55.9354 174.822C55.5849 175.81 56.1033 176.895 57.094 177.246C58.0804 177.594 59.1614 177.078 59.514 176.096ZM55.5304 188.347C55.9648 186.651 56.4875 184.976 57.029 183.312C57.814 180.894 58.6556 178.491 59.514 176.096C59.8687 175.109 59.3545 174.02 58.368 173.667C57.3816 173.311 56.2922 173.825 55.9375 174.813L55.9354 174.822C54.4683 178.971 52.9845 183.148 51.8931 187.415C51.637 188.422 52.2436 189.442 53.2468 189.7C54.2522 189.957 55.2743 189.35 55.5304 188.347ZM54.2081 196.662C54.8314 196.893 55.522 196.576 55.7529 195.953C55.9103 195.525 55.8137 195.044 55.501 194.715C55.0119 194.192 54.8986 193.443 54.8776 192.756C54.8314 191.272 55.1652 189.774 55.5304 188.347C55.7885 187.341 55.182 186.319 54.1766 186.063C53.1734 185.805 52.1512 186.41 51.8931 187.415C51.4208 189.262 51.1018 191.266 51.4985 193.159C51.8154 194.677 52.7011 196.104 54.2081 196.662Z" fill="black"/>
<path d="M80.3577 92.9458C80.9201 93.5544 81.8688 93.5922 82.4775 93.0297C83.0862 92.4672 83.1239 91.5185 82.5614 90.9098C82.4775 90.8175 82.3823 90.737 82.276 90.6685C82.1291 90.5719 81.7848 90.3663 81.8184 90.1417C81.9234 89.4344 81.4365 88.7774 80.7313 88.6725C80.0512 88.5675 79.409 89.0188 79.2726 89.6926C79.0249 90.9099 79.5412 92.0621 80.3577 92.9458ZM80.3577 92.9458C80.6263 93.2354 80.8152 93.6006 80.9768 93.9574C81.2601 94.5849 81.4659 95.2461 81.6443 95.9093C81.8961 96.858 82.8742 97.4204 83.8229 97.1686C84.7715 96.9125 85.334 95.9367 85.0801 94.988C85.0703 94.946 85.0577 94.9053 85.0423 94.8662C84.5008 93.3046 83.7116 91.5983 82.276 90.6685C81.5792 90.2172 80.6515 90.4166 80.2002 91.1113C79.8287 91.6864 79.8917 92.442 80.3577 92.9458ZM81.6443 95.9093C82.3852 98.6756 82.8931 101.509 83.4157 104.324C83.6088 105.369 84.612 106.059 85.6572 105.864C86.7025 105.671 87.393 104.668 87.1999 103.62L87.1936 103.591C86.8452 101.866 86.4779 100.141 86.056 98.43C85.7622 97.2315 85.4473 96.0331 85.0423 94.8662C84.719 93.9385 83.7053 93.4473 82.7776 93.7684C81.8961 94.0749 81.4029 95.0089 81.6443 95.9093ZM83.4157 104.324C84.4945 110.14 85.609 115.949 86.7255 121.759C86.9396 122.867 88.01 123.593 89.1182 123.379C90.2264 123.167 90.9505 122.094 90.7385 120.986L90.7343 120.963C89.5485 115.175 88.3626 109.384 87.1936 103.591C86.9837 102.55 85.9679 101.874 84.9268 102.086C83.8963 102.294 83.2226 103.289 83.4157 104.324ZM86.7255 121.759C88.2997 129.955 90.0334 138.121 91.8677 146.265C92.1259 147.402 93.2571 148.118 94.3947 147.86C95.5344 147.604 96.2501 146.475 95.992 145.335C94.166 137.227 92.4029 129.105 90.7343 120.963C90.5077 119.857 89.4268 119.146 88.3207 119.372C87.2272 119.595 86.5157 120.659 86.7255 121.759ZM91.8677 146.265C93.5132 153.552 95.2615 160.827 97.3814 167.992C97.7025 169.079 98.8442 169.698 99.9293 169.377C101.006 169.058 101.625 167.935 101.323 166.857C99.3249 159.741 97.6186 152.542 95.992 145.335C95.7359 144.195 94.6046 143.48 93.4649 143.738C92.3274 143.994 91.6096 145.125 91.8677 146.265ZM97.3835 167.992L101.611 182.268C101.928 183.339 103.055 183.952 104.125 183.633C105.195 183.316 105.808 182.189 105.489 181.118L105.483 181.093C104.022 176.371 102.662 171.617 101.325 166.857C101.019 165.765 99.8853 165.129 98.796 165.436C97.7046 165.742 97.0687 166.873 97.3751 167.965L97.3835 167.992ZM101.611 182.268C102.505 185.289 103.411 188.307 104.392 191.3C104.744 192.381 105.909 192.97 106.99 192.616C108.071 192.263 108.661 191.098 108.306 190.017C107.336 187.054 106.406 184.073 105.483 181.093C105.153 180.027 104.02 179.429 102.952 179.76C101.894 180.088 101.294 181.204 101.608 182.268M104.389 191.3C104.998 193.161 105.649 195.025 106.501 196.79C106.979 197.783 108.172 198.199 109.166 197.72C110.115 197.263 110.543 196.144 110.144 195.166C109.454 193.48 108.87 191.749 108.304 190.017C107.951 188.936 106.786 188.347 105.705 188.701C104.624 189.056 104.035 190.219 104.389 191.3ZM106.501 196.79C107.057 197.945 107.737 199.21 108.805 199.968C109.561 200.503 110.604 200.325 111.137 199.569C111.479 199.088 111.542 198.463 111.303 197.924C110.898 197.013 110.522 196.089 110.144 195.166C109.727 194.146 108.562 193.659 107.542 194.074C106.522 194.494 106.033 195.659 106.451 196.679C106.465 196.717 106.481 196.754 106.501 196.79ZM108.709 199.894C109.087 200.205 109.511 200.465 110.016 200.478C110.207 200.482 110.392 200.453 110.573 200.39C110.906 200.272 111.185 200.041 111.368 199.739C111.752 199.099 111.57 198.417 111.248 197.814C110.934 197.223 110.293 196.878 109.626 196.937C109.122 196.675 108.505 196.874 108.243 197.376C108.123 197.609 108.096 197.88 108.169 198.134C107.981 198.776 108.19 199.468 108.709 199.894Z" fill="black"/>
<path d="M46.4257 198.931C47.0826 198.937 47.6913 199.151 48.1215 199.664C48.5707 200.199 49.3704 200.266 49.9056 199.817C50.4408 199.366 50.5079 198.568 50.0588 198.033C49.1542 196.958 47.834 196.417 46.4404 196.412C45.7478 196.412 45.181 196.973 45.181 197.67C45.179 198.36 45.7352 198.923 46.4257 198.929M42.4799 199.999C43.3404 199.693 44.2093 199.399 45.0929 199.168C45.5169 199.057 45.9786 198.923 46.4236 198.929C47.1183 198.937 47.6892 198.379 47.6976 197.684C47.706 196.99 47.1498 196.419 46.455 196.41H46.4383C45.796 196.41 45.1538 196.524 44.5241 196.643C43.5608 196.826 42.6078 197.057 41.6592 197.298C40.9036 197.489 40.4461 198.259 40.6391 199.015C40.8301 199.771 41.5983 200.228 42.356 200.037C42.398 200.027 42.44 200.014 42.482 199.997M38.9979 201.454C39.2665 201.24 39.6569 201.101 39.9717 200.965C40.7945 200.608 41.6382 200.297 42.484 199.995C43.2186 199.735 43.6028 198.925 43.3404 198.19C43.0969 197.504 42.3686 197.116 41.6613 197.296C40.7231 197.533 39.787 197.783 38.8698 198.089C38.257 198.295 37.6147 198.515 37.0795 198.891C36.3554 199.399 36.1812 200.398 36.6891 201.122C37.1971 201.846 38.194 202.021 38.9202 201.513L38.9979 201.454ZM38.8615 202.539C39.7682 202.633 40.5825 201.977 40.6769 201.068C40.7693 200.195 40.1627 199.401 39.2959 199.263C38.7838 198.553 37.7973 198.387 37.0795 198.891C36.664 199.183 36.3366 199.59 36.2211 200.094C36.0595 200.803 36.3617 201.532 36.9431 201.955C37.4909 202.356 38.2024 202.468 38.8593 202.539M38.8593 202.539C39.7849 202.636 40.7189 202.673 41.6508 202.709C43.185 202.772 44.7193 202.806 46.2556 202.835C47.2295 202.854 48.0334 202.079 48.0523 201.103C48.0712 200.129 47.2967 199.326 46.3207 199.307H46.2661C44.755 199.33 43.2438 199.337 41.7326 199.328C40.8763 199.317 40.0158 199.313 39.1616 199.246C38.2507 199.174 37.4552 199.855 37.3838 200.765C37.3146 201.657 37.9673 202.445 38.8572 202.539M46.2556 202.835C51.381 202.931 56.5128 202.766 61.6339 202.577C62.6939 202.539 63.5229 201.647 63.483 200.587C63.4431 199.527 62.5532 198.698 61.4933 198.738H61.466C56.4015 198.996 51.3327 199.242 46.264 199.305C45.2902 199.319 44.5094 200.119 44.522 201.093C44.5346 202.046 45.3028 202.816 46.2556 202.835ZM61.6339 202.577C68.8099 202.312 75.9816 201.989 83.1534 201.634C84.2511 201.58 85.0969 200.648 85.0423 199.548C84.9877 198.45 84.0559 197.605 82.9561 197.659C75.792 198.015 68.6279 198.374 61.4639 198.738C60.4061 198.792 59.5917 199.695 59.6442 200.755C59.6987 201.804 60.5845 202.617 61.6339 202.577ZM83.1534 201.634C89.8739 201.301 96.6007 201.049 103.33 201.026C104.444 201.024 105.344 200.117 105.342 199C105.338 197.886 104.431 196.985 103.315 196.988H103.302C96.5167 197.059 89.7333 197.323 82.9561 197.659C81.8584 197.714 81.0125 198.648 81.0671 199.745C81.1217 200.843 82.0557 201.689 83.1534 201.634ZM103.33 201.026C107.813 201.011 112.296 201.005 116.779 201.089C117.91 201.11 118.842 200.207 118.863 199.076C118.884 197.945 117.984 197.011 116.852 196.992C112.336 196.908 107.819 196.941 103.302 196.99C102.186 197 101.292 197.913 101.304 199.028C101.315 200.138 102.219 201.03 103.33 201.026ZM116.779 201.089C118.962 201.126 121.145 201.2 123.319 201.378C124.708 201.492 126.11 201.632 127.47 201.955C128.18 202.123 128.891 201.683 129.059 200.975C129.179 200.472 128.99 199.943 128.581 199.626C127.229 198.583 125.516 198.052 123.869 197.695C121.569 197.195 119.201 197.034 116.852 196.992C115.721 196.971 114.787 197.871 114.768 199.002C114.747 200.134 115.648 201.07 116.779 201.089ZM41.7326 174.767C41.9761 175.334 42.1944 175.936 42.4211 176.517C42.6372 177.067 43.2585 177.338 43.8063 177.122C44.2953 176.933 44.5724 176.417 44.4653 175.905C44.3352 175.296 44.1883 174.673 44.0792 174.064C43.9574 173.394 43.3173 172.949 42.6477 173.069C41.9761 173.191 41.5333 173.831 41.6529 174.501C41.6697 174.593 41.6963 174.682 41.7326 174.767ZM44.0708 174.591L44.0749 174.507H44.0771C44.1008 174.381 44.1044 174.253 44.0876 174.123C44.0456 173.8 43.884 173.502 43.6258 173.296C43.5083 173.202 43.3789 173.132 43.2375 173.086C43.0892 173.037 42.936 173.017 42.7779 173.027C42.1524 173.065 41.6991 173.552 41.6025 174.14C41.5872 174.249 41.5766 174.358 41.571 174.469C41.5291 175.162 42.0538 175.754 42.7464 175.796C43.4348 175.837 44.0267 175.311 44.0687 174.62L44.0708 174.591ZM43.9322 178.285L44.0708 174.591C44.0981 173.9 43.5587 173.319 42.8681 173.294C42.186 173.268 41.6109 173.791 41.571 174.469L41.3486 178.159C41.3066 178.872 41.8481 179.485 42.5617 179.527C43.2753 179.569 43.8882 179.028 43.9322 178.314V178.285ZM43.4516 184.539C43.7097 182.464 43.8546 180.375 43.9343 178.285C43.9595 177.571 43.4034 176.969 42.6876 176.942C41.9866 176.916 41.3906 177.456 41.3486 178.159C41.2268 180.174 41.0485 182.189 40.7714 184.189C40.6707 184.928 41.187 185.61 41.9258 185.712C42.6645 185.815 43.3467 185.297 43.4495 184.558L43.4516 184.539ZM42.3728 191.012C42.8031 188.867 43.1829 186.71 43.4516 184.539C43.5439 183.798 43.0171 183.125 42.2762 183.032C41.5416 182.942 40.8722 183.456 40.7714 184.189C40.4818 186.294 40.1019 188.386 39.6842 190.473C39.5352 191.214 40.0158 191.938 40.7588 192.087C41.4997 192.234 42.2238 191.753 42.3728 191.012ZM41.6004 194.853L42.3728 191.012C42.5198 190.269 42.0412 189.547 41.2982 189.396C40.5552 189.249 39.8332 189.73 39.6821 190.473L38.9118 194.314C38.7649 195.057 39.2455 195.779 39.9864 195.93C40.7294 196.077 41.4514 195.596 41.6025 194.853M39.3043 195.846C39.5352 196.047 39.829 196.165 40.1354 196.182C40.3768 196.192 40.6161 196.14 40.828 196.03C41.3234 195.779 41.5039 195.344 41.6046 194.855C41.7515 194.112 41.2709 193.388 40.528 193.239C39.7871 193.092 39.0629 193.573 38.9139 194.314L38.8992 194.391C38.8615 194.505 38.8405 194.621 38.8363 194.742C38.8174 195.157 38.9853 195.567 39.3064 195.846M41.571 194.717L41.5186 193.911C41.4724 193.18 40.8427 192.626 40.1123 192.672C39.4386 192.714 38.9034 193.26 38.874 193.936L38.8363 194.742C38.8027 195.497 39.3883 196.135 40.1438 196.169C40.8994 196.203 41.5375 195.619 41.571 194.864V194.717ZM41.5186 193.911C41.4976 193.56 41.613 193.117 41.6802 192.76C41.8586 191.801 42.079 190.853 42.3056 189.906C42.4673 189.222 42.0454 188.538 41.3633 188.374C40.6832 188.214 40.0011 188.63 39.8353 189.308C39.5939 190.288 39.3568 191.268 39.149 192.257C39.0335 192.807 38.8992 193.371 38.874 193.936C38.8404 194.666 39.4072 195.285 40.1376 195.317C40.868 195.35 41.4871 194.784 41.5207 194.053L41.5186 193.911ZM42.3056 189.906C42.8653 187.55 43.4103 185.19 43.9406 182.827C44.0938 182.142 43.6615 181.462 42.9773 181.309C42.2931 181.156 41.613 181.588 41.4619 182.273L41.4598 182.281C40.9519 184.632 40.4104 186.974 39.8353 189.308C39.6674 189.99 40.085 190.676 40.7651 190.844C41.4472 191.012 42.1356 190.594 42.3035 189.914L42.3056 189.906ZM43.9406 182.827C44.2638 181.383 44.5556 179.918 44.9775 178.499C45.179 177.819 44.7928 177.103 44.1127 176.902C43.4327 176.7 42.7191 177.086 42.5177 177.766C42.0769 179.246 41.7831 180.776 41.4598 182.281C41.3129 182.967 41.7474 183.643 42.4337 183.792C43.1158 183.939 43.7874 183.507 43.9406 182.827ZM44.9775 178.499C45.0635 178.205 45.1496 177.911 45.3406 177.674C45.7877 177.12 45.6974 176.31 45.1433 175.861C44.6395 175.453 43.9091 175.487 43.4411 175.938C42.9437 176.417 42.7065 177.122 42.5177 177.768C42.3141 178.448 42.7023 179.162 43.3824 179.364C44.0624 179.565 44.776 179.179 44.9775 178.499ZM43.9658 178.1C44.4275 178.684 45.2713 178.78 45.8548 178.318C46.4005 177.886 46.5243 177.107 46.1402 176.526C45.9094 176.173 45.6176 175.848 45.2335 175.657C44.6353 175.361 43.9217 175.474 43.4411 175.938C42.929 176.431 42.9143 177.248 43.4075 177.76C43.5607 177.919 43.7538 178.035 43.9658 178.1ZM43.8105 177.857C43.947 178.136 44.0372 178.442 44.1275 178.738C44.308 179.326 44.4632 179.92 44.6102 180.516C44.8053 181.288 45.5882 181.756 46.3585 181.563C47.1309 181.37 47.601 180.587 47.4079 179.815L47.3912 179.758C47.2023 179.112 47.0007 178.467 46.7615 177.838C46.5936 177.386 46.4068 176.929 46.1402 176.526C45.733 175.907 44.8977 175.735 44.2786 176.144C43.714 176.515 43.5146 177.248 43.8105 177.857ZM44.6123 180.516C45.0111 182.1 45.4574 183.67 45.9513 185.228C46.2032 186.017 47.0427 186.453 47.834 186.204C48.6211 185.954 49.0597 185.112 48.81 184.323L48.8058 184.311C48.3119 182.799 47.8403 181.28 47.3912 179.758C47.1687 178.994 46.3669 178.56 45.603 178.782C44.8621 179 44.4234 179.764 44.6123 180.516ZM45.9513 185.228C46.4257 186.722 46.9231 188.208 47.4625 189.684C47.7521 190.471 48.6253 190.876 49.4144 190.586C50.2015 190.299 50.6065 189.425 50.3169 188.638L50.3127 188.626C49.7782 187.198 49.2759 185.76 48.8058 184.311C48.5497 183.523 47.7039 183.093 46.9168 183.349C46.1339 183.605 45.7037 184.441 45.9513 185.228ZM47.4625 189.684C48.3335 192.045 49.7398 194.188 51.3643 196.096C51.7211 196.515 52.3465 196.566 52.7642 196.209C53.1042 195.921 53.2112 195.441 53.0223 195.034C52.0485 192.931 51.1271 190.798 50.3127 188.628C50.0189 187.841 49.1416 187.442 48.3566 187.738C47.5737 188.032 47.175 188.901 47.4646 189.686M120.62 175.279L121.201 174.782C121.642 174.404 121.694 173.737 121.315 173.296C120.937 172.853 120.271 172.8 119.829 173.18L119.247 173.676C118.806 174.053 118.754 174.721 119.132 175.164C119.51 175.604 120.177 175.659 120.62 175.279ZM121.589 174.503C121.61 174.363 121.622 174.223 121.623 174.083C121.623 173.617 121.388 173.174 120.939 172.991C120.88 172.968 120.82 172.949 120.758 172.937C120.698 172.923 120.637 172.916 120.576 172.916C120.303 172.905 120.036 173.002 119.829 173.18C119.575 173.396 119.438 173.722 119.463 174.056C119.298 174.633 119.631 175.237 120.208 175.403C120.788 175.571 121.39 175.235 121.556 174.658C121.57 174.608 121.581 174.556 121.589 174.503ZM121.361 176.203L121.589 174.503C121.669 173.906 121.252 173.359 120.655 173.279C120.12 173.208 119.612 173.537 119.463 174.056L118.993 175.707C118.809 176.352 119.182 177.023 119.826 177.206C120.471 177.391 121.14 177.017 121.325 176.375C121.339 176.317 121.351 176.26 121.361 176.203ZM118.75 184.984C119.384 183.047 120.011 181.11 120.597 179.156C120.884 178.192 121.226 177.204 121.361 176.203C121.449 175.537 120.983 174.929 120.32 174.838C119.724 174.759 119.159 175.128 118.993 175.707C118.735 176.61 118.431 177.496 118.139 178.385C117.505 180.307 116.866 182.227 116.221 184.147C115.986 184.844 116.361 185.599 117.06 185.832C117.757 186.067 118.513 185.692 118.748 184.993L118.75 184.984ZM116.202 192.954C116.391 192.175 116.67 191.409 116.913 190.645C117.519 188.756 118.131 186.869 118.75 184.984C118.981 184.285 118.597 183.532 117.898 183.305C117.203 183.074 116.454 183.452 116.219 184.145C115.589 186.034 114.955 187.923 114.336 189.814C114.067 190.639 113.763 191.463 113.557 192.307C113.379 193.038 113.826 193.774 114.556 193.953C115.287 194.131 116.025 193.682 116.202 192.954ZM116.007 193.751L116.202 192.954C116.38 192.221 115.933 191.484 115.203 191.308C114.472 191.128 113.736 191.577 113.557 192.307L113.362 193.109C113.184 193.839 113.631 194.576 114.361 194.752C115.094 194.931 115.83 194.479 116.007 193.751ZM115.545 194.492C115.74 194.333 115.887 194.123 115.969 193.885C115.997 193.8 116.021 193.713 116.04 193.623C116.229 192.897 115.792 192.154 115.064 191.965C114.34 191.776 113.599 192.213 113.406 192.937L113.381 193.042C113.36 193.126 113.406 192.968 113.406 192.966C113.389 193.012 113.375 193.06 113.362 193.109C113.348 193.165 113.338 193.223 113.331 193.283C113.244 194.03 113.78 194.706 114.527 194.792C114.892 194.834 115.261 194.725 115.545 194.492ZM116.04 193.623L116.999 189.927C117.186 189.203 116.752 188.464 116.028 188.277C115.306 188.088 114.569 188.523 114.378 189.243L113.408 192.937C113.217 193.663 113.652 194.406 114.378 194.599C115.104 194.79 115.847 194.356 116.04 193.629V193.623ZM116.999 189.927C117.65 187.415 118.194 184.877 118.66 182.325C118.79 181.618 118.324 180.94 117.614 180.81C116.918 180.682 116.248 181.133 116.103 181.828C115.591 184.313 115.024 186.787 114.378 189.243C114.189 189.967 114.621 190.706 115.343 190.897C116.067 191.086 116.806 190.655 116.997 189.931L116.999 189.927ZM118.66 182.325C119.008 180.426 119.348 178.518 119.82 176.643C119.988 175.972 119.579 175.288 118.905 175.118C118.233 174.95 117.549 175.359 117.379 176.033C116.897 177.949 116.504 179.89 116.105 181.825C115.958 182.531 116.412 183.219 117.117 183.366C117.822 183.511 118.511 183.058 118.655 182.352L118.66 182.325ZM119.82 176.643C120.028 175.814 120.25 174.964 120.618 174.19C120.918 173.562 120.653 172.813 120.026 172.513C119.398 172.215 118.649 172.481 118.349 173.107C117.908 174.035 117.629 175.038 117.379 176.033C117.211 176.704 117.619 177.388 118.292 177.558C118.966 177.726 119.65 177.317 119.818 176.643H119.82ZM120.355 174.557C121.077 174.515 121.629 173.896 121.589 173.172C121.573 172.903 121.474 172.645 121.306 172.433C120.815 171.816 119.969 171.575 119.266 171.986C118.834 172.238 118.559 172.668 118.349 173.107C118.051 173.737 118.315 174.486 118.943 174.786C119.415 175.008 119.978 174.92 120.355 174.557ZM119.13 173.879C119.086 173.797 119.153 173.976 119.159 173.999C119.201 174.175 119.236 174.354 119.264 174.536C119.375 175.216 119.436 175.905 119.495 176.589C119.558 177.357 120.229 177.928 120.998 177.865C121.764 177.802 122.335 177.128 122.272 176.36L122.27 176.331C122.19 175.563 122.097 174.792 121.934 174.037C121.816 173.48 121.667 172.884 121.304 172.433C120.855 171.866 120.03 171.772 119.463 172.223C118.964 172.62 118.823 173.319 119.13 173.881M119.493 176.591C119.648 178.446 119.826 180.3 120.028 182.151C120.114 182.948 120.834 183.528 121.634 183.442C122.431 183.353 123.01 182.636 122.924 181.836L122.92 181.8C122.675 179.981 122.458 178.157 122.27 176.331C122.19 175.565 121.506 175.011 120.737 175.09C119.984 175.17 119.432 175.835 119.493 176.591ZM120.028 182.151C120.221 183.939 120.49 185.721 120.868 187.482C121.044 188.288 121.841 188.804 122.652 188.628C123.46 188.452 123.974 187.654 123.797 186.846L123.795 186.837C123.424 185.173 123.145 183.49 122.92 181.8C122.813 181.003 122.081 180.442 121.283 180.549C120.498 180.654 119.94 181.364 120.028 182.151ZM120.868 187.482C121.18 188.917 121.552 190.349 122.064 191.73C122.349 192.511 123.216 192.909 123.995 192.622C124.776 192.334 125.174 191.468 124.887 190.689C124.425 189.436 124.085 188.139 123.795 186.837C123.615 186.029 122.815 185.522 122.007 185.7C121.203 185.88 120.693 186.674 120.87 187.48M122.066 191.728C122.824 193.787 124.2 195.569 125.81 197.04C126.207 197.403 126.822 197.376 127.183 196.977C127.466 196.671 127.519 196.215 127.315 195.85C126.39 194.188 125.548 192.471 124.889 190.687C124.601 189.906 123.735 189.507 122.956 189.795C122.175 190.082 121.776 190.951 122.064 191.73" fill="black"/>
<path d="M33.1126 205.61C33.1714 206.307 33.7843 206.823 34.4811 206.764C35.1779 206.705 35.6942 206.092 35.6354 205.396C35.5809 204.753 35.5494 204.105 35.5914 203.46C35.6145 203.104 35.6544 202.73 35.7866 202.396C36.0469 201.756 35.7362 201.028 35.0982 200.77C34.4685 200.516 33.7549 200.808 33.482 201.429C32.9237 202.713 32.9972 204.248 33.1126 205.61ZM35.711 202.552C36.5023 202.51 37.1089 201.834 37.069 201.045C37.027 200.253 36.3512 199.647 35.5599 199.689C35.413 199.696 35.2703 199.725 35.1317 199.777C34.3615 200.067 33.8158 200.679 33.4862 201.42C33.2071 202.052 33.4926 202.791 34.1222 203.07C34.7099 203.328 35.3941 203.104 35.7131 202.55L35.711 202.552ZM34.8064 202.287C34.9197 202.629 34.9869 202.988 35.0456 203.343C35.2052 204.292 36.1014 204.93 37.0501 204.77C37.9988 204.613 38.6389 203.714 38.4773 202.768C38.4689 202.705 38.4563 202.645 38.4395 202.589C38.2443 201.886 37.9841 201.169 37.5286 200.589C36.9619 199.867 36.0342 199.439 35.1317 199.777C34.3908 200.056 34.0152 200.883 34.2943 201.624C34.3951 201.891 34.5734 202.121 34.8064 202.287ZM35.0456 203.343C35.2681 204.665 35.4235 205.996 35.5284 207.331C35.6124 208.363 36.5127 209.134 37.5433 209.052C38.5738 208.972 39.3441 208.07 39.2643 207.039L39.2602 206.995C39.107 205.507 38.8404 204.031 38.4395 202.589C38.1813 201.666 37.2222 201.12 36.2966 201.378C35.436 201.616 34.8987 202.464 35.0456 203.343ZM35.5284 207.331C35.6858 209.312 35.7593 211.298 35.8285 213.281C35.8663 214.339 36.752 215.166 37.8099 215.128C38.8677 215.092 39.6946 214.205 39.6569 213.147V213.13C39.5666 211.083 39.468 209.033 39.2581 206.995C39.1531 205.967 38.2338 205.217 37.2054 205.322C36.1938 205.427 35.4508 206.319 35.5305 207.333M35.8307 213.283C35.9692 217.239 35.9859 221.202 36.0048 225.16C36.009 226.241 36.8906 227.114 37.9736 227.11C39.0545 227.104 39.9255 226.222 39.9213 225.142V225.129C39.8772 221.131 39.8332 217.128 39.659 213.132C39.6128 212.076 38.7186 211.258 37.6608 211.304C36.6114 211.35 35.7929 212.234 35.8307 213.283ZM36.0048 225.16C36.0398 232.653 36.0678 240.146 36.0888 247.639C36.0951 248.735 36.9871 249.62 38.0827 249.616C39.1804 249.612 40.0661 248.72 40.0619 247.622C40.0367 240.125 40.0074 232.626 39.9213 225.129C39.9108 224.046 39.023 223.179 37.94 223.192C36.8633 223.204 35.9985 224.084 36.0048 225.16ZM36.0888 247.639C36.1238 257.904 36.1622 268.169 36.2042 278.435C36.2084 279.5 37.0732 280.358 38.1352 280.354C39.1951 280.35 40.0514 279.493 40.0535 278.435C40.0913 268.165 40.0941 257.895 40.0619 247.624C40.0577 246.527 39.1657 245.641 38.068 245.645C36.9724 245.649 36.0867 246.541 36.0909 247.639M36.2063 278.435C36.2497 289.253 36.2511 300.07 36.2106 310.888C36.2064 311.805 36.9472 312.552 37.8644 312.554C38.7669 312.558 39.5036 311.843 39.5309 310.942C39.8458 300.109 40.0207 289.273 40.0556 278.433C40.0598 277.371 39.2014 276.507 38.1373 276.502C37.0753 276.5 36.2105 277.359 36.2063 278.421V278.435ZM38.0743 342.352C38.7481 331.893 39.2245 321.42 39.5309 310.942C39.5561 310.027 38.8362 309.263 37.919 309.234C37.0018 309.209 36.2378 309.929 36.2106 310.846V310.888C36.1686 321.323 35.86 331.759 35.2366 342.175C35.1905 342.958 35.7887 343.632 36.5715 343.678C37.3502 343.724 38.024 343.132 38.0743 342.352ZM36.3595 370.9C36.8856 361.381 37.4573 351.865 38.0743 342.352C38.1247 341.569 37.5286 340.893 36.7478 340.84C35.9649 340.792 35.2891 341.386 35.2366 342.169V342.175L33.5324 370.741C33.4862 371.519 34.0802 372.189 34.861 372.237C35.6418 372.283 36.3134 371.689 36.3595 370.906V370.9ZM35.2808 393.824C35.5599 386.18 35.9419 378.54 36.3595 370.9C36.4015 370.119 35.8055 369.452 35.0226 369.41C34.246 369.366 33.5786 369.96 33.5324 370.738C33.0749 378.389 32.6362 386.039 32.2416 393.691C32.1975 394.531 32.8419 395.245 33.6814 395.289C34.5209 395.331 35.2367 394.686 35.2808 393.847V393.824ZM34.9407 409.366C34.9302 404.183 35.0919 399.001 35.2808 393.824C35.3123 392.984 34.6553 392.279 33.8157 392.249C32.9846 392.218 32.2836 392.86 32.2416 393.691C31.9708 398.905 31.7295 404.123 31.6455 409.342C31.6308 410.253 32.357 411.001 33.2658 411.017C34.1767 411.032 34.9239 410.304 34.9407 409.395V409.366ZM31.6371 418.905C31.6602 419.843 32.441 420.584 33.3792 420.563C34.3174 420.54 35.0603 419.759 35.0373 418.821C34.9596 415.67 34.9449 412.518 34.9407 409.366C34.9407 408.457 34.1999 407.72 33.289 407.722C32.3907 407.722 31.6602 408.444 31.6455 409.342C31.5931 412.528 31.5595 415.719 31.6371 418.905ZM31.6371 418.905C31.6791 420.613 31.8134 422.334 32.1724 424.009C32.4389 425.252 32.8314 426.524 33.5534 427.583C33.8871 428.075 34.5546 428.203 35.0436 427.869C35.3794 427.638 35.5578 427.241 35.5053 426.841C35.1548 424.19 35.1023 421.488 35.0373 418.821C35.0163 417.881 34.2355 417.14 33.2952 417.163C32.3571 417.184 31.6161 417.965 31.6371 418.905ZM125.411 208.005C125.569 209.484 125.592 210.983 125.636 212.469C125.665 213.436 126.473 214.198 127.441 214.169C128.409 214.139 129.17 213.329 129.141 212.364V212.336C129.095 211.329 129.021 210.322 128.858 209.325C128.738 208.59 128.574 207.832 128.232 207.163C127.854 206.428 126.952 206.134 126.217 206.512C125.668 206.796 125.346 207.387 125.411 208.002M125.636 212.467C125.762 216.614 125.695 220.77 125.659 224.915C125.651 225.91 126.45 226.72 127.443 226.73C128.438 226.739 129.248 225.939 129.259 224.946V224.938C129.273 220.74 129.33 216.532 129.141 212.336C129.097 211.371 128.276 210.62 127.309 210.662C126.352 210.704 125.609 211.51 125.636 212.467ZM128.7 248.181C128.988 240.436 129.227 232.687 129.259 224.938C129.261 223.943 128.461 223.135 127.466 223.133C126.476 223.127 125.667 223.922 125.659 224.915C125.594 232.626 125.348 240.337 125.061 248.046C125.023 249.05 125.808 249.893 126.813 249.931C127.817 249.969 128.66 249.184 128.7 248.181ZM127.812 279.141C128.035 268.819 128.316 258.498 128.7 248.181C128.736 247.175 127.953 246.332 126.948 246.292C125.942 246.256 125.099 247.041 125.061 248.044C124.677 258.391 124.528 268.749 124.511 279.103C124.511 280.016 125.246 280.755 126.159 280.757C127.057 280.757 127.792 280.041 127.812 279.141ZM127.519 349.04C127.498 334.388 127.494 319.734 127.556 305.082C127.592 296.435 127.626 287.788 127.812 279.141C127.833 278.23 127.109 277.476 126.196 277.455C125.286 277.434 124.532 278.158 124.511 279.071V279.103C124.473 302.415 124.419 325.727 124.366 349.038C124.366 349.909 125.069 350.617 125.94 350.619C126.809 350.619 127.517 349.916 127.519 349.045V349.04ZM124.291 405.886C124.301 406.809 125.057 407.55 125.98 407.54C126.904 407.529 127.645 406.773 127.634 405.85C127.575 400.477 127.594 395.102 127.584 389.727C127.557 376.165 127.536 362.603 127.521 349.04C127.519 348.169 126.811 347.466 125.94 347.466C125.074 347.466 124.368 348.167 124.366 349.038C124.334 362.6 124.309 376.165 124.291 389.729C124.282 395.114 124.234 400.502 124.291 405.886ZM124.291 405.886C124.333 409.638 124.66 413.397 125.399 417.077C125.514 417.656 126.077 418.03 126.654 417.914C127.137 417.815 127.494 417.4 127.51 416.907C127.643 413.223 127.674 409.536 127.634 405.85C127.624 404.926 126.868 404.188 125.945 404.198C125.021 404.207 124.282 404.964 124.291 405.886ZM80.1058 76.0291C80.1226 76.7826 80.2737 77.5424 80.3975 78.2854C80.5129 78.9801 81.1699 79.4503 81.8667 79.3348C82.5551 79.2215 83.0232 78.5751 82.9204 77.8866C82.8658 77.5214 82.8154 77.152 82.8112 76.7847C82.8098 76.6965 82.8133 76.6084 82.8217 76.5203C82.83 76.4363 82.7923 76.5959 82.8322 76.4867C83.105 75.7563 82.7314 74.9483 82.0031 74.6775C81.2727 74.4068 80.4626 74.7803 80.1939 75.5086C80.131 75.6766 80.1016 75.85 80.1058 76.0291ZM80.0638 75.7815C80.0834 75.913 80.1016 76.0458 80.1184 76.1802C80.2191 76.9504 80.9264 77.494 81.6967 77.3933C82.1123 77.3387 82.4816 77.0995 82.7041 76.7469L82.9204 76.4049C83.3758 75.6787 83.1575 74.7194 82.4334 74.264C81.7072 73.8064 80.748 74.0247 80.2926 74.7509C80.0974 75.0573 80.0197 75.4225 80.0659 75.7793M80.0848 76.0312C80.1603 76.9106 80.9327 77.5633 81.8121 77.4857C82.6936 77.4101 83.3443 76.6357 83.2687 75.7563C83.2645 75.7087 83.2575 75.6597 83.2477 75.6093C83.1323 74.9587 82.8511 74.3584 82.169 74.1023C82.0262 74.0464 81.8765 74.0135 81.7198 74.0037C81.4784 73.9869 81.237 74.0268 81.0146 74.1213L80.1331 76.0606C80.3996 76.875 81.2769 77.3199 82.0913 77.0513C82.2816 76.9883 82.4523 76.8938 82.6034 76.7679L82.5698 76.791V76.7931C82.658 76.7246 82.737 76.6475 82.807 76.5622C82.7167 76.6713 82.7713 76.6 82.7188 76.6567C82.7496 76.6259 82.779 76.5958 82.807 76.5622C82.3557 77.1121 79.9777 74.5431 80.0575 75.6975L80.0638 75.7773L80.0848 76.0312ZM80.0848 76.0312L80.2695 78.1825C80.3493 79.1165 81.172 79.8092 82.106 79.7294C83.04 79.6496 83.7326 78.8269 83.6528 77.8929C83.6487 77.8397 83.6416 77.7879 83.6318 77.7375L83.2498 75.6114C83.0924 74.7425 82.2634 74.1632 81.3945 74.3206C80.5822 74.4675 80.0134 75.2084 80.0848 76.0312ZM80.2695 78.1825C80.4374 80.1639 80.4857 82.1577 80.5465 84.1432C80.5759 85.1297 81.4008 85.9063 82.3873 85.8769C83.3737 85.8455 84.1502 85.0226 84.1188 84.0341V84.0278C84.0474 81.9394 84.0033 79.8007 83.6318 77.7375C83.466 76.814 82.5824 76.2013 81.6589 76.3671C80.7984 76.5224 80.194 77.3094 80.2695 78.1825ZM80.5465 84.1432C80.6032 86.0322 80.6368 87.9316 80.7774 89.8164C80.8529 90.8049 81.7135 91.5458 82.7021 91.4724C83.6885 91.3989 84.4294 90.5405 84.3581 89.554C84.2237 87.7154 84.1817 85.8685 84.1188 84.0278C84.0852 83.0413 83.2582 82.269 82.2718 82.3026C81.2853 82.3383 80.5151 83.161 80.5465 84.1454M80.7774 89.8186C80.8403 90.6665 81.0607 91.5479 81.6127 92.2154C82.2214 92.9521 83.3632 93.3677 84.1901 92.715C84.5721 92.4127 84.719 91.8985 84.5553 91.441C84.5197 91.336 84.5008 91.1177 84.4861 90.9834C84.4315 90.5077 84.3888 90.0319 84.3581 89.5562C84.2846 88.5655 83.4262 87.8225 82.4376 87.896C81.449 87.9673 80.706 88.8278 80.7795 89.8164" fill="black"/>
<path d="M76.2522 84.2274C77.499 84.496 78.7918 84.5296 80.0617 84.4918C81.7617 84.4435 83.4596 84.2504 85.1408 84.0006C86.121 83.8579 86.7968 82.947 86.652 81.9669C86.5072 80.9888 85.5984 80.313 84.6182 80.4558L84.5825 80.462C83.0105 80.7265 81.4321 80.9636 79.8454 81.121C78.7813 81.2259 77.7046 81.3079 76.6342 81.2638C75.8051 81.2282 75.1062 81.8724 75.0706 82.6994C75.0412 83.4277 75.5386 84.0742 76.2522 84.2274ZM85.145 84.0006C86.8367 83.7488 88.5389 83.4592 90.1823 82.9702C90.7846 82.7897 91.3849 82.5819 91.9453 82.2985C92.3818 82.0782 92.8163 81.8053 93.1206 81.4171C93.5257 80.8986 93.4334 80.1493 92.915 79.7463C92.7219 79.5931 92.4847 79.5071 92.2391 79.4945C91.3261 79.4525 90.3921 79.5952 89.4917 79.7128C87.8504 79.9226 86.2176 80.1892 84.5847 80.462C83.6108 80.6258 82.9517 81.5492 83.1154 82.5251C83.2771 83.4885 84.1796 84.1455 85.145 84.0006ZM29.853 278.872C30.3148 279.05 30.7752 279.228 31.2341 279.407C31.8973 279.665 32.6424 279.336 32.9006 278.673C33.1525 278.026 32.846 277.296 32.208 277.023C31.7518 276.83 31.2971 276.635 30.8437 276.44C30.1784 276.152 29.406 276.456 29.1164 277.122C28.8267 277.787 29.1331 278.562 29.7985 278.851L29.853 278.872ZM29.0198 277.865C29.0576 278.083 29.15 278.289 29.2885 278.461C29.4396 278.65 29.639 278.794 29.8656 278.876C30.0755 278.956 30.3064 278.979 30.5289 278.944C30.7836 278.941 31.0389 278.944 31.295 278.954C32.0379 278.975 32.6571 278.387 32.6781 277.642C32.6991 276.899 32.1114 276.28 31.3663 276.259H31.2928C30.5205 276.28 29.5844 276.209 29.152 277.021C29.0261 277.258 28.9779 277.527 29.0093 277.793L29.0198 277.865ZM31.295 278.954L39.8813 279.185C40.7545 279.21 41.4827 278.522 41.5058 277.649C41.5289 276.775 40.8405 276.049 39.9674 276.024H39.8835L31.2928 276.261C30.5499 276.282 29.9643 276.899 29.9832 277.644C30.0042 278.358 30.5793 278.933 31.295 278.954ZM39.8813 279.185C45.4601 279.338 51.043 279.271 56.6218 279.088C57.6397 279.055 58.4373 278.2 58.4037 277.182C58.3701 276.165 57.5179 275.367 56.4979 275.399L56.4769 275.401C50.9465 275.655 45.416 275.873 39.8813 276.024C39.0082 276.049 38.3198 276.775 38.345 277.649C38.366 278.488 39.0418 279.162 39.8813 279.185ZM56.6218 279.088C62.6482 278.888 68.6747 278.676 74.7012 278.448C75.7506 278.406 76.5713 277.525 76.5314 276.473C76.4915 275.422 75.6079 274.603 74.5585 274.643C68.5278 274.872 62.4999 275.126 56.4748 275.403C55.4569 275.451 54.6698 276.314 54.716 277.332C54.7642 278.339 55.6122 279.122 56.6218 279.088ZM74.7012 278.448C80.1833 278.235 85.6662 278.063 91.1498 277.93C92.2034 277.907 93.0388 277.031 93.0136 275.978C92.9884 274.924 92.1153 274.091 91.0617 274.116H91.0596C85.5564 274.253 80.0553 274.428 74.5563 274.641C73.5069 274.683 72.6884 275.566 72.7261 276.618C72.7681 277.667 73.6496 278.486 74.7012 278.448ZM91.1498 277.93C95.6833 277.825 100.219 277.762 104.755 277.787C105.838 277.793 106.723 276.918 106.727 275.835C106.734 274.75 105.861 273.864 104.776 273.86H104.742C100.181 273.911 95.6204 274.003 91.0575 274.116C90.0059 274.141 89.1727 275.019 89.1979 276.07C89.2252 277.122 90.0983 277.955 91.1498 277.93ZM104.755 277.787C108.123 277.806 111.496 277.854 114.863 278.022C115.975 278.077 116.919 277.22 116.976 276.108C117.031 274.996 116.174 274.051 115.064 273.994C111.626 273.824 108.18 273.82 104.742 273.86C103.657 273.873 102.79 274.763 102.8 275.846C102.813 276.916 103.682 277.781 104.752 277.787M114.86 278.022C116.632 278.11 118.408 278.211 120.173 278.373C121.054 278.454 121.973 278.517 122.834 278.744C123.497 278.92 124.177 278.524 124.356 277.86C124.435 277.554 124.398 277.229 124.246 276.95C123.592 275.736 122.089 275.161 120.84 274.805C118.968 274.271 116.999 274.091 115.06 273.994C113.947 273.94 113.003 274.796 112.946 275.909C112.892 277.021 113.748 277.965 114.86 278.022ZM45.8736 286.516C49.2065 286.558 52.5415 286.476 55.8724 286.369C56.5126 286.348 57.0142 285.815 56.9953 285.173C56.9743 284.549 56.4643 284.054 55.841 284.052C52.5269 284.042 49.217 284.029 45.905 283.985C45.2061 283.977 44.6331 284.537 44.6247 285.236C44.6143 285.935 45.1746 286.508 45.8736 286.516ZM55.885 286.369C59.5076 286.22 63.1344 286.101 66.7591 285.983C67.3888 285.962 67.882 285.437 67.861 284.808C67.84 284.178 67.3153 283.685 66.6857 283.706H66.6584C63.061 283.911 59.4531 284.096 55.8494 284.052C55.2092 284.044 54.6845 284.556 54.6761 285.196C54.6677 285.838 55.1798 286.363 55.8221 286.371L55.885 286.369ZM66.7591 285.983C71.9601 285.815 77.1568 285.605 82.3535 285.374C83.0546 285.345 83.5961 284.753 83.5646 284.052C83.5331 283.355 82.9413 282.814 82.2424 282.843H82.2297C77.0386 283.123 71.8474 283.411 66.6563 283.706C66.0287 283.741 65.5481 284.281 65.5859 284.908C65.6195 285.528 66.1421 286.004 66.7613 285.983M82.3557 285.374C87.5503 285.143 92.7492 284.961 97.9459 284.871C98.6931 284.856 99.287 284.241 99.2745 283.496C99.2598 282.749 98.6448 282.155 97.8997 282.167H97.8829C92.6631 282.325 87.4454 282.564 82.2318 282.845C81.5329 282.883 80.9977 283.479 81.0355 284.178C81.0733 284.871 81.6631 285.406 82.3578 285.374M97.9522 284.871C105.206 284.728 112.459 284.694 119.715 284.745C120.219 284.749 120.628 284.346 120.632 283.842C120.634 283.37 120.275 282.973 119.805 282.929C112.522 282.258 105.199 281.964 97.8871 282.169C97.142 282.19 96.5543 282.812 96.5753 283.555C96.5963 284.298 97.2092 284.885 97.9522 284.871ZM42.9583 361.669C47.4708 361.816 51.9917 361.72 56.5042 361.6C57.2325 361.581 57.8076 360.975 57.7887 360.246C57.7677 359.518 57.1632 358.943 56.4349 358.962H56.4181C51.9644 359.136 47.4981 359.285 43.0401 359.14C42.3433 359.117 41.7577 359.665 41.7346 360.364C41.7115 361.063 42.2593 361.646 42.9583 361.669ZM56.5 361.6C60.769 361.504 65.0381 361.382 69.3071 361.252C70.1026 361.227 70.7281 360.563 70.7029 359.768C70.6777 358.97 70.0144 358.347 69.219 358.372H69.1917C64.9324 358.583 60.6725 358.78 56.4119 358.962C55.6836 358.993 55.1189 359.608 55.1504 360.337C55.1798 361.054 55.7801 361.617 56.5 361.6ZM69.3071 361.252C73.9393 361.111 78.5736 361.044 83.2099 361.078C84.0704 361.084 84.7735 360.391 84.7798 359.529C84.7861 358.668 84.0935 357.965 83.2309 357.959H83.2078C78.5337 357.999 73.8595 358.143 69.1917 358.372C68.3962 358.412 67.7855 359.086 67.8232 359.883C67.861 360.666 68.5201 361.277 69.3071 361.252ZM83.2099 361.078C90.3187 361.111 97.4001 362.175 104.307 363.806C104.872 363.938 105.437 363.59 105.569 363.027C105.695 362.503 105.397 361.968 104.887 361.793C97.9186 359.43 90.5915 357.915 83.212 357.959C82.3493 357.963 81.6546 358.666 81.6588 359.529C81.6651 360.383 82.3557 361.073 83.2099 361.078ZM61.554 265.689L62.1039 264.398C62.3768 263.756 62.0787 263.013 61.4365 262.738C60.7921 262.465 60.0491 262.764 59.7742 263.406L59.2243 264.697C58.9514 265.339 59.2495 266.082 59.8917 266.357C60.5361 266.632 61.2769 266.334 61.554 265.689ZM59.0606 264.888C59.0662 265.013 59.076 265.139 59.09 265.265C59.1529 265.769 59.4405 266.218 59.9421 266.399C60.0653 266.445 60.1912 266.47 60.3199 266.474C60.4542 266.48 60.585 266.466 60.7123 266.432C61.0901 266.327 61.4029 266.048 61.554 265.689C61.6547 265.458 61.6779 265.202 61.6317 264.955V264.879C61.6653 264.17 61.1132 263.567 60.4038 263.536C59.6944 263.507 59.0921 264.056 59.0606 264.766V264.888ZM58.8948 261.519L59.0627 264.888C59.0963 265.597 59.7007 266.145 60.4102 266.109C61.0734 266.075 61.6044 265.542 61.6338 264.879L61.7807 261.513C61.8163 260.715 61.1993 260.039 60.4018 260.006C59.6042 259.97 58.9304 260.587 58.8948 261.385V261.519ZM58.7353 255.336C58.7423 257.398 58.7954 259.459 58.8948 261.519C58.9346 262.316 59.6126 262.931 60.4102 262.892C61.1552 262.854 61.7492 262.258 61.7828 261.513C61.8723 259.467 61.943 257.42 61.9948 255.371C62.0179 254.469 61.3084 253.722 60.408 253.699C59.5055 253.676 58.7584 254.385 58.7353 255.285V255.336ZM58.7353 255.336C58.7395 256.236 59.472 256.962 60.3724 256.958C61.2539 256.954 61.9717 256.251 61.9948 255.371C62.062 252.823 62.2466 250.282 62.4691 247.744C62.553 246.785 61.8436 245.941 60.8845 245.857C59.9274 245.773 59.0837 246.483 58.9997 247.44L58.9955 247.488C58.8381 250.099 58.7227 252.718 58.7353 255.336ZM62.4691 247.744C62.7147 244.938 63.0945 242.142 63.6528 239.38C63.8543 238.392 63.2121 237.424 62.2235 237.225C61.2329 237.023 60.2674 237.665 60.0681 238.654L60.0617 238.679C59.5118 241.586 59.1739 244.535 58.9955 247.488C58.9388 248.447 59.6672 249.272 60.6284 249.331C61.5708 249.388 62.3851 248.684 62.4691 247.744ZM63.6528 239.38C64.1125 237.116 64.7002 234.861 65.5712 232.716C65.9553 231.768 65.4977 230.685 64.549 230.299C63.5983 229.912 62.5153 230.37 62.1291 231.321C61.1699 233.684 60.534 236.175 60.0617 238.679C59.8728 239.672 60.5277 240.629 61.5204 240.816C62.5048 241.003 63.4555 240.363 63.6528 239.382M65.5712 232.716C66.2071 231.151 66.9564 229.606 67.9639 228.24C68.5684 227.415 68.3921 226.254 67.5651 225.648C66.7424 225.043 65.5838 225.217 64.9772 226.04C63.7851 227.656 62.8826 229.467 62.1291 231.321C61.745 232.272 62.2026 233.357 63.1512 233.741C64.102 234.127 65.185 233.667 65.5712 232.716ZM67.9639 228.24C68.6523 227.301 69.4394 226.393 70.4048 225.727C71.2612 225.135 71.4752 223.96 70.8834 223.104C70.2915 222.245 69.1182 222.029 68.2598 222.621L68.2011 222.665C66.9502 223.603 65.9007 224.789 64.9772 226.04C64.3686 226.865 64.5428 228.025 65.3676 228.634C66.1904 229.243 67.3531 229.067 67.9597 228.244L67.9639 228.24ZM70.4048 225.727C70.9149 225.375 71.5194 225.024 72.1553 224.995C73.2215 224.946 74.0442 224.042 73.996 222.976C73.9477 221.909 73.0431 221.087 71.9769 221.135H71.9433C70.5665 221.223 69.2904 221.849 68.2011 222.665C67.3678 223.291 67.1978 224.472 67.8232 225.305C68.4319 226.116 69.5695 226.304 70.4048 225.727ZM72.1553 224.995C72.3967 224.984 72.6107 225.326 72.722 225.488C73.339 226.376 74.5585 226.596 75.4463 225.981C76.3341 225.364 76.5544 224.145 75.9395 223.257L75.9227 223.232C74.9929 221.937 73.5825 221.03 71.9433 221.135C70.8771 221.204 70.069 222.119 70.1383 223.186C70.2054 224.237 71.1038 225.043 72.1553 224.995ZM72.722 225.488C73.4755 226.571 73.8973 227.906 74.2751 229.155C74.5899 230.196 75.6897 230.785 76.7308 230.471C77.7739 230.156 78.3615 229.056 78.0467 228.015C77.5451 226.357 76.9385 224.651 75.9227 223.23C75.293 222.352 74.0694 222.151 73.19 222.78C72.3211 223.404 72.1133 224.609 72.722 225.488ZM74.2751 229.155C74.8964 231.209 75.3854 233.304 75.803 235.409C76.0171 236.476 77.054 237.168 78.1202 236.956C79.1885 236.744 79.8832 235.705 79.6691 234.639C79.2242 232.408 78.7037 230.189 78.0467 228.013C77.7319 226.972 76.6321 226.382 75.5911 226.697C74.548 227.012 73.9603 228.114 74.2751 229.155ZM75.803 235.407C76.29 237.85 76.6489 240.318 76.9049 242.797C77.0183 243.88 77.9859 244.665 79.0668 244.554C80.1477 244.441 80.9327 243.475 80.8214 242.394C80.5549 239.792 80.1791 237.202 79.667 234.637C79.4571 233.569 78.4182 232.876 77.352 233.088C76.2837 233.302 75.5911 234.339 75.803 235.407ZM76.9049 242.797C77.1883 245.528 77.3625 248.269 77.4549 251.014C77.4906 252.091 78.393 252.935 79.4697 252.897C80.5402 252.861 81.3839 251.967 81.3545 250.897C81.279 248.057 81.1111 245.217 80.8214 242.394C80.7102 241.311 79.7447 240.526 78.6638 240.637C77.5808 240.749 76.7958 241.714 76.9049 242.797ZM77.4549 251.014C77.5528 253.876 77.6123 256.738 77.6333 259.601C77.6417 260.66 78.5064 261.51 79.5642 261.504C80.6178 261.496 81.4678 260.639 81.4678 259.588C81.4706 256.691 81.4329 253.794 81.3545 250.897C81.3251 249.818 80.431 248.97 79.3522 248.997C78.2755 249.027 77.4255 249.921 77.4549 250.999V251.014ZM77.6333 259.601C77.6438 260.765 77.6627 261.941 77.8264 263.095C77.8872 263.532 77.9691 263.97 78.1286 264.382C78.4182 265.125 79.0479 265.735 79.8937 265.737C80.7962 265.737 81.5287 265.007 81.5308 264.105C81.5308 263.986 81.5175 263.868 81.491 263.752C81.5455 263.998 81.5036 263.723 81.4994 263.632C81.4896 263.36 81.4839 263.087 81.4825 262.816C81.4699 261.74 81.465 260.664 81.4678 259.588C81.4678 258.528 80.6115 257.67 79.5537 257.67C78.4938 257.67 77.6354 258.526 77.6333 259.584V259.601ZM79.5705 265.704C80.0427 265.8 80.5423 265.725 80.939 265.431C81.1447 265.276 81.3083 265.072 81.4154 264.837C81.6211 264.388 81.5854 263.882 81.3902 263.441C81.0229 262.617 80.0595 262.245 79.2347 262.61C78.4098 262.975 78.0383 263.941 78.4035 264.766C78.6176 265.249 79.0542 265.599 79.5705 265.704ZM90.1151 265.683C90.1906 266.203 90.4509 266.674 90.9273 266.955C91.4604 267.27 92.1279 267.259 92.6484 266.923H92.6505C92.98 266.713 93.2235 266.392 93.3368 266.017C93.4627 265.591 93.3977 265.114 93.3725 264.676C93.3319 263.986 93.2886 263.295 93.2424 262.604C93.192 261.806 92.4994 261.198 91.6997 261.25C90.9609 261.298 90.3774 261.895 90.3439 262.635C90.3124 263.364 90.2809 264.094 90.2221 264.82C90.1109 265.093 90.0731 265.391 90.1151 265.683ZM89.7667 263.395L90.1151 265.691C90.2536 266.59 91.091 267.207 91.9894 267.07C92.8688 266.936 93.4816 266.128 93.3746 265.244L93.0955 262.94C92.9842 262.016 92.1468 261.361 91.2254 261.473C90.3019 261.584 89.647 262.421 89.7604 263.343L89.7667 263.395ZM89.2818 259.007C89.3973 260.472 89.5442 261.939 89.7646 263.393C89.9052 264.31 90.7636 264.942 91.6787 264.801C92.577 264.665 93.2046 263.84 93.0955 262.94C92.9234 261.522 92.7596 260.106 92.6043 258.69C92.5015 257.775 91.6766 257.115 90.7594 257.216C89.8653 257.315 89.2105 258.108 89.2818 259.007ZM88.8579 253.266C88.9908 255.179 89.1321 257.092 89.2818 259.007C89.3532 259.924 90.1571 260.61 91.0764 260.539C91.9957 260.465 92.682 259.663 92.6085 258.744L92.6043 258.69C92.3944 256.809 92.2391 254.924 92.1006 253.037C92.0376 252.141 91.2611 251.468 90.3649 251.533C89.4687 251.596 88.7949 252.372 88.8579 253.266ZM88.5325 246.21C88.5913 248.563 88.6942 250.918 88.8579 253.266C88.9208 254.162 89.6974 254.838 90.5936 254.777C91.4898 254.714 92.1657 253.936 92.1027 253.04C91.9369 250.741 91.8382 248.437 91.7878 246.132C91.7669 245.234 91.0239 244.52 90.1256 244.541C89.2252 244.562 88.5137 245.305 88.5325 246.204V246.21ZM88.5325 246.21C88.5535 247.108 89.3029 247.82 90.2012 247.797C91.0974 247.776 91.8088 247.031 91.7878 246.132C91.7347 243.793 91.7487 241.454 91.8299 239.116C91.8592 238.209 91.1498 237.447 90.2431 237.416C89.3364 237.382 88.5745 238.092 88.5431 239V239.009C88.4731 241.408 88.4696 243.808 88.5325 246.208M91.8277 239.114C91.8907 237.3 92.0439 235.466 92.491 233.701C92.7156 232.813 92.1782 231.913 91.2904 231.686C90.4026 231.463 89.5022 232.001 89.2755 232.888V232.893C88.7781 234.887 88.6039 236.958 88.5409 239.007C88.5158 239.913 89.2294 240.671 90.1361 240.698C91.0386 240.726 91.7963 240.016 91.8277 239.114ZM92.491 233.701C92.8037 232.471 93.1857 231.241 93.7503 230.099C94.1595 229.274 93.8196 228.273 92.9947 227.866C92.1678 227.457 91.1687 227.795 90.7594 228.622L90.7553 228.63C90.0962 229.986 89.6386 231.434 89.2755 232.893C89.0531 233.783 89.5946 234.681 90.4824 234.903C91.3702 235.124 92.2664 234.586 92.491 233.701ZM93.7503 230.101C94.1637 229.266 94.6318 228.443 95.2069 227.709C95.7798 226.974 95.6476 225.912 94.9131 225.339C94.1785 224.766 93.1165 224.898 92.5456 225.633L92.5246 225.658C91.8319 226.582 91.259 227.595 90.7553 228.632C90.3523 229.461 90.6964 230.458 91.5255 230.863C92.3503 231.262 93.3431 230.926 93.7503 230.101ZM95.2069 227.709C95.6203 227.175 96.0947 226.684 96.6488 226.3C97.4275 225.759 97.6206 224.688 97.0791 223.91C96.5397 223.133 95.4693 222.938 94.6906 223.479L94.6507 223.507C93.8363 224.109 93.1311 224.85 92.5246 225.658C91.9663 226.405 92.1174 227.463 92.8646 228.021C93.5991 228.571 94.6402 228.433 95.2069 227.706M96.6488 226.3C97.0518 226.021 97.5051 225.82 97.9921 225.744C98.9429 225.595 99.5935 224.701 99.4444 223.75C99.2954 222.797 98.4013 222.147 97.4505 222.296L97.4148 222.302C96.4116 222.48 95.4692 222.904 94.6507 223.507C93.8867 224.069 93.7251 225.142 94.2876 225.906C94.8375 226.655 95.8848 226.831 96.6488 226.3ZM97.9921 225.744C98.3405 225.689 98.6742 225.817 98.9659 226C99.7887 226.512 100.874 226.26 101.386 225.436C101.898 224.613 101.646 223.53 100.821 223.016C99.8034 222.384 98.6028 222.092 97.4148 222.302C96.4662 222.47 95.8324 223.379 96.0024 224.327C96.1703 225.261 97.0518 225.891 97.99 225.744M98.9638 226C99.5557 226.367 99.9692 227.006 100.297 227.604C100.765 228.454 101.833 228.764 102.683 228.296C103.535 227.83 103.846 226.764 103.38 225.912C102.754 224.776 101.932 223.708 100.819 223.016C99.9964 222.503 98.9114 222.757 98.3993 223.582C97.8871 224.405 98.1411 225.488 98.9638 226ZM100.297 227.604C100.878 228.664 101.317 229.799 101.673 230.953C101.963 231.885 102.954 232.408 103.883 232.118C104.817 231.831 105.338 230.84 105.05 229.908L105.046 229.896C104.61 228.523 104.072 227.176 103.378 225.91C102.91 225.06 101.841 224.749 100.991 225.217C100.141 225.685 99.8307 226.754 100.299 227.604M101.673 230.953C102.27 232.878 102.706 234.857 103.13 236.826C103.34 237.8 104.297 238.419 105.271 238.209C106.245 237.999 106.862 237.042 106.654 236.068L106.648 236.047C106.175 233.982 105.689 231.913 105.048 229.898C104.752 228.966 103.76 228.452 102.83 228.748C101.904 229.041 101.39 230.028 101.675 230.951L101.673 230.953ZM103.13 236.826C103.544 238.751 103.959 240.675 104.337 242.606C104.532 243.599 105.491 244.247 106.486 244.054C107.479 243.859 108.125 242.896 107.932 241.903V241.897C107.542 239.939 107.093 237.995 106.648 236.047C106.425 235.078 105.46 234.471 104.49 234.691C103.529 234.912 102.922 235.863 103.13 236.826ZM104.337 242.606C104.572 243.808 104.76 245.016 104.901 246.231C105.017 247.238 105.93 247.962 106.937 247.847C107.945 247.729 108.669 246.819 108.553 245.811L108.551 245.805C108.396 244.495 108.189 243.193 107.93 241.897C107.733 240.906 106.769 240.26 105.777 240.459C104.788 240.656 104.144 241.615 104.337 242.606ZM104.901 246.231C105.043 247.476 105.14 248.728 105.193 249.982C105.235 250.997 106.094 251.787 107.109 251.742C108.123 251.7 108.912 250.84 108.87 249.826C108.814 248.482 108.708 247.141 108.551 245.805C108.432 244.797 107.519 244.077 106.511 244.197C105.504 244.315 104.784 245.223 104.901 246.231ZM105.193 249.982C105.249 251.323 105.288 252.665 105.309 254.007C105.323 255.01 106.148 255.812 107.151 255.795C108.138 255.781 108.935 254.979 108.942 253.99C108.95 252.604 108.926 251.216 108.87 249.826C108.828 248.81 107.968 248.021 106.954 248.065C105.938 248.107 105.149 248.968 105.191 249.982M105.307 254.001C105.34 256.889 105.5 259.779 105.668 262.663C105.703 263.271 106.228 263.739 106.839 263.704C107.345 263.674 107.766 263.303 107.861 262.803C108.411 259.907 108.927 256.943 108.94 253.986C108.942 252.983 108.132 252.166 107.128 252.162C106.125 252.158 105.309 252.968 105.307 253.971V254.001ZM63.9845 267.792C64.3434 267.647 64.7862 267.626 65.164 267.578C66.035 267.469 66.9103 267.396 67.7855 267.333C70.9779 267.095 74.1807 266.972 77.3814 266.858C77.8788 266.842 78.2671 266.424 78.2503 265.924C78.2335 265.452 77.8515 265.072 77.3793 265.058C74.1471 264.946 70.9107 264.85 67.6764 264.904C66.6878 264.921 65.695 264.946 64.7106 265.043C64.1314 265.099 63.5123 265.16 62.9729 265.4C62.318 265.694 62.0263 266.462 62.318 267.117C62.6034 267.752 63.338 268.05 63.9845 267.792Z" fill="black"/>
<path d="M93.4984 267.234C97.524 266.978 101.489 265.981 105.304 264.709C105.772 264.554 106.024 264.048 105.869 263.582C105.728 263.158 105.296 262.904 104.857 262.988C101.038 263.708 97.1861 264.314 93.3095 264.625C92.5896 264.684 92.0544 265.313 92.1132 266.033C92.1698 266.745 92.7848 267.28 93.4984 267.234ZM65.546 341.753C65.6027 344.15 65.7496 346.545 65.9175 348.935C65.9721 349.691 66.6269 350.258 67.3804 350.205C68.1087 350.153 68.6691 349.54 68.6523 348.81C68.5999 346.455 68.5642 344.098 68.604 341.743C68.6187 340.897 67.945 340.2 67.1013 340.188C66.2554 340.173 65.5586 340.845 65.5439 341.69L65.546 341.753ZM65.546 341.768C65.5733 342.612 66.2806 343.275 67.1264 343.246C67.9345 343.218 68.583 342.566 68.604 341.757C68.653 340.074 68.7167 338.392 68.795 336.712C68.837 335.824 68.1465 335.073 67.2587 335.033C66.3709 334.993 65.6195 335.681 65.5796 336.569V336.59C65.525 338.315 65.4872 340.043 65.546 341.768ZM68.795 336.712C68.8979 334.418 69.1896 332.134 69.5716 329.87C69.7227 328.978 69.1224 328.134 68.2304 327.981C67.3384 327.832 66.4926 328.432 66.3415 329.324V329.33C65.9427 331.731 65.653 334.156 65.5796 336.59C65.5502 337.478 66.2512 338.223 67.1369 338.25C68.0184 338.278 68.7573 337.591 68.795 336.712ZM69.5716 329.87C70.0124 327.278 70.5532 324.709 71.194 322.163C71.4165 321.271 70.875 320.368 69.9851 320.146C69.0951 319.921 68.1927 320.463 67.9702 321.353L67.966 321.367C67.328 324.002 66.7864 326.656 66.3415 329.33C66.1946 330.222 66.7969 331.066 67.6889 331.213C68.5809 331.36 69.4226 330.76 69.5716 329.87ZM71.194 322.163C71.7817 319.82 72.4911 317.505 73.402 315.27C73.7588 314.399 73.339 313.406 72.468 313.05C71.597 312.695 70.6042 313.112 70.2495 313.983L70.2411 314.004C69.3008 316.397 68.5684 318.87 67.966 321.367C67.7498 322.259 68.2997 323.157 69.1917 323.374C70.0774 323.588 70.9716 323.046 71.194 322.163ZM73.402 315.27C74.2276 313.24 75.179 311.27 76.2564 309.362C76.7329 308.522 76.4369 307.458 75.5974 306.982C74.7579 306.507 73.6916 306.803 73.2173 307.643L73.2068 307.664C72.0839 309.712 71.0954 311.834 70.2411 314.004C69.8969 314.882 70.3293 315.866 71.2024 316.21C72.0692 316.552 73.0494 316.133 73.402 315.27ZM76.2564 309.362C77.161 307.767 78.179 306.209 79.4257 304.856C80.0889 304.134 80.0407 303.009 79.3187 302.345C78.5946 301.68 77.4716 301.728 76.8063 302.45C76.8063 302.454 76.8042 302.457 76.8 302.459C75.3791 304.024 74.2184 305.815 73.2068 307.664C72.7429 308.51 73.0536 309.572 73.8994 310.036C74.7369 310.493 75.7884 310.195 76.2585 309.364M79.4278 304.858C80.1351 304.087 80.9662 303.242 81.9674 302.862C82.8993 302.509 83.3694 301.47 83.0168 300.538C82.6663 299.606 81.6253 299.138 80.6934 299.489L80.6577 299.503C79.1424 300.116 77.8872 301.267 76.8021 302.463C76.1431 303.187 76.1976 304.31 76.9238 304.971C77.6479 305.628 78.7646 305.578 79.4257 304.858M81.9653 302.862C82.6999 302.585 83.4701 302.379 84.253 302.327C85.2605 302.257 86.0161 301.39 85.9489 300.387C85.8817 299.384 85.0149 298.624 84.0095 298.691C82.8552 298.771 81.7239 299.073 80.6556 299.503C79.7321 299.877 79.2851 300.927 79.6586 301.85C80.0238 302.759 81.0502 303.208 81.9674 302.862M84.2572 302.327C84.9163 302.28 85.5732 302.406 86.1881 302.639C87.1347 302.996 88.1905 302.517 88.5473 301.571C88.9041 300.626 88.4255 299.571 87.481 299.214L87.4601 299.208C86.3582 298.805 85.1828 298.612 84.0095 298.691C83.0063 298.761 82.2486 299.632 82.3179 300.635C82.3871 301.636 83.254 302.394 84.2572 302.327ZM86.1881 302.639C86.971 302.933 87.6217 303.535 88.1716 304.146C88.8579 304.91 90.0311 304.971 90.7951 304.287C91.5549 303.6 91.6179 302.427 90.9315 301.663L90.9105 301.642C89.9451 300.605 88.8012 299.695 87.4601 299.208C86.5114 298.861 85.4599 299.35 85.1157 300.299C84.7714 301.243 85.25 302.284 86.1881 302.639ZM88.1716 304.146C89.179 305.267 89.8359 306.711 90.4047 308.088C90.8035 309.053 91.9096 309.511 92.8751 309.112C93.8405 308.713 94.2981 307.609 93.8993 306.644L93.8909 306.625C93.1374 304.853 92.2328 303.061 90.9105 301.64C90.2116 300.891 89.0363 300.849 88.287 301.548C87.5461 302.238 87.4957 303.395 88.1716 304.146ZM90.4047 308.088C91.2715 310.187 91.9096 312.376 92.4154 314.586C92.6526 315.621 93.6832 316.267 94.7179 316.032C95.7526 315.795 96.3969 314.764 96.1619 313.729L96.1598 313.717C95.5889 311.299 94.8648 308.911 93.893 306.625C93.4838 305.664 92.3735 305.219 91.4122 305.626C90.4572 306.031 90.008 307.129 90.4047 308.088ZM92.4154 314.586C92.9695 317.01 93.3557 319.474 93.5593 321.953C93.6475 323.023 94.5877 323.821 95.6602 323.735C96.7327 323.647 97.5324 322.706 97.4443 321.632L97.4421 321.619C97.205 318.958 96.7726 316.315 96.1598 313.717C95.9163 312.684 94.8795 312.044 93.849 312.29C92.8205 312.531 92.1804 313.557 92.4154 314.586ZM93.5593 321.953C93.7664 324.463 93.8993 326.979 93.9581 329.5C93.9853 330.585 94.8858 331.444 95.973 331.419C97.0581 331.391 97.9165 330.491 97.8913 329.406V329.402C97.8214 326.802 97.6716 324.208 97.4421 321.619C97.3456 320.549 96.4011 319.755 95.3286 319.852C94.2624 319.946 93.4712 320.884 93.5593 321.951M93.9581 329.5C94.0126 331.754 94.0525 334.011 94.0588 336.267C94.063 337.354 94.9488 338.233 96.036 338.229C97.1253 338.227 98.0047 337.341 98.0005 336.254C97.9942 333.967 97.9501 331.685 97.8913 329.402C97.862 328.316 96.9595 327.456 95.8743 327.485C94.7913 327.513 93.935 328.413 93.9602 329.498M97.8158 341.336C97.9816 339.648 98.0088 337.946 98.0046 336.254C97.9983 335.165 97.1147 334.286 96.0254 334.29C94.9382 334.292 94.0588 335.178 94.063 336.267C94.0672 337.851 94.0546 339.44 93.9581 341.025C93.8909 342.091 94.7011 343.01 95.7694 343.078C96.8083 343.141 97.7129 342.37 97.8158 341.336ZM93.8783 344.165C93.9203 345.183 94.7808 345.972 95.7967 345.93C96.7348 345.892 97.4925 345.153 97.5597 344.219C97.6268 343.254 97.7213 342.295 97.8158 341.333C97.9207 340.269 97.1441 339.323 96.0779 339.218C95.0138 339.113 94.0672 339.889 93.9623 340.956L93.9581 341.025C93.8951 342.068 93.8342 343.12 93.8783 344.165ZM93.8783 344.165C93.8972 344.624 93.9581 345.088 94.1134 345.523C94.3568 346.203 94.8837 346.807 95.6329 346.918C96.3004 347.019 96.9553 346.667 97.2407 346.058C97.501 345.502 97.5177 344.82 97.5597 344.219C97.631 343.204 96.8671 342.322 95.8512 342.249C94.8354 342.177 93.9539 342.941 93.8804 343.957C93.8762 344.027 93.8755 344.096 93.8783 344.165ZM95.1817 346.778C95.9205 347.143 96.888 346.916 97.2427 346.113C97.3141 345.949 97.3498 345.777 97.3729 345.602C97.4778 344.765 96.8881 344.001 96.0506 343.894C95.2153 343.789 94.4492 344.377 94.3422 345.216C94.2603 345.863 94.5982 346.49 95.1817 346.778Z" fill="black"/>
<path d="M71.2654 352.478C71.8468 352.483 72.3232 352.017 72.3274 351.433C72.3316 350.852 71.8636 350.375 71.2822 350.371H71.2486C70.6568 350.386 70.0565 350.392 69.4646 350.336H69.4667C69.1729 349.863 68.5537 349.718 68.0815 350.012C68.0059 350.061 67.9359 350.119 67.8716 350.187C67.4455 350.655 67.4119 351.37 67.8674 351.834C68.115 352.086 68.4488 352.212 68.7846 352.287C69.5884 352.472 70.4427 352.472 71.2654 352.478ZM71.2654 352.478C73.1775 352.493 75.0916 352.537 77.0016 352.636C77.6858 352.672 78.2672 352.147 78.3028 351.463C78.3385 350.778 77.8138 350.197 77.1296 350.161H76.9973C75.0832 350.266 73.1649 350.329 71.2486 350.371C70.6652 350.386 70.2076 350.867 70.2223 351.45C70.2328 352.017 70.6966 352.474 71.2654 352.478ZM77.0016 352.636C78.7856 352.728 80.5696 352.808 82.3536 352.875C83.1365 352.905 83.7976 352.292 83.8291 351.507C83.8585 350.72 83.2456 350.058 82.4586 350.029H82.4103C80.6053 350.019 78.8009 350.063 76.9973 350.161C76.3152 350.197 75.7906 350.783 75.8283 351.467C75.8619 352.099 76.3677 352.604 77.0016 352.636ZM82.3599 352.875C84.0369 352.93 85.7181 352.833 87.3888 352.693C89.6051 352.504 91.8152 352.216 94.0169 351.889C94.5437 351.809 94.9068 351.318 94.8291 350.791C94.7578 350.313 94.3464 349.962 93.8616 349.968C90.048 350.019 86.2323 350.065 82.4187 350.029C81.6316 350.021 80.9894 350.652 80.981 351.44C80.9747 352.212 81.5855 352.85 82.3599 352.875ZM78.6387 310.787C81.0188 310.77 83.4073 310.724 85.779 310.514C86.4758 310.451 86.99 309.836 86.927 309.139C86.864 308.447 86.2574 307.935 85.5648 307.989C83.2561 308.172 80.9348 308.22 78.6177 308.241C77.9145 308.247 77.3499 308.825 77.3583 309.526C77.3646 310.229 77.9377 310.791 78.6387 310.785M85.779 310.512C87.7239 310.339 89.6716 310.179 91.6221 310.034C92.0692 310 92.4071 309.61 92.3735 309.16C92.3441 308.797 92.0797 308.497 91.7229 308.424C89.7038 308.01 87.6238 307.823 85.5648 307.987C84.868 308.044 84.3475 308.653 84.4042 309.351C84.4588 310.048 85.0695 310.569 85.7663 310.512H85.779ZM71.9811 315.751C73.0306 316.164 74.1786 316.255 75.2931 316.16C75.9144 316.11 76.374 315.566 76.3215 314.945C76.2796 314.399 75.8493 313.967 75.3057 313.916C74.4892 313.841 73.6686 313.696 72.9046 313.396C72.254 313.14 71.5194 313.459 71.2654 314.11C71.0094 314.76 71.3284 315.495 71.979 315.751M75.291 316.16C76.7518 316.04 78.2168 315.984 79.6776 315.929C80.2359 315.91 80.6703 315.444 80.6514 314.888C80.6304 314.332 80.1645 313.898 79.6083 313.916H79.5936C78.1685 313.988 76.7266 314.049 75.3057 313.916C74.6844 313.86 74.1345 314.315 74.0779 314.934C74.0191 315.553 74.4767 316.103 75.0937 316.16C75.1609 316.167 75.2266 316.167 75.291 316.16ZM79.6818 315.929C83.9698 315.768 88.2493 315.247 92.5057 314.737C92.8877 314.691 93.1606 314.345 93.1144 313.965C93.0724 313.604 92.7576 313.335 92.3945 313.352C88.1275 313.532 83.8606 313.713 79.5957 313.919C79.0395 313.944 78.6093 314.416 78.6366 314.972C78.6638 315.524 79.1298 315.952 79.6818 315.931M67.8926 319.835C70.5287 319.799 73.1607 319.711 75.7947 319.594C76.4202 319.567 76.9071 319.036 76.8778 318.408C76.8505 317.782 76.3195 317.296 75.6919 317.325H75.6751C73.0725 317.484 70.47 317.598 67.8632 317.631C67.2545 317.64 66.7676 318.139 66.776 318.748C66.7844 319.357 67.286 319.844 67.8926 319.835ZM75.7947 319.594C78.1601 319.489 80.5255 319.392 82.893 319.342C83.5605 319.327 84.0915 318.773 84.0768 318.104C84.0621 317.436 83.5101 316.905 82.8385 316.92H82.8048C80.4269 317.042 78.051 317.182 75.6751 317.325C75.0475 317.363 74.5711 317.902 74.6089 318.528C74.6466 319.147 75.1755 319.621 75.7947 319.594ZM82.893 319.342C84.6463 319.3 86.4002 319.279 88.1548 319.279C88.8516 319.279 89.4163 318.712 89.4163 318.015C89.4163 317.319 88.8516 316.756 88.1548 316.756H88.1443C86.3645 316.769 84.5826 316.83 82.8048 316.92C82.1374 316.956 81.6232 317.524 81.6568 318.192C81.6904 318.847 82.2382 319.357 82.893 319.342ZM88.1569 319.279C90.1152 319.275 92.107 319.363 94.019 319.816C94.4619 319.921 94.9089 319.648 95.0139 319.203C95.0936 318.868 94.9551 318.515 94.6654 318.322C92.7702 317.067 90.3754 316.739 88.1464 316.754C87.4496 316.758 86.8871 317.329 86.8934 318.026C86.8976 318.719 87.4622 319.279 88.1569 319.279ZM67.796 326.696C68.1654 326.497 68.9084 326.486 69.3597 326.442C70.619 326.316 71.8846 326.262 73.1481 326.218C77.9041 326.05 82.6684 326.081 87.4265 326.121C87.819 326.125 88.1401 325.808 88.1422 325.418C88.1464 325.036 87.8484 324.721 87.4664 324.702C82.6894 324.465 77.9019 324.241 73.1166 324.228C71.725 324.224 70.3251 324.23 68.9399 324.337C68.2263 324.392 67.4014 324.429 66.7571 324.778C66.2282 325.065 66.0309 325.727 66.3163 326.258C66.606 326.787 67.2671 326.984 67.796 326.696ZM69.9347 332.12C71.4417 331.78 73.0053 331.679 74.5438 331.608C75.1105 331.582 75.547 331.104 75.5218 330.537C75.4967 329.981 75.0307 329.546 74.4724 329.559C72.8038 329.601 71.1059 329.689 69.4709 330.057C68.9042 330.187 68.5453 330.751 68.6733 331.32C68.8013 331.891 69.366 332.248 69.9369 332.118M74.548 331.606C76.1389 331.534 77.7383 331.58 79.3292 331.612C82.3075 331.671 85.2857 331.773 88.264 331.88C88.6418 331.895 88.9607 331.599 88.9733 331.221C88.988 330.856 88.7131 330.546 88.3521 330.512C85.3717 330.237 82.3935 329.971 79.411 329.765C77.7739 329.651 76.12 329.519 74.4767 329.559C73.91 329.572 73.4629 330.042 73.4755 330.606C73.4881 331.173 73.9583 331.62 74.5249 331.608L74.548 331.606ZM71.7293 339.285C76.9134 339.453 82.1039 339.432 87.2901 339.375C87.7267 339.369 88.075 339.012 88.0708 338.578C88.0667 338.173 87.756 337.837 87.351 337.801C82.1815 337.34 77.0015 336.924 71.8132 336.754C71.1143 336.733 70.5287 337.279 70.5056 337.98C70.4847 338.677 71.0304 339.262 71.7293 339.285ZM71.8069 346.094C75.7422 345.97 79.6881 345.903 83.6234 346.058C85.9426 346.148 88.3374 346.255 90.5979 346.822C90.9673 346.915 91.3409 346.69 91.4332 346.323C91.5172 345.991 91.343 345.649 91.0261 345.519C89.9997 345.099 88.9062 344.847 87.819 344.652C86.4673 344.408 85.101 344.262 83.7347 344.157C79.7469 343.85 75.7338 343.888 71.7418 344.012C71.1668 344.031 70.7155 344.511 70.7344 345.084C70.7512 345.659 71.2318 346.111 71.8048 346.092M73.8449 384.326L73.9876 383.692C73.9939 383.659 74.0422 383.46 74.0296 383.504C74.2332 382.733 73.7735 381.942 73.0033 381.739C72.233 381.535 71.4417 381.993 71.2381 382.765C71.2046 382.894 71.1884 383.026 71.1898 383.161L71.1877 383.355L71.1731 384.005C71.1584 384.752 71.7523 385.37 72.4995 385.384C73.1418 385.397 73.7043 384.954 73.8428 384.326M71.1898 383.344C71.2024 384.148 71.8657 384.79 72.6696 384.775C73.4734 384.763 74.1135 384.1 74.1009 383.296C74.1009 383.268 74.0996 383.24 74.0968 383.212C74.0674 382.824 73.9813 382.465 73.7043 382.16C73.5909 382.034 73.4594 381.932 73.3097 381.852C72.8605 381.615 72.3232 381.629 71.8867 381.894L71.3242 383.745C71.66 384.467 72.5205 384.78 73.2425 384.442C73.4692 384.337 73.6644 384.173 73.8092 383.968L73.7798 384.003L73.7819 384.005C73.8421 383.927 73.8932 383.843 73.9352 383.753C73.889 383.85 73.931 383.758 73.8911 383.835L73.9352 383.753C72.5394 386.698 71.1689 382.053 71.1898 383.344ZM71.1898 383.344L71.2444 386.673C71.2591 387.531 71.9643 388.213 72.8207 388.199C73.6791 388.184 74.3612 387.479 74.3465 386.622C74.3465 386.593 74.3451 386.564 74.3423 386.534L74.0968 383.212C74.038 382.41 73.3412 381.81 72.5373 381.869C71.767 381.925 71.1772 382.574 71.1898 383.344ZM71.2444 386.688C71.3787 391.937 71.6999 397.186 71.9958 402.429C72.0294 403.014 72.5331 403.464 73.1187 403.43C73.6644 403.399 74.0967 402.962 74.1219 402.416C74.2689 399.23 74.3927 396.042 74.4367 392.852C74.4682 390.753 74.4788 388.644 74.3445 386.547C74.2878 385.693 73.549 385.044 72.6947 385.099C71.8636 385.153 71.2255 385.854 71.2465 386.688H71.2444Z" fill="black"/>
<path d="M73.7232 382.479C74.3927 382.494 75.0665 382.37 75.7171 382.24C76.6973 382.043 77.6648 381.789 78.6261 381.522C79.388 381.312 79.835 380.521 79.6231 379.759C79.4132 378.997 78.6219 378.55 77.86 378.762L77.7698 378.792C76.8925 379.098 76.0089 379.394 75.1106 379.631C74.6635 379.751 74.1892 379.885 73.7253 379.896C73.0117 379.912 72.445 380.504 72.4618 381.218C72.4765 381.906 73.0327 382.464 73.7232 382.479ZM78.6261 381.522C80.4227 381.025 82.2424 380.559 84.0894 380.282C84.9604 380.147 85.5586 379.337 85.4264 378.464C85.2963 377.593 84.4819 376.995 83.613 377.127L83.55 377.138C81.5813 377.518 79.6588 378.126 77.7698 378.789C77.0226 379.05 76.6301 379.866 76.8904 380.615C77.1422 381.325 77.8978 381.724 78.6261 381.522ZM84.0894 380.282C85.2584 380.103 86.4653 380.049 87.6302 380.273C88.5411 380.448 89.4205 379.854 89.5947 378.943C89.771 378.034 89.1749 377.154 88.2661 376.978L88.2011 376.968C86.6563 376.733 85.0759 376.842 83.5479 377.138C82.6832 377.306 82.1186 378.141 82.2844 379.006C82.4481 379.845 83.2436 380.41 84.0894 380.282ZM87.6302 380.271C88.2934 380.397 88.7719 380.79 89.0679 381.392C89.4918 382.257 90.5371 382.614 91.4039 382.19C92.2686 381.763 92.6254 380.718 92.1994 379.852L92.1742 379.801C91.3556 378.269 89.9221 377.23 88.2011 376.968C87.2839 376.827 86.4296 377.455 86.2911 378.372C86.1547 379.262 86.7466 380.101 87.6302 380.271ZM89.0679 381.392C89.5758 382.427 89.7857 383.587 89.8444 384.729C89.899 385.739 90.7596 386.513 91.767 386.461C92.7765 386.408 93.551 385.548 93.4985 384.538L93.4922 384.454C93.3327 382.844 92.9381 381.239 92.1721 379.801C91.7208 378.951 90.663 378.63 89.813 379.083C88.9818 379.524 88.6523 380.546 89.0679 381.392ZM93.4628 389.586C93.6412 387.882 93.658 386.159 93.4922 384.454C93.3936 383.449 92.4974 382.714 91.492 382.815C90.5203 382.91 89.792 383.755 89.8465 384.731C89.9242 386.205 89.8613 387.686 89.6787 389.151C89.5506 390.195 90.2915 391.145 91.3346 391.276C92.3777 391.406 93.3285 390.665 93.4587 389.622L93.4628 389.586ZM92.9003 394.05C93.1249 392.566 93.3054 391.078 93.4628 389.586C93.572 388.539 92.8122 387.603 91.7691 387.493C90.7364 387.384 89.8067 388.123 89.6787 389.151C89.501 390.593 89.305 392.034 89.0909 393.475C88.9314 394.524 89.6556 395.509 90.7071 395.666C91.7586 395.826 92.7429 395.102 92.9003 394.05ZM89.1308 401.155C89.2085 401.839 89.8234 402.33 90.5056 402.252C91.0429 402.192 91.4795 401.793 91.5865 401.266C92.0734 398.869 92.5351 396.468 92.9003 394.05C93.0598 392.999 92.3358 392.014 91.2842 391.857C90.2306 391.697 89.2483 392.424 89.0909 393.475C88.7068 396.013 88.8454 398.617 89.1308 401.155ZM69.4982 407.052C72.522 407.006 75.5457 406.974 78.5695 406.956C79.4825 406.952 80.2171 406.211 80.2129 405.298C80.2087 404.387 79.4656 403.652 78.5547 403.657H78.4918C75.4485 403.791 72.4093 403.992 69.3723 404.213C68.5894 404.272 68.0018 404.952 68.0605 405.734C68.1151 406.486 68.7447 407.063 69.4982 407.052ZM78.5695 406.956C83.0925 406.935 87.6155 406.727 92.1343 406.547C92.7534 406.522 93.2341 406.001 93.2089 405.382C93.1879 404.815 92.7471 404.358 92.1805 404.311C89.4163 404.081 86.6479 403.871 83.8753 403.738C82.0829 403.652 80.2821 403.579 78.4897 403.659C77.5788 403.699 76.8736 404.469 76.9155 405.38C76.9533 406.265 77.6838 406.96 78.5695 406.956ZM69.3471 385.955C69.366 382.823 69.3051 379.69 69.2443 376.56C69.2296 375.813 68.6146 375.217 67.8654 375.234C67.1329 375.249 66.5452 375.843 66.541 376.575C66.5137 379.677 66.4864 382.784 66.3584 385.884C66.3248 386.708 66.9649 387.405 67.7898 387.439C68.6146 387.472 69.3114 386.832 69.3429 386.007L69.3471 385.955ZM66.8159 389.852C67.0174 390.377 67.6072 390.639 68.134 390.438C68.3859 390.339 68.5894 390.144 68.7007 389.899C69.2401 388.673 69.3492 387.265 69.3471 385.942C69.345 385.117 68.6755 384.45 67.8486 384.452C67.0531 384.452 66.3982 385.078 66.3584 385.871C66.2933 387.193 66.3353 388.604 66.8159 389.852Z" fill="black"/>
<path d="M66.7865 378.126C67.0006 378.846 67.7561 379.258 68.4739 379.044C68.7867 378.953 69.0533 378.752 69.2296 378.481C70.1111 378.397 70.7575 377.614 70.6735 376.735C70.5896 375.853 69.8067 375.207 68.9273 375.291C68.8573 375.298 68.7888 375.308 68.7216 375.322C68.113 375.461 67.5169 375.742 67.1223 376.242C66.7005 376.777 66.5976 377.48 66.7865 378.126ZM68.9987 378.485C70.1362 378.542 71.2822 378.292 72.3652 377.965C73.316 377.677 73.8512 376.676 73.5658 375.727C73.2783 374.777 72.2771 374.241 71.3263 374.527L71.2487 374.554C70.4196 374.848 69.5801 375.127 68.7216 375.322C67.8611 375.52 67.3196 376.378 67.5148 377.241C67.6743 377.942 68.2808 378.45 68.9987 378.485ZM72.3652 377.965L76.5587 376.705C77.5347 376.412 78.0909 375.383 77.797 374.405C77.5032 373.429 76.4748 372.877 75.4988 373.169L75.4862 373.173C74.0653 373.61 72.6486 374.059 71.2465 374.554C70.3126 374.884 69.8236 375.91 70.1552 376.846C70.4742 377.749 71.448 378.242 72.3652 377.965ZM76.5587 376.705C78.3952 376.153 80.2548 375.685 82.1249 375.261C83.1302 375.033 83.762 374.034 83.5332 373.028C83.3065 372.021 82.3054 371.391 81.3 371.62L81.2853 371.622C79.3376 372.08 77.4003 372.583 75.4862 373.173C74.5123 373.471 73.9666 374.504 74.2647 375.478C74.5627 376.447 75.587 376.997 76.5587 376.705ZM82.1249 375.259C84.0663 374.819 86.0203 374.42 87.9806 374.082C89.0049 373.906 89.6912 372.934 89.5149 371.909C89.3386 370.887 88.3669 370.201 87.3447 370.377C85.3109 370.728 83.2939 371.15 81.2853 371.62C80.2821 371.857 79.6587 372.86 79.8959 373.866C80.1289 374.863 81.1237 375.486 82.1249 375.259ZM87.9806 374.082C89.5841 373.805 91.194 373.565 92.8122 373.412C93.8427 373.316 94.6004 372.401 94.5017 371.37C94.4052 370.342 93.4943 369.586 92.468 369.681C90.7511 369.834 89.0427 370.084 87.3447 370.377C86.3205 370.554 85.6341 371.525 85.8125 372.548C85.9867 373.572 86.9585 374.258 87.9827 374.082M92.8143 373.412C93.9917 373.301 95.1713 373.202 96.3508 373.148C97.3583 373.104 98.1369 372.252 98.0928 371.244C98.0509 370.283 97.2659 369.519 96.3025 369.502C95.0222 369.481 93.742 369.565 92.4701 369.681C91.4416 369.773 90.6798 370.684 90.77 371.714C90.8645 372.745 91.7754 373.507 92.8059 373.414L92.8143 373.412ZM96.3508 373.148C96.5943 373.137 96.8483 373.139 97.0854 373.202C97.1421 373.217 97.2176 373.234 97.2617 373.274C97.9921 373.922 99.1087 373.855 99.7552 373.127C100.389 372.413 100.343 371.322 99.6439 370.667C98.7456 369.823 97.5052 369.523 96.3025 369.502C95.2951 369.485 94.4639 370.287 94.4472 371.295C94.4283 372.302 95.2321 373.133 96.2396 373.15L96.3508 373.148ZM97.2617 373.274C97.5513 373.53 97.6689 373.983 97.7529 374.342C97.9711 375.278 98.9093 375.86 99.8475 375.639C100.775 375.423 101.357 374.5 101.151 373.568C100.914 372.491 100.458 371.433 99.6439 370.667C98.9345 370 97.8179 370.033 97.1484 370.745C96.481 371.454 96.5145 372.571 97.226 373.24L97.2617 373.274ZM97.7529 374.342C97.8725 374.85 97.9208 375.375 97.9628 375.895C98.032 376.773 98.0614 377.654 98.0761 378.536C98.0929 379.501 98.8883 380.271 99.8538 380.257C100.819 380.24 101.59 379.442 101.575 378.477V378.46C101.531 376.838 101.501 375.159 101.151 373.568C100.943 372.625 100.013 372.033 99.073 372.241C98.1348 372.449 97.5409 373.379 97.7466 374.319L97.7529 374.342ZM98.0761 378.536C98.1012 380.041 98.1118 381.552 98.2251 383.052C98.2986 384.024 99.1465 384.752 100.118 384.679C101.09 384.606 101.818 383.76 101.745 382.788C101.636 381.348 101.613 379.902 101.573 378.46C101.548 377.495 100.744 376.733 99.7782 376.758C98.8191 376.783 98.0593 377.576 98.0761 378.536ZM98.2251 383.052C98.351 384.717 99.285 386.243 100.761 387.04C101.308 387.334 101.993 387.132 102.288 386.585C102.442 386.301 102.467 385.965 102.356 385.661C102.016 384.738 101.818 383.768 101.745 382.786C101.671 381.814 100.823 381.086 99.8517 381.159C98.8799 381.233 98.1516 382.081 98.2251 383.052ZM81.8898 121.719C81.9758 122.584 81.9821 123.455 81.9443 124.321C81.9128 125.02 82.4544 125.61 83.1533 125.642C83.8522 125.671 84.442 125.132 84.4735 124.433C84.5154 123.436 84.5007 122.435 84.3811 121.444C84.2993 120.758 83.6759 120.269 82.9875 120.348C82.3095 120.432 81.8226 121.041 81.8898 121.719ZM81.8037 120.812L81.8877 121.715C81.9549 122.401 82.5677 122.907 83.2561 122.842C83.9445 122.777 84.4525 122.164 84.3853 121.475L84.3811 121.44L84.2699 120.541C84.1859 119.861 83.5647 119.379 82.8847 119.465C82.2193 119.547 81.7408 120.145 81.8037 120.812ZM83.168 121.929C83.8501 121.857 84.3433 121.247 84.272 120.565C84.251 120.38 84.1936 120.209 84.0999 120.052C83.9844 119.863 83.7704 119.677 83.6067 119.591C82.998 119.276 82.2487 119.513 81.9318 120.122C81.6148 120.73 81.852 121.48 82.4606 121.796C82.6006 121.869 82.7489 121.914 82.9056 121.931L83.168 121.929ZM84.3265 121.513L84.2741 120.619C84.2321 119.935 83.6444 119.412 82.9581 119.454C82.3284 119.492 81.831 119.992 81.7932 120.619C81.7736 120.917 81.7554 121.214 81.7387 121.511C81.6946 122.225 82.2382 122.842 82.9539 122.886C83.6675 122.928 84.2825 122.384 84.3265 121.668C84.3307 121.617 84.3307 121.565 84.3265 121.513ZM82.3641 127.195C82.4754 127.963 83.189 128.496 83.9593 128.385C84.7274 128.271 85.2605 127.558 85.1472 126.79C85.1472 126.776 85.1451 126.764 85.1409 126.754C84.9324 125.558 84.7344 124.358 84.5469 123.157C84.463 122.613 84.358 122.063 84.3265 121.513C84.2846 120.8 83.6696 120.254 82.9539 120.296C82.2991 120.336 81.7785 120.856 81.7365 121.513C81.6967 122.176 81.7975 122.856 81.8709 123.515C82.0115 124.745 82.1857 125.971 82.3641 127.195ZM82.3641 127.195C82.9896 131.487 83.7914 135.758 84.6036 140.017C84.7547 140.812 85.5208 141.333 86.3162 141.181C87.1117 141.03 87.6322 140.262 87.4811 139.467C86.673 135.235 85.8713 131 85.1409 126.754C85.0108 125.988 84.2825 125.474 83.5164 125.606C82.765 125.734 82.2529 126.439 82.362 127.195M84.5994 140.017C85.546 144.98 86.5366 149.938 87.6091 154.876C87.777 155.645 88.5327 156.131 89.2987 155.964C90.0585 155.8 90.5454 155.055 90.3901 154.293C89.3869 149.359 88.4256 144.416 87.4811 139.467C87.33 138.673 86.5597 138.151 85.7664 138.302C84.9688 138.455 84.4483 139.221 84.5994 140.017ZM87.6091 154.876C88.3773 158.413 89.1287 161.954 89.7877 165.511C89.9346 166.309 90.7007 166.833 91.4983 166.687C92.2958 166.54 92.8205 165.774 92.6736 164.976L92.659 164.913C91.8446 161.387 91.11 157.84 90.3901 154.293C90.2327 153.525 89.4834 153.027 88.7152 153.185C87.945 153.34 87.4496 154.089 87.605 154.86L87.6091 154.876ZM89.7877 165.511C90.2012 167.736 90.6252 169.961 91.1079 172.169C91.2905 173.008 92.1217 173.541 92.9612 173.359C93.8008 173.174 94.3338 172.345 94.1512 171.506C93.6685 169.304 93.1648 167.108 92.6611 164.915C92.4764 164.124 91.6893 163.633 90.9002 163.815C90.1362 163.992 89.645 164.739 89.7877 165.511ZM91.1079 172.169C91.4312 173.646 91.7901 175.124 92.2833 176.555C92.554 177.349 93.4167 177.773 94.21 177.5C94.9803 177.235 95.4064 176.413 95.1755 175.632C94.7746 174.274 94.4535 172.889 94.1512 171.506C93.9665 170.666 93.1375 170.133 92.2958 170.315C91.4563 170.5 90.9253 171.329 91.1079 172.169ZM92.277 176.543C92.5624 177.399 92.9108 178.243 93.3893 179.009C93.765 179.607 94.2373 180.199 94.8627 180.552C95.2972 180.795 95.8492 180.64 96.0948 180.205C96.1934 180.027 96.2312 179.823 96.1997 179.622C95.9856 178.266 95.57 176.933 95.1713 175.621C94.9278 174.82 94.0799 174.366 93.2781 174.61C92.4743 174.853 92.0209 175.701 92.2644 176.503L92.277 176.543Z" fill="black"/>
</svg>
