<svg width="158" height="453" viewBox="0 0 158 453" fill="none" xmlns="http://www.w3.org/2000/svg">
<path d="M40.5038 85.481C40.5415 85.0612 40.6549 84.6079 41.0704 84.419C41.7064 84.1314 41.9897 83.3822 41.7001 82.7462C41.4146 82.1082 40.6654 81.8248 40.0273 82.1124C38.7554 82.6874 38.1111 83.9446 38.0334 85.2942C37.9914 85.9784 38.512 86.5639 39.1962 86.6038C39.8636 86.6458 40.4429 86.1462 40.5038 85.4788M38.153 89.1204C38.2223 89.8172 38.8457 90.323 39.5404 90.2537C40.2372 90.1823 40.7451 89.5611 40.6738 88.8643L40.6654 88.7992C40.4975 87.7036 40.403 86.5849 40.5038 85.4788C40.5667 84.7988 40.063 84.1923 39.383 84.1293C38.7008 84.0664 38.0964 84.57 38.0355 85.2522L38.0313 85.292C37.9557 86.5681 38.025 87.8506 38.153 89.1204ZM38.153 89.1204C38.3734 91.299 38.5224 93.486 38.6799 95.6688C38.7344 96.4348 39.3997 97.0121 40.1658 96.9575C40.9298 96.9029 41.507 96.2375 41.4524 95.4715L41.4482 95.4295C41.2216 93.2173 41.0012 90.9968 40.6633 88.7972C40.5583 88.1067 39.9077 87.6322 39.2172 87.7393C38.5518 87.8421 38.0817 88.4487 38.1488 89.1204M38.6777 95.6688C38.9653 99.709 39.1437 103.758 39.3074 107.804C39.3389 108.64 40.0441 109.292 40.8815 109.259C41.7211 109.225 42.3717 108.518 42.3381 107.683L42.3361 107.659C42.1115 103.579 41.8617 99.4949 41.4461 95.4295C41.3685 94.6655 40.6863 94.1093 39.9224 94.187C39.1752 94.2646 38.6232 94.9216 38.6777 95.6688ZM39.3074 107.804C39.5467 113.813 39.7146 119.826 39.8552 125.84C39.8762 126.717 40.6045 127.412 41.4818 127.391C42.3591 127.37 43.0518 126.641 43.0329 125.766V125.762C42.8734 119.724 42.6698 113.687 42.3361 107.659C42.2899 106.822 41.5742 106.182 40.7367 106.228C39.9098 106.274 39.2717 106.975 39.3053 107.802M39.8531 125.837C40.0378 133.704 40.1386 141.573 40.1994 149.441C40.2078 150.327 40.9298 151.036 41.8155 151.032C42.6971 151.024 43.4106 150.302 43.4043 149.416C43.3414 141.531 43.2365 133.643 43.0287 125.76C43.0077 124.883 42.2773 124.19 41.4 124.213C40.5248 124.234 39.8342 124.962 39.8531 125.837ZM43.2197 178.634C43.3939 168.895 43.4778 159.157 43.4043 149.418C43.3959 148.532 42.674 147.821 41.7883 147.827C40.9046 147.833 40.1931 148.555 40.1994 149.441C40.275 159.157 40.2477 168.876 40.1637 178.592C40.1574 179.436 40.8354 180.126 41.6791 180.135C42.5186 180.141 43.205 179.471 43.2197 178.634ZM42.5061 211.897C42.7817 200.809 43.0196 189.721 43.2197 178.634C43.2343 177.788 42.5627 177.093 41.719 177.077C40.8752 177.062 40.1805 177.734 40.1658 178.579L40.1637 178.592C40.0658 189.678 39.9525 200.763 39.8195 211.846C39.8111 212.587 40.4051 213.196 41.146 213.204C41.8806 213.215 42.4872 212.631 42.5061 211.897ZM41.7148 247.153C41.9485 235.399 42.2108 223.647 42.5019 211.897C42.5207 211.156 41.9352 210.539 41.1943 210.52C40.4534 210.503 39.8363 211.086 39.8174 211.829V211.846C39.6775 223.604 39.5635 235.363 39.4753 247.124C39.4711 247.741 39.9685 248.246 40.5877 248.251C41.1985 248.255 41.7022 247.768 41.7148 247.153ZM41.2237 283.564C41.3118 271.425 41.4755 259.288 41.7148 247.153C41.7274 246.534 41.2363 246.024 40.6171 246.011C39.9979 245.998 39.4879 246.49 39.4753 247.109V247.121C39.383 259.265 39.3151 271.409 39.2717 283.553C39.2696 284.093 39.7041 284.531 40.2435 284.533C40.7829 284.533 41.2195 284.101 41.2237 283.564ZM41.4273 342.778C41.2636 323.041 41.081 303.299 41.2237 283.564C41.2279 283.024 40.7934 282.584 40.254 282.579C39.7146 282.577 39.2759 283.01 39.2717 283.549V283.553C39.1983 303.295 39.0178 323.037 38.8436 342.776C38.8373 343.49 39.4103 344.073 40.1239 344.08C40.8375 344.086 41.421 343.513 41.4273 342.799V342.778ZM39.1983 426.046C39.2402 426.65 39.7629 427.106 40.3652 427.064C40.9256 427.026 41.3643 426.57 41.3853 426.01C41.4986 422.786 41.507 419.556 41.5322 416.332C41.57 410.869 41.5784 405.408 41.5826 399.945C41.5909 380.891 41.5133 361.836 41.4273 342.783C41.4252 342.069 40.8438 341.494 40.1302 341.496C39.4207 341.5 38.8478 342.073 38.8436 342.783C38.747 361.838 38.6673 380.893 38.747 399.951C38.7722 405.763 38.8079 411.574 38.9128 417.386C38.9653 420.272 38.9989 423.164 39.1983 426.046ZM74.4547 174.64C74.568 174.797 74.6016 175.072 74.6519 175.253C74.8366 175.926 75.5335 176.323 76.2072 176.138C76.883 175.954 77.2776 175.257 77.095 174.585C76.9124 173.924 76.6543 173.167 76.0036 172.833C75.4013 172.526 74.6646 172.763 74.356 173.366C74.1461 173.775 74.1839 174.268 74.4547 174.642M76.5766 174.852C76.5654 174.715 76.557 174.578 76.5514 174.443C76.839 173.83 76.5745 173.101 75.9637 172.816L75.9176 172.795C75.7469 172.725 75.5677 172.693 75.3802 172.698C75.3061 172.701 75.2326 172.711 75.1599 172.728C75.0899 172.742 75.02 172.764 74.95 172.795C74.1273 173.141 74.1 174.088 74.0349 174.848C73.9719 175.549 74.4945 176.168 75.1956 176.227C75.8987 176.288 76.5178 175.767 76.5766 175.066C76.5822 174.995 76.5822 174.922 76.5766 174.852ZM74.037 177.314C74.1042 178.095 74.7926 178.672 75.5754 178.602C76.3562 178.533 76.9334 177.845 76.8641 177.064L76.8473 176.938C76.7214 176.248 76.6312 175.551 76.5766 174.852C76.5199 174.151 75.905 173.63 75.2019 173.687C74.5806 173.737 74.0874 174.229 74.0349 174.85C73.9635 175.671 73.9656 176.492 74.037 177.314ZM74.037 177.314L74.1377 178.489C74.2091 179.297 74.9248 179.895 75.7328 179.824C76.5451 179.751 77.1433 179.037 77.0698 178.227C77.067 178.182 77.0614 178.139 77.0531 178.097L76.8432 176.938C76.7067 176.166 75.9679 175.654 75.1956 175.792C74.4736 175.922 73.9677 176.583 74.0328 177.314H74.037ZM74.1377 178.489C74.1629 178.762 74.2574 179.029 74.4232 179.253C74.5827 179.469 74.7968 179.637 75.0423 179.738C75.3824 179.881 75.7643 179.889 76.1127 179.763C76.7865 179.52 77.0908 178.905 77.0887 178.252C77.0824 177.438 76.4171 176.783 75.6048 176.787C74.7968 176.791 74.1441 177.442 74.1357 178.248C74.1301 178.327 74.1307 178.409 74.1377 178.489ZM74.1126 175.555L74.1377 178.273C74.144 179.087 74.8094 179.742 75.6258 179.736C76.4381 179.728 77.0929 179.064 77.0887 178.252L77.0719 175.534C77.0677 174.715 76.4003 174.059 75.5818 174.063C74.7674 174.067 74.1084 174.734 74.1126 175.551V175.555ZM73.6382 164.989C73.8355 168.505 74.0811 172.033 74.1126 175.555C74.121 176.374 74.7884 177.028 75.6048 177.022C76.4213 177.014 77.0761 176.35 77.0719 175.532C77.0509 171.964 76.7991 168.385 76.5997 164.824C76.5535 164.005 75.8525 163.38 75.0361 163.426C74.2175 163.472 73.5921 164.171 73.6382 164.989ZM72.975 152.497C73.1702 156.663 73.4032 160.827 73.6382 164.989C73.6844 165.808 74.3833 166.433 75.2019 166.387C76.0204 166.341 76.6459 165.64 76.5997 164.824C76.3667 160.668 76.1337 156.512 75.928 152.356C75.8882 151.54 75.1935 150.912 74.3791 150.95C73.5648 150.992 72.9372 151.685 72.9729 152.499M72.5531 144.549C72.7098 147.198 72.8498 149.848 72.9729 152.499C73.0107 153.318 73.7033 153.947 74.5197 153.907C75.3362 153.87 75.9658 153.177 75.926 152.361C75.7958 149.689 75.6363 147.017 75.4285 144.349C75.3656 143.556 74.6729 142.964 73.8796 143.027C73.0967 143.088 72.5069 143.764 72.5531 144.549ZM72.0557 137.837C72.2558 140.07 72.4216 142.307 72.5531 144.549C72.6014 145.342 73.2835 145.947 74.0769 145.9C74.8724 145.852 75.4768 145.17 75.4306 144.377L75.4285 144.349C75.2508 142.091 75.0577 139.834 74.8493 137.579C74.7758 136.806 74.0937 136.239 73.3213 136.311C72.551 136.384 71.9843 137.066 72.0557 137.837ZM71.5352 131.853C71.6989 133.847 71.8724 135.841 72.0557 137.834C72.1249 138.607 72.8071 139.176 73.5795 139.106C74.3518 139.035 74.9185 138.351 74.8493 137.579C74.6632 135.6 74.4966 133.619 74.3497 131.635C74.293 130.858 73.6172 130.27 72.8385 130.329C72.062 130.386 71.4785 131.064 71.5352 131.84V131.853ZM71.235 125.372C71.277 127.533 71.361 129.695 71.5352 131.853C71.5981 132.629 72.2803 133.207 73.0568 133.144C73.8292 133.081 74.4064 132.409 74.3497 131.635C74.1986 129.542 74.1441 127.439 74.1357 125.338C74.1336 124.538 73.4808 123.89 72.6791 123.894C71.8794 123.896 71.2308 124.549 71.235 125.351V125.372ZM71.1511 118.256C71.1609 120.628 71.1889 123 71.235 125.372C71.2497 126.173 71.9109 126.811 72.7126 126.797C73.506 126.78 74.1399 126.129 74.1357 125.338C74.1273 122.975 74.1258 120.615 74.1314 118.254C74.1335 117.43 73.4682 116.76 72.6433 116.76C71.8206 116.758 71.1532 117.423 71.149 118.246L71.1511 118.256ZM71.1511 118.256C71.1532 119.081 71.8227 119.747 72.6476 119.74C73.4661 119.738 74.1293 119.073 74.1314 118.254C74.1356 116.334 74.1608 114.411 74.27 112.493C74.3182 111.647 73.6718 110.925 72.8281 110.877C71.9822 110.829 71.2581 111.475 71.212 112.321L71.2098 112.357C71.1469 114.323 71.1427 116.29 71.1511 118.256ZM74.2679 112.493C74.3392 111.251 74.4148 110.008 74.5449 108.77C74.6331 107.903 74.0034 107.128 73.1366 107.038C72.2698 106.948 71.4932 107.58 71.405 108.447L71.4008 108.486C71.3001 109.775 71.2518 111.066 71.2098 112.357C71.1826 113.202 71.8437 113.91 72.6895 113.937C73.5207 113.964 74.2217 113.324 74.2679 112.493ZM74.5449 108.77C74.6121 108.111 74.6814 107.439 74.8367 106.793C75.0466 105.924 74.5092 105.051 73.6403 104.841C72.7714 104.631 71.8983 105.168 71.6884 106.037L71.6716 106.125C71.5289 106.904 71.4617 107.699 71.4008 108.486C71.3337 109.355 71.9843 110.115 72.8532 110.182C73.7054 110.249 74.4568 109.622 74.5449 108.77ZM74.8367 106.793C74.9346 106.388 75.0619 105.994 75.2186 105.609C75.5692 104.761 75.1662 103.791 74.3182 103.441C73.4703 103.09 72.5007 103.493 72.1502 104.341L72.1166 104.429C71.9235 104.983 71.7751 105.549 71.6716 106.125C71.51 107.005 72.0935 107.846 72.9729 108.008C73.8166 108.161 74.6352 107.628 74.8367 106.793ZM75.2186 105.609C75.3949 105.181 75.6363 104.78 75.8903 104.396C76.415 103.611 76.2051 102.549 75.418 102.024C74.6331 101.501 73.571 101.713 73.0463 102.498L72.996 102.582C72.6497 103.17 72.3411 103.783 72.1144 104.429C71.8143 105.294 72.2719 106.241 73.1387 106.543C73.9698 106.832 74.8828 106.423 75.2186 105.609ZM75.8903 104.396C76.1254 104.045 76.4066 103.724 76.7424 103.466C77.5064 102.882 77.6533 101.787 77.0698 101.023C76.4864 100.257 75.3908 100.11 74.6268 100.695L74.61 100.708C73.9552 101.22 73.4136 101.867 72.9939 102.582C72.5174 103.397 72.7903 104.444 73.6025 104.923C74.3854 105.38 75.3887 105.151 75.8903 104.398M76.7424 103.468C76.9922 103.279 77.2776 103.145 77.5862 103.082C78.5306 102.885 79.1393 101.959 78.942 101.012C78.7447 100.068 77.8191 99.4592 76.8746 99.6565C76.0498 99.8286 75.2732 100.192 74.6079 100.71C73.8523 101.304 73.718 102.4 74.312 103.157C74.8996 103.909 75.9826 104.047 76.7424 103.468ZM77.5862 103.082C77.7939 103.038 78.0101 103.124 78.1927 103.216C79.047 103.657 80.0984 103.321 80.5413 102.467C80.98 101.617 80.6505 100.572 79.8067 100.125C78.9063 99.6502 77.8758 99.4487 76.8746 99.6565C75.9302 99.8538 75.3215 100.779 75.5167 101.724C75.714 102.668 76.6396 103.277 77.5862 103.082ZM78.1927 103.216C78.2977 103.271 78.4068 103.439 78.4782 103.539C78.7258 103.892 78.9105 104.291 79.0742 104.69C79.4415 105.571 80.4532 105.991 81.3347 105.624C82.2141 105.26 82.6339 104.257 82.2771 103.378C81.7692 102.123 81.0492 100.782 79.8046 100.125C78.9546 99.6754 77.8989 100.001 77.4497 100.853C77.0006 101.705 77.3238 102.759 78.1759 103.21C78.1815 103.21 78.1871 103.212 78.1927 103.216ZM79.0742 104.69C79.6829 106.157 80.0754 107.716 80.4112 109.265C80.6106 110.186 81.5194 110.77 82.4408 110.57C83.3538 110.373 83.9393 109.475 83.7483 108.558C83.3873 106.803 82.9508 105.044 82.2771 103.378C81.9182 102.494 80.9086 102.064 80.0229 102.423C79.1372 102.78 78.7111 103.789 79.07 104.675L79.0742 104.69ZM80.4112 109.265C80.8666 111.366 81.236 113.486 81.5488 115.614C81.6831 116.533 82.5352 117.167 83.4545 117.033C84.3696 116.899 85.0035 116.053 84.8754 115.135C84.5648 112.932 84.1996 110.738 83.7483 108.558C83.5594 107.634 82.657 107.042 81.7335 107.233C80.81 107.422 80.216 108.325 80.407 109.248L80.4112 109.265ZM81.5488 115.614C81.9308 118.221 82.2141 120.84 82.4513 123.464C82.531 124.37 83.3307 125.038 84.2353 124.954C85.1315 124.874 85.7968 124.087 85.7255 123.191C85.5156 120.498 85.2511 117.809 84.8754 115.135C84.7453 114.216 83.8953 113.576 82.976 113.708C82.0588 113.834 81.4165 114.686 81.5488 115.606V115.614ZM82.4513 123.464C82.7409 126.717 83.0074 129.971 83.2509 133.225C83.3181 134.111 84.0905 134.774 84.9762 134.707C85.8598 134.642 86.523 133.872 86.4601 132.988C86.225 129.721 85.9801 126.455 85.7255 123.191C85.6541 122.284 84.8649 121.608 83.9582 121.68C83.0536 121.751 82.3778 122.54 82.4471 123.447L82.4513 123.464ZM83.2509 133.225C83.5266 136.884 83.74 140.546 83.8911 144.209C83.9289 145.069 84.6551 145.739 85.5156 145.703C86.3677 145.665 87.033 144.952 87.0079 144.1C86.9043 140.392 86.7217 136.688 86.4601 132.988C86.3971 132.103 85.6247 131.435 84.739 131.5C83.8533 131.563 83.1879 132.333 83.2509 133.221V133.225ZM83.8911 144.209C84.0422 147.791 84.1346 151.374 84.1367 154.957C84.1367 155.771 84.7978 156.43 85.6121 156.43C86.4139 156.43 87.0687 155.784 87.0813 154.982C87.1464 151.355 87.1128 147.726 87.0079 144.1C86.9827 143.239 86.2649 142.561 85.4043 142.586C84.5438 142.609 83.8659 143.327 83.8911 144.188V144.209ZM86.7434 164.227C86.9302 161.148 87.0289 158.065 87.0834 154.982C87.0981 154.168 86.4496 153.498 85.6352 153.483C84.823 153.469 84.1513 154.117 84.1367 154.932V154.957C84.1408 157.986 84.0695 161.014 83.8491 164.034C83.7924 164.832 84.3927 165.527 85.1924 165.586C85.9899 165.642 86.6825 165.042 86.7413 164.242L86.7434 164.227ZM86.4013 171.473C86.4727 169.057 86.5965 166.641 86.7434 164.227C86.7917 163.428 86.183 162.739 85.3834 162.691C84.59 162.643 83.9079 163.241 83.8512 164.034C83.6728 166.477 83.5217 168.925 83.4272 171.372C83.3978 172.193 84.0359 172.883 84.8565 172.915C85.6772 172.946 86.3677 172.306 86.3992 171.485L86.4013 171.473ZM83.5616 183.982C83.5826 184.521 84.0359 184.939 84.5732 184.918C85.0601 184.899 85.4589 184.523 85.5051 184.036C85.9039 179.86 86.2691 175.668 86.4013 171.473C86.4265 170.654 85.7821 169.968 84.9615 169.943C84.1429 169.918 83.4587 170.556 83.4293 171.374C83.2719 175.572 83.3979 179.784 83.5616 183.982Z" fill="black"/>
<path d="M74.1399 181.556C74.8262 181.757 75.5461 181.365 75.7475 180.676C75.7797 180.563 75.7965 180.446 75.7979 180.326C76.287 179.818 76.2744 179.005 75.7644 178.514C75.2669 178.034 74.4777 178.036 73.9824 178.516C73.6844 178.808 73.3905 179.127 73.2184 179.513C72.8553 180.336 73.2604 181.297 74.1399 181.558M74.1399 181.558C74.7107 181.726 75.353 181.621 75.928 181.535C76.6333 181.43 77.1181 180.771 77.0111 180.065C76.9061 179.369 76.2597 178.886 75.5608 178.982C75.2858 179.02 74.9857 179.079 74.7086 179.035C74.0013 178.921 73.336 179.402 73.2226 180.109C73.1198 180.754 73.5123 181.375 74.1399 181.558ZM75.9239 181.535C76.7361 181.415 77.5274 181.125 78.2914 180.842C79.5213 180.389 80.7281 179.876 81.9287 179.352C82.3484 179.165 82.5415 178.674 82.3568 178.252C82.1973 177.885 81.7985 177.685 81.4081 177.774C80.1586 178.059 78.9063 178.332 77.6512 178.592C76.9565 178.739 76.2597 178.886 75.5587 178.982C74.8534 179.081 74.3623 179.732 74.4589 180.437C74.5575 181.142 75.2082 181.633 75.9134 181.537L75.9239 181.535ZM54.9963 178.531L55.5987 176.688C55.8169 176.025 55.4538 175.309 54.7906 175.093C54.1252 174.875 53.4117 175.236 53.1955 175.901L52.591 177.746C52.3727 178.409 52.7358 179.125 53.3991 179.341C54.0644 179.56 54.778 179.194 54.9942 178.531M53.1262 179.283C53.2046 179.329 53.2871 179.366 53.3739 179.394C53.4648 179.423 53.5572 179.442 53.6509 179.45C54.2701 179.505 54.8053 179.102 54.9942 178.533C55.2104 177.868 54.8493 177.152 54.184 176.936C53.8881 176.837 53.5649 176.854 53.2794 176.98C52.8072 177.171 52.4987 177.629 52.4945 178.137C52.4903 178.598 52.719 179.043 53.1262 179.283ZM55.0047 178.009L54.9081 177.14C54.8347 176.476 54.2365 175.998 53.5732 176.071C52.9646 176.141 52.5029 176.651 52.4987 177.261L52.4903 178.139C52.4861 178.833 53.0443 179.402 53.7412 179.409C54.438 179.415 55.0068 178.854 55.0131 178.158C55.0131 178.109 55.0103 178.059 55.0047 178.009ZM52.0621 172.74C52.1838 173.768 52.2958 174.796 52.3979 175.826C52.4399 176.3 52.5029 176.785 52.4987 177.261C52.4924 177.929 53.0296 178.474 53.695 178.481C54.3645 178.487 54.9081 177.952 54.9144 177.284C54.9144 177.235 54.9123 177.187 54.9081 177.14C54.7381 175.601 54.6563 174.05 54.5429 172.505C54.4947 171.819 53.8965 171.303 53.2102 171.351C52.5239 171.401 52.0075 172 52.0558 172.686L52.0621 172.74ZM51.1176 164.433C51.4254 167.204 51.7403 169.973 52.0621 172.74C52.1418 173.425 52.761 173.914 53.4452 173.834C54.1064 173.756 54.5912 173.171 54.5429 172.505C54.3435 169.718 54.1022 166.933 53.8398 164.152C53.7684 163.398 53.101 162.849 52.3496 162.92C51.5941 162.991 51.0442 163.659 51.1155 164.41L51.1176 164.433ZM50.2361 154.802C50.4754 158.017 50.7608 161.228 51.1176 164.433C51.2016 165.183 51.8774 165.724 52.6288 165.642C53.3718 165.558 53.9091 164.895 53.8398 164.152C53.5376 160.97 53.2815 157.784 53.0527 154.596C52.9982 153.819 52.3223 153.232 51.5437 153.288C50.7671 153.345 50.1794 154.021 50.2361 154.797V154.802ZM49.5225 145.483C49.7688 148.589 50.0066 151.695 50.2361 154.802C50.2949 155.578 50.9707 156.162 51.7494 156.103C52.526 156.046 53.1073 155.372 53.0527 154.596C52.8289 151.49 52.612 148.381 52.4021 145.271C52.3496 144.475 51.6612 143.875 50.8658 143.927C50.0682 143.982 49.4679 144.671 49.5225 145.466V145.483ZM48.9096 137.427C49.1055 140.114 49.3098 142.799 49.5225 145.483C49.5855 146.278 50.2823 146.87 51.0757 146.807C51.8648 146.744 52.4567 146.06 52.4021 145.271C52.2202 142.591 52.0495 139.912 51.89 137.232C51.8417 136.407 51.1344 135.78 50.3116 135.828C49.4889 135.878 48.8613 136.584 48.9096 137.408V137.427ZM48.5234 129.878C48.5948 132.396 48.7291 134.915 48.9096 137.427C48.9705 138.25 49.6862 138.869 50.509 138.808C51.3233 138.75 51.9383 138.049 51.89 137.232C51.7403 134.76 51.6395 132.282 51.5877 129.804C51.571 128.959 50.8699 128.287 50.0241 128.304C49.1783 128.321 48.5067 129.022 48.5234 129.867V129.878ZM48.5234 129.878C48.5486 130.724 49.2538 131.389 50.0976 131.368C50.9392 131.343 51.6045 130.644 51.5877 129.804C51.5388 127.375 51.5178 124.947 51.5248 122.519C51.529 121.665 50.8385 120.97 49.9842 120.966C49.13 120.964 48.4332 121.655 48.4311 122.509C48.4241 124.964 48.4549 127.421 48.5234 129.878ZM51.5248 122.519C51.5332 120.244 51.6234 117.969 51.8417 115.704C51.9257 114.852 51.3023 114.097 50.4502 114.015C49.5981 113.931 48.8425 114.556 48.7606 115.406C48.5339 117.767 48.4374 120.139 48.4311 122.511C48.4311 123.365 49.1195 124.058 49.9759 124.062C50.828 124.062 51.5227 123.373 51.5248 122.519ZM51.8417 115.704C52.0201 113.861 52.2384 112.019 52.5553 110.193C52.7022 109.353 52.1398 108.551 51.3002 108.405C50.4607 108.258 49.6631 108.818 49.512 109.658C49.1762 111.561 48.9453 113.482 48.7606 115.406C48.6766 116.256 49.3021 117.014 50.1522 117.098C51.0043 117.18 51.7599 116.556 51.8438 115.704M52.5574 110.193C52.7736 108.954 53.0024 107.716 53.3067 106.499C53.5145 105.672 53.0129 104.832 52.1838 104.627C51.359 104.419 50.5194 104.92 50.3138 105.747C49.9905 107.038 49.7471 108.35 49.5162 109.658C49.3651 110.497 49.9255 111.301 50.7671 111.45C51.6067 111.597 52.4084 111.037 52.5574 110.197V110.193ZM53.3067 106.499C53.504 105.714 53.7202 104.935 53.9888 104.173C54.2722 103.367 53.8482 102.484 53.0423 102.2C52.2363 101.917 51.3527 102.341 51.0693 103.147V103.153C50.7734 104.005 50.5299 104.872 50.3138 105.747C50.106 106.574 50.6097 107.414 51.4366 107.62C52.2636 107.825 53.0989 107.328 53.3067 106.499ZM53.9888 104.173C54.1232 103.789 54.2617 103.365 54.5073 103.036C55.0257 102.335 54.8788 101.348 54.1777 100.83C53.4767 100.311 52.4902 100.458 51.9718 101.159L51.8879 101.281C51.5374 101.865 51.2897 102.511 51.0693 103.153C50.7881 103.959 51.2162 104.841 52.0222 105.12C52.8261 105.399 53.7055 104.975 53.9888 104.173ZM54.3792 103.187C54.5471 103.013 54.4506 103.111 54.4128 103.134L54.48 103.101C54.6416 103.036 54.8158 103 54.9879 102.968C55.8694 102.815 56.4571 101.976 56.3039 101.092C56.1507 100.211 55.3111 99.6229 54.4296 99.7762L54.3876 99.7846C53.4179 99.9798 52.421 100.4 51.89 101.281C51.4388 102.028 51.678 102.998 52.4231 103.447C53.057 103.831 53.8713 103.72 54.3792 103.187ZM54.9879 102.968C55.372 102.901 55.8064 102.817 56.1968 102.887C57.0867 103.046 57.9368 102.454 58.0942 101.564C58.2537 100.677 57.6618 99.8266 56.7719 99.6692C55.9848 99.5265 55.1663 99.6272 54.3897 99.7846C53.5124 99.9609 52.9415 100.813 53.1199 101.692C53.292 102.553 54.1211 103.12 54.9879 102.968ZM55.9953 102.838C56.1087 102.969 56.1926 103.122 56.2724 103.273C56.688 104.073 57.6744 104.385 58.4741 103.968C59.2716 103.552 59.5823 102.572 59.1709 101.774C58.6714 100.803 57.9053 99.8707 56.774 99.6692C55.8841 99.5097 55.034 100.102 54.8766 100.991C54.7297 101.8 55.2104 102.593 55.9953 102.838ZM56.2724 103.273C56.7173 104.127 56.8831 105.143 57.0217 106.081C57.156 106.971 57.9829 107.584 58.8729 107.452C59.7607 107.317 60.3735 106.49 60.2413 105.605C60.0482 104.301 59.7775 102.954 59.1709 101.774C58.7595 100.973 57.7772 100.658 56.9755 101.069C56.1737 101.48 55.8589 102.465 56.2703 103.267L56.2724 103.273ZM57.0217 106.081C57.2588 107.67 57.3932 109.271 57.475 110.877C57.5212 111.779 58.2936 112.474 59.1961 112.43C60.0986 112.382 60.7933 111.612 60.7492 110.709L60.7471 110.694C60.6443 108.992 60.491 107.29 60.2413 105.603C60.1091 104.715 59.2821 104.1 58.3943 104.232C57.5044 104.364 56.8894 105.191 57.0217 106.079V106.081ZM57.475 110.877C57.573 112.85 57.6345 114.824 57.6597 116.798C57.6723 117.717 58.4279 118.45 59.3472 118.437C60.2644 118.424 60.999 117.669 60.9843 116.752V116.737C60.9423 114.722 60.8688 112.707 60.7471 110.692C60.6925 109.79 59.916 109.103 59.0135 109.158C58.1152 109.211 57.4288 109.977 57.475 110.877ZM57.6597 116.798L57.7521 123.436C57.7647 124.375 58.5349 125.124 59.4731 125.111C60.4092 125.099 61.1585 124.326 61.1459 123.39V123.369C61.0871 121.159 61.034 118.948 60.9864 116.737C60.9654 115.82 60.2056 115.091 59.2863 115.112C58.3733 115.131 57.6471 115.885 57.6597 116.798ZM57.7521 123.436C57.7731 125.046 57.8675 126.656 57.9641 128.264C58.1173 130.745 58.304 133.223 58.5034 135.702C58.579 136.657 59.4164 137.371 60.3714 137.297C61.3285 137.22 62.0421 136.382 61.9665 135.425V135.417C61.6286 131.412 61.2508 127.391 61.1459 123.369C61.1207 122.433 60.342 121.692 59.4038 121.718C58.4762 121.741 57.7395 122.509 57.7521 123.439M58.5034 135.704C58.8665 140.259 59.2191 144.819 59.4542 149.382C59.5025 150.348 60.3253 151.091 61.2886 151.041C62.2541 150.992 62.9929 150.172 62.9467 149.21C62.7242 144.608 62.3527 140.011 61.9644 135.421C61.8847 134.464 61.0451 133.754 60.0881 133.834C59.1352 133.914 58.4258 134.751 58.5034 135.702M59.4542 149.382C59.6095 152.434 59.7376 155.484 59.8152 158.538C59.8383 159.476 60.6191 160.217 61.5573 160.191C62.4807 160.168 63.2153 159.411 63.2091 158.487C63.1944 155.391 63.0957 152.298 62.9467 149.208C62.9005 148.243 62.0799 147.498 61.1165 147.544C60.151 147.592 59.406 148.411 59.4521 149.376L59.4542 149.382ZM59.8152 158.538C59.9411 163.491 59.9244 168.446 59.9265 173.399C59.9265 174.315 60.6673 175.058 61.5845 175.058C62.4975 175.056 63.2385 174.312 63.2385 173.399C63.2343 168.429 63.2342 163.457 63.2091 158.487C63.2049 157.549 62.4409 156.791 61.5048 156.798C60.5666 156.802 59.811 157.564 59.8152 158.502V158.538ZM59.9265 173.399L59.9307 184.656C59.9307 185.573 60.6736 186.314 61.5887 186.314C62.508 186.314 63.2489 185.571 63.2489 184.656L63.2385 173.399C63.2385 172.484 62.4954 171.741 61.5803 171.741C60.6674 171.741 59.9265 172.484 59.9265 173.399ZM59.9307 184.656C59.9307 185.063 59.9097 185.472 60.0776 185.854C60.3 186.362 60.7618 186.725 61.3096 186.82C61.8784 186.918 62.4577 186.714 62.8376 186.278C63.2888 185.762 63.251 185.243 63.2489 184.653C63.2489 183.736 62.5038 182.995 61.5887 182.995C60.6715 182.995 59.9307 183.741 59.9307 184.656ZM63.2049 184.817C63.1951 184.774 63.1832 184.73 63.1692 184.685C63.0349 184.267 62.7578 183.881 62.5311 183.51C62.2457 183.037 61.6286 182.886 61.1564 183.174C61.0584 183.233 60.9738 183.305 60.9024 183.392C60.6254 183.728 60.2938 184.072 60.1028 184.469C60.0832 184.511 60.065 184.553 60.0482 184.595L59.9727 184.851C59.7859 185.745 60.3609 186.622 61.2529 186.807C62.1492 186.996 63.0244 186.421 63.2112 185.527C63.2433 185.378 63.2538 185.229 63.2426 185.08L63.2049 184.817Z" fill="black"/>
<path d="M55.1306 183.071C55.2873 182.934 55.4468 182.799 55.6091 182.668C56.1674 182.206 56.2451 181.375 55.7812 180.817C55.3762 180.33 54.6814 180.2 54.1294 180.508C53.9475 180.61 53.765 180.71 53.5817 180.808C52.9038 181.161 52.6414 181.994 52.994 182.672C53.3466 183.348 54.1798 183.61 54.8557 183.26C54.9536 183.206 55.0467 183.144 55.1306 183.071ZM54.2785 183.482C55.0487 183.493 55.6847 182.878 55.6931 182.105C55.7015 181.53 55.3573 181.01 54.8242 180.794C54.4527 180.611 54.0203 180.605 53.6446 180.777C52.7505 181.184 52.5112 182.414 53.2563 183.098C53.5355 183.354 53.9028 183.478 54.2785 183.482ZM54.2785 183.482L54.9291 183.493C55.6994 183.503 56.3353 182.886 56.3437 182.116C56.3542 181.343 55.7393 180.71 54.9669 180.699L54.3163 180.691C53.546 180.68 52.91 181.297 52.9016 182.068C52.8911 182.838 53.5061 183.474 54.2785 183.482ZM54.9291 183.493C55.6385 183.501 56.3584 183.18 57.0028 182.92C58.1005 182.479 59.173 181.975 60.2392 181.469C60.6653 181.266 60.8458 180.756 60.6422 180.332C60.4743 179.979 60.086 179.786 59.704 179.862C58.5769 180.09 57.4498 180.315 56.3185 180.508C55.8883 180.584 55.3951 180.705 54.9669 180.699C54.1966 180.689 53.5607 181.306 53.5523 182.076C53.5418 182.848 54.1568 183.482 54.9291 183.493ZM94.5847 182.821C94.6308 183.388 94.8093 183.95 95.1933 184.38C95.6131 184.844 96.2155 185.079 96.8347 185.082C97.5336 185.084 98.1023 184.519 98.1065 183.822C98.1065 183.19 97.6448 182.653 97.0214 182.563L97.0173 182.538C96.9144 181.87 96.289 181.411 95.6194 181.513C94.9856 181.612 94.5343 182.183 94.5847 182.821ZM94.4755 178.277C94.5007 179.784 94.4902 181.299 94.5847 182.802C94.6266 183.478 95.2081 183.99 95.886 183.948C96.5576 183.906 97.0718 183.323 97.0298 182.647L97.0152 182.519C96.9417 182.091 96.9522 181.637 96.9438 181.203C96.9228 180.225 96.9291 179.249 96.9396 178.271C96.948 177.591 96.4002 177.032 95.7223 177.026C95.0402 177.02 94.4839 177.566 94.4755 178.246V178.277ZM94.2447 171.514C94.3727 173.767 94.4419 176.023 94.4755 178.277C94.486 178.957 95.0464 179.501 95.7265 179.49C96.396 179.48 96.9333 178.936 96.9396 178.271C96.9627 175.983 96.9585 173.697 96.9039 171.41C96.885 170.675 96.2743 170.094 95.5418 170.11C94.8072 170.129 94.2279 170.74 94.2447 171.473V171.514ZM93.7892 164.278C93.9571 166.689 94.1097 169.101 94.2468 171.514C94.2888 172.249 94.9163 172.81 95.6488 172.768C96.3645 172.726 96.9207 172.127 96.9039 171.41C96.8451 168.977 96.7444 166.542 96.6269 164.112C96.5912 163.327 95.9237 162.723 95.1388 162.76C94.3538 162.798 93.7494 163.463 93.7872 164.25L93.7892 164.278ZM93.4114 155.211C93.466 158.237 93.5793 161.26 93.7892 164.278C93.8417 165.061 94.5217 165.652 95.3046 165.6C96.077 165.545 96.6647 164.886 96.6269 164.112C96.4842 161.132 96.4002 158.147 96.354 155.162C96.3435 154.348 95.674 153.7 94.8596 153.714C94.0474 153.725 93.3967 154.394 93.4114 155.209V155.211ZM93.2939 145.671C93.3121 148.85 93.3506 152.031 93.4093 155.213C93.4261 156.025 94.0977 156.672 94.91 156.657C95.7222 156.642 96.3666 155.975 96.354 155.162C96.3051 151.997 96.2841 148.832 96.2911 145.667C96.2911 144.838 95.6215 144.167 94.7946 144.165C93.9676 144.165 93.296 144.834 93.2939 145.661V145.671ZM93.2939 145.671C93.2981 146.498 93.974 147.166 94.8009 147.162C95.6237 147.157 96.289 146.49 96.2911 145.667C96.2974 141.854 96.438 138.042 96.6143 134.235C96.6541 133.393 96.0014 132.678 95.1598 132.64C94.3182 132.6 93.6024 133.25 93.5646 134.094V134.098C93.3967 137.954 93.2729 141.812 93.2939 145.671ZM96.6143 134.235C96.8053 130.121 96.9669 126.005 97.0739 121.887C97.0949 121.039 96.4254 120.334 95.5775 120.313C94.7316 120.292 94.0243 120.96 94.0033 121.806C93.8942 125.905 93.7388 130.002 93.5625 134.098C93.5269 134.942 94.1817 135.654 95.0234 135.689C95.8629 135.727 96.5765 135.077 96.6143 134.235ZM97.0739 121.887C97.1635 118.343 97.3174 114.803 97.5357 111.267C97.5881 110.426 96.948 109.699 96.1085 109.647C95.2689 109.594 94.5427 110.235 94.4881 111.074C94.2587 114.646 94.0957 118.224 94.0033 121.806C93.9781 122.653 94.6498 123.359 95.4956 123.382C96.3456 123.405 97.0487 122.735 97.0739 121.887ZM97.5357 111.267C97.6868 108.839 97.8337 106.41 98.0184 103.984C98.0814 103.147 97.4517 102.418 96.6164 102.355C95.7831 102.293 95.0549 102.918 94.9898 103.751C94.8009 106.19 94.6477 108.631 94.4903 111.072C94.4357 111.912 95.0717 112.64 95.9133 112.694C96.7528 112.749 97.4811 112.109 97.5357 111.267ZM98.0184 103.984C98.0877 103.052 98.1401 102.106 98.3122 101.186C98.4696 100.353 97.9198 99.5515 97.0886 99.3962C96.2554 99.2408 95.4557 99.7886 95.2983 100.622L95.2878 100.685C95.1409 101.701 95.0695 102.727 94.9898 103.751C94.9268 104.587 95.5501 105.317 96.3855 105.382C97.2208 105.447 97.9512 104.822 98.0163 103.986L98.0184 103.984ZM98.3122 101.186L98.3416 101.06H98.3437C99.0531 100.544 99.2084 99.5515 98.6921 98.8442C98.1884 98.1515 97.2208 97.9836 96.5135 98.4705C95.7747 98.9763 95.4117 99.8244 95.2878 100.685C95.1682 101.524 95.7496 102.301 96.5891 102.421C97.4014 102.538 98.1632 101.994 98.3122 101.186ZM98.1317 101.191C98.1653 101.174 98.2094 101.149 98.2514 101.151C99.1518 101.21 99.9305 100.527 99.9892 99.627C100.048 98.7245 99.3658 97.9479 98.4654 97.8892L98.371 97.8849C97.7057 97.8786 97.0592 98.0948 96.5114 98.4705C95.7894 98.9658 95.6069 99.9545 96.1022 100.674C96.5534 101.333 97.4223 101.554 98.1317 101.191ZM98.0478 101.126C98.2451 101.163 98.371 101.233 98.5368 101.354C99.2777 101.89 100.31 101.726 100.846 100.987C101.385 100.246 101.219 99.2135 100.48 98.6783L100.464 98.6637C99.8507 98.2313 99.1371 97.8912 98.371 97.8849C97.4685 97.8765 96.7297 98.6028 96.7234 99.5053C96.7171 100.294 97.2733 100.974 98.0457 101.126M98.5347 101.354C98.9881 101.682 99.4162 102.043 99.836 102.416C100.518 103.025 101.565 102.968 102.176 102.284C102.787 101.602 102.73 100.553 102.046 99.9419C101.542 99.4906 101.018 99.0562 100.461 98.6637C99.7143 98.139 98.6838 98.3153 98.1548 99.0625C97.6343 99.7991 97.8022 100.821 98.5347 101.354ZM99.836 102.416C100.27 102.805 100.615 103.289 100.906 103.793C101.364 104.584 102.378 104.855 103.171 104.398C103.96 103.94 104.231 102.931 103.778 102.139C103.312 101.329 102.745 100.567 102.046 99.9419C101.364 99.3332 100.315 99.3898 99.7038 100.072C99.093 100.756 99.1518 101.803 99.8339 102.416M100.904 103.793C101.391 104.633 101.626 105.636 101.834 106.574C102.031 107.464 102.915 108.027 103.807 107.829C104.695 107.632 105.255 106.751 105.062 105.861C104.781 104.587 104.43 103.279 103.776 102.139C103.32 101.346 102.306 101.071 101.513 101.527C100.72 101.982 100.447 102.996 100.902 103.789L100.904 103.793ZM101.834 106.574C102.197 108.209 102.394 109.878 102.537 111.546C102.613 112.451 103.41 113.125 104.317 113.047C105.22 112.969 105.891 112.176 105.818 111.271C105.669 109.458 105.452 107.64 105.062 105.861C104.865 104.971 103.983 104.406 103.091 104.601C102.201 104.799 101.637 105.68 101.832 106.57L101.834 106.574ZM102.537 111.546C102.737 113.901 102.818 116.269 102.86 118.632C102.875 119.539 103.622 120.259 104.527 120.244C105.429 120.227 106.151 119.484 106.137 118.58C106.099 116.141 106.017 113.702 105.818 111.271C105.744 110.365 104.949 109.691 104.042 109.767C103.135 109.84 102.462 110.635 102.535 111.542L102.537 111.546ZM102.86 118.632C102.913 121.717 102.917 124.805 102.896 127.89C102.89 128.793 103.616 129.531 104.519 129.538C105.421 129.544 106.16 128.816 106.166 127.913C106.187 124.803 106.187 121.69 106.137 118.58C106.124 117.675 105.379 116.951 104.472 116.966C103.57 116.98 102.846 117.727 102.86 118.632ZM105.895 138.836C106.042 135.196 106.141 131.555 106.168 127.913C106.172 127.011 105.446 126.272 104.542 126.266C103.639 126.259 102.902 126.988 102.896 127.89C102.871 131.5 102.791 135.11 102.676 138.718C102.646 139.606 103.343 140.351 104.233 140.38C105.117 140.408 105.858 139.719 105.895 138.836ZM105.463 149.386L105.895 138.836C105.931 137.946 105.241 137.198 104.351 137.161C103.463 137.123 102.714 137.815 102.676 138.703V138.718C102.561 142.238 102.455 145.76 102.357 149.282C102.334 150.14 103.009 150.854 103.868 150.877C104.718 150.9 105.427 150.236 105.463 149.386ZM105.211 158.644C105.253 155.558 105.337 152.47 105.463 149.386C105.499 148.526 104.831 147.806 103.973 147.772C103.117 147.737 102.392 148.402 102.357 149.261V149.282C102.273 152.388 102.21 155.496 102.168 158.607C102.157 159.446 102.831 160.139 103.671 160.147C104.51 160.158 105.203 159.486 105.211 158.644ZM102.472 182.133C102.485 182.678 102.938 183.111 103.484 183.098C104.006 183.088 104.428 182.672 104.449 182.149C104.764 174.321 105.115 166.482 105.211 158.644C105.222 157.805 104.55 157.114 103.708 157.104C102.869 157.093 102.178 157.767 102.168 158.607C102.13 161.656 102.166 164.708 102.203 167.758C102.266 172.549 102.365 177.339 102.472 182.133Z" fill="black"/>
<path d="M98.1989 184.194C98.5152 183.985 98.8335 183.779 99.1539 183.574C99.7604 183.184 99.9347 182.378 99.5443 181.77C99.1749 181.199 98.4298 181.008 97.8296 181.329C97.4951 181.511 97.1607 181.69 96.8263 181.866C96.1631 182.212 95.907 183.029 96.2512 183.692C96.5975 184.353 97.4139 184.611 98.0772 184.265C98.1192 184.243 98.1598 184.219 98.1989 184.194ZM97.3657 184.496C97.966 184.517 98.5096 184.143 98.7048 183.574C98.986 182.882 98.6523 182.093 97.9596 181.811C97.6028 181.667 97.1999 181.681 96.8536 181.853C96.6227 181.967 96.4212 182.126 96.2743 182.336C95.6488 183.226 96.3079 184.456 97.3657 184.496ZM97.3657 184.496L97.7393 184.508C98.4907 184.538 99.1224 183.95 99.1497 183.199C99.1791 182.447 98.5914 181.814 97.8401 181.786L97.4664 181.774C96.713 181.744 96.0812 182.332 96.0539 183.083C96.0266 183.835 96.6122 184.469 97.3657 184.496ZM97.7393 184.508C98.3983 184.534 99.1035 184.221 99.7164 184.015C100.942 183.602 102.157 183.155 103.37 182.706C103.824 182.538 104.055 182.034 103.887 181.581C103.742 181.188 103.341 180.953 102.928 181.02C101.666 181.224 100.405 181.427 99.1413 181.612C98.7915 181.665 98.4417 181.713 98.0919 181.757C98.0499 181.761 97.7183 181.782 97.8401 181.786C97.0887 181.759 96.4548 182.347 96.4275 183.098C96.4002 183.849 96.9879 184.483 97.7393 184.508ZM51.3212 148.421C51.5878 148.289 51.9089 148.243 52.1964 148.19C52.8429 148.079 53.2731 147.464 53.1619 146.817C53.0633 146.255 52.5784 145.844 52.0096 145.835C51.401 145.825 50.7587 145.877 50.2046 146.15C49.575 146.459 49.3189 147.216 49.6275 147.844C49.936 148.471 50.6958 148.729 51.3212 148.421ZM52.1964 148.19C52.8891 148.07 53.609 148.07 54.3121 148.077C54.9774 148.081 55.521 147.546 55.5273 146.88C55.5315 146.213 54.9963 145.667 54.331 145.663C54.2778 145.663 54.2246 145.666 54.1715 145.671C53.4578 145.76 52.7317 145.846 52.0096 145.835C51.3548 145.825 50.8133 146.347 50.8028 147.002C50.7923 147.659 51.317 148.198 51.9719 148.209C52.0474 148.209 52.1223 148.201 52.1964 148.19ZM54.3121 148.079C55.3419 148.086 56.3731 148.09 57.4058 148.091C58.1509 148.091 58.7574 147.489 58.7574 146.742C58.7574 145.997 58.1551 145.392 57.4079 145.39L57.3302 145.392C56.2738 145.451 55.2209 145.545 54.1715 145.674C53.5103 145.758 53.0402 146.358 53.122 147.019C53.1976 147.621 53.7055 148.075 54.3121 148.079ZM57.4184 148.091C59.131 148.077 60.8395 147.944 62.5395 147.726C63.0349 147.661 63.3875 147.206 63.3224 146.708C63.2741 146.337 63.0034 146.032 62.6382 145.944C60.9108 145.518 59.1226 145.308 57.3428 145.392C56.5977 145.426 56.0226 146.06 56.0583 146.805C56.0919 147.529 56.6922 148.098 57.4184 148.091ZM52.1377 153.643C52.8135 153.54 53.504 153.517 54.1882 153.504C54.8704 153.496 55.4161 152.933 55.4056 152.251C55.3951 151.592 54.8683 151.055 54.2092 151.034C53.3928 151.011 52.57 151.017 51.7599 151.139C51.0694 151.244 50.5929 151.888 50.6979 152.579C50.8028 153.271 51.4451 153.746 52.1377 153.643ZM54.1798 153.504C55.4224 153.496 56.667 153.525 57.9074 153.609C58.3398 153.639 58.7134 153.311 58.7428 152.879C58.7637 152.579 58.6126 152.295 58.3524 152.144C57.0952 151.418 55.6448 151.068 54.1987 151.034C53.5166 151.019 52.952 151.559 52.9352 152.241C52.9205 152.923 53.46 153.49 54.1421 153.504H54.1798ZM73.0485 147.403C73.4598 147.965 74.2448 148.089 74.8115 147.684C75.2795 147.636 75.756 147.634 76.2261 147.634C76.925 147.634 77.4896 147.065 77.4875 146.366C77.4875 145.667 76.9208 145.103 76.2219 145.103C75.5944 145.103 74.9605 145.105 74.3393 145.187C74.0601 145.227 73.7789 145.285 73.527 145.417C72.8113 145.797 72.5594 146.736 73.0485 147.403ZM76.2282 147.634C78.6713 147.627 81.1143 147.409 83.5217 146.992C83.9709 146.914 84.2689 146.488 84.1933 146.043C84.1283 145.669 83.8197 145.39 83.4419 145.363C81.0395 145.187 78.6328 145.1 76.2219 145.103C75.5251 145.103 74.9584 145.671 74.9605 146.37C74.9605 147.069 75.5272 147.634 76.2282 147.634ZM74.1734 154.734C75.0256 154.703 75.8777 154.543 76.7172 154.398C77.3931 154.279 77.8443 153.637 77.7268 152.961C77.6114 152.297 76.988 151.848 76.3227 151.945C75.5818 152.052 74.8304 152.176 74.079 152.205C73.3801 152.23 72.8344 152.818 72.8617 153.517C72.8868 154.214 73.4745 154.759 74.1734 154.734ZM76.7109 154.398C78.9672 154.014 81.2172 153.592 83.4671 153.166C83.8974 153.082 84.1807 152.669 84.0989 152.239C84.0275 151.865 83.7043 151.594 83.3244 151.592C80.9947 151.573 78.6293 151.596 76.3185 151.945C75.6405 152.048 75.1725 152.679 75.2754 153.357C75.3761 154.037 76.0099 154.503 76.6879 154.403L76.7109 154.398ZM95.0423 147.936C96.3058 147.932 97.5651 147.732 98.795 147.447C99.5296 147.277 99.9871 146.54 99.8171 145.806C99.6555 145.113 98.9902 144.658 98.285 144.761C97.1488 144.93 96.0098 145.087 94.8681 145.231C94.1251 145.325 93.5983 146.003 93.6927 146.748C93.7767 147.428 94.356 147.938 95.0423 147.936ZM98.7719 147.453C99.6849 147.256 100.598 147.046 101.494 146.773C102.048 146.605 102.651 146.423 103.131 146.085C103.507 145.818 103.597 145.298 103.331 144.92C103.238 144.791 103.119 144.695 102.974 144.632C102.397 144.389 101.706 144.412 101.095 144.437C100.147 144.479 99.2001 144.611 98.264 144.765C97.5189 144.886 97.0131 145.59 97.1348 146.335C97.2566 147.082 97.9597 147.586 98.7048 147.464C98.7285 147.461 98.7509 147.459 98.7719 147.453ZM95.5943 153.42C96.0392 153.42 96.48 153.347 96.9102 153.234C97.586 153.055 97.9869 152.363 97.8085 151.687C97.6301 151.011 96.9354 150.608 96.2596 150.786C96.0434 150.845 95.8189 150.891 95.5943 150.891C94.8954 150.891 94.3287 151.458 94.3287 152.155C94.3287 152.854 94.8954 153.42 95.5943 153.42ZM96.9102 153.234C97.323 153.124 97.7372 153.019 98.1528 152.919C98.7866 152.761 99.1728 152.121 99.0154 151.489C98.8853 150.956 98.4046 150.583 97.8547 150.591C97.3195 150.597 96.7801 150.65 96.2596 150.786C95.5838 150.967 95.1829 151.659 95.3613 152.335C95.5397 153.011 96.2344 153.414 96.9102 153.234ZM98.1528 152.919C98.6019 152.807 99.0636 152.757 99.5254 152.742C100.134 152.724 100.613 152.214 100.592 151.605C100.573 150.996 100.063 150.52 99.454 150.539H99.4373C98.9111 150.567 98.3836 150.584 97.8547 150.591C97.2041 150.599 96.6794 151.135 96.6899 151.787C96.6983 152.438 97.2355 152.961 97.8862 152.952C97.9757 152.952 98.0646 152.942 98.1528 152.919ZM99.5296 152.74C100.795 152.698 102.059 152.449 103.295 152.184C103.685 152.1 103.933 151.718 103.851 151.33C103.786 151.028 103.536 150.801 103.23 150.763C101.979 150.614 100.703 150.48 99.4415 150.539C98.8328 150.566 98.3606 151.08 98.3899 151.689C98.4172 152.293 98.9251 152.761 99.5296 152.74ZM40.4933 89.2188C42.7747 89.3825 45.0688 89.3405 47.3544 89.2607C48.1289 89.2355 48.7334 88.5871 48.7082 87.8126C48.6809 87.036 48.0324 86.4315 47.2579 86.4588H47.2264C45.0205 86.5848 42.8083 86.6918 40.5961 86.6687C39.8909 86.6624 39.3158 87.2291 39.3074 87.9343C39.3011 88.606 39.8196 89.1726 40.4933 89.2188ZM47.346 89.2607C49.5687 89.1977 51.7872 89.0467 54.0015 88.8661C54.8116 88.8032 55.4161 88.0895 55.351 87.2815C55.2859 86.4713 54.5744 85.8669 53.7643 85.9319H53.7475C51.5731 86.1355 49.3966 86.3224 47.218 86.4609C46.4435 86.5091 45.8579 87.1745 45.9062 87.9511C45.9545 88.7025 46.5904 89.2839 47.346 89.2629M54.0015 88.8683C56.8489 88.6388 59.6977 88.4247 62.5479 88.226C63.3875 88.1672 64.0213 87.439 63.9626 86.5973C63.9038 85.7578 63.1734 85.1239 62.3339 85.1826L62.3129 85.1848C59.4584 85.4227 56.604 85.6731 53.7496 85.9362C52.9373 86.0117 52.3434 86.7274 52.4168 87.5376C52.4924 88.3415 53.1976 88.9334 54.0015 88.8683ZM62.5479 88.226C65.7676 87.9993 68.9914 87.8503 72.2173 87.7621C73.0926 87.737 73.781 87.0087 73.7579 86.1356C73.7348 85.2604 73.0044 84.5699 72.1313 84.5951H72.1124C68.841 84.7182 65.5752 84.9148 62.315 85.1848C61.4754 85.2562 60.8521 85.9928 60.9213 86.8324C60.9906 87.6635 61.7147 88.2848 62.5479 88.226ZM72.2173 87.7621C74.7276 87.6929 77.242 87.6825 79.7522 87.672C83.9436 87.6531 88.1329 87.6615 92.3242 87.6762C93.254 87.6804 94.0118 86.9289 94.0139 85.997C94.0181 85.0672 93.2666 84.3096 92.3347 84.3054H92.318C88.1203 84.3327 83.9226 84.3642 79.7249 84.425C77.1853 84.4607 74.6478 84.4964 72.1124 84.5951C71.2393 84.6286 70.5571 85.3653 70.5907 86.2405C70.6243 87.1074 71.3505 87.7852 72.2173 87.7621ZM92.3242 87.6762C98.0163 87.6972 103.713 87.6677 109.405 87.7664C110.376 87.7832 111.176 87.0108 111.193 86.039C111.21 85.0673 110.437 84.2676 109.466 84.2508C107.692 84.2193 105.918 84.2403 104.143 84.2466C100.201 84.2606 96.2596 84.2788 92.318 84.3054C91.3882 84.3096 90.6389 85.0715 90.6431 86.0013C90.6494 86.9247 91.4008 87.6741 92.3242 87.6762ZM109.403 87.7643C110.393 87.7811 111.403 87.8315 112.372 88.0477C113.317 88.2576 114.255 87.6614 114.467 86.7169C114.677 85.7725 114.085 84.8406 113.145 84.6244C111.94 84.3494 110.695 84.2697 109.463 84.2466C108.494 84.2319 107.692 85.0044 107.675 85.9761C107.658 86.9458 108.431 87.7475 109.403 87.7643ZM112.372 88.0477C113.017 88.1904 113.653 88.3919 114.24 88.6983C115.08 89.137 116.119 88.8095 116.558 87.9679C116.977 87.1598 116.694 86.1628 115.913 85.6969C115.057 85.1889 114.112 84.8448 113.143 84.6266C112.198 84.4083 111.258 85.0001 111.044 85.9446C110.828 86.8891 111.417 87.8293 112.362 88.0455L112.372 88.0477ZM114.24 88.6983C114.407 88.7837 114.572 88.8724 114.736 88.9648C115.164 89.3762 115.777 89.5315 116.352 89.3741C116.742 89.2649 117.091 89.0173 117.317 88.6773C117.432 88.5094 117.513 88.3267 117.559 88.1294C117.601 87.9545 117.615 87.7775 117.601 87.5984C117.548 86.9331 117.139 86.4798 116.621 86.1356C116.388 85.9845 116.152 85.8382 115.913 85.6969C115.097 85.212 114.043 85.4786 113.556 86.2929C113.069 87.1094 113.338 88.1631 114.152 88.65L114.24 88.6983ZM115.982 89.4749L116.352 89.3741C117.254 89.1264 117.785 88.1945 117.538 87.292C117.315 86.4861 116.541 85.9614 115.712 86.0538L115.334 86.0978C114.385 86.2049 113.705 87.059 113.814 88.0077C113.921 88.9522 114.776 89.6323 115.722 89.5252C115.81 89.514 115.897 89.4973 115.982 89.4749ZM115.563 89.5903L115.982 89.4749C116.902 89.223 117.441 88.2743 117.189 87.355C116.965 86.5365 116.178 86.0013 115.332 86.0978L114.899 86.1482C113.934 86.2573 113.241 87.1284 113.353 88.0918C113.462 89.0572 114.333 89.7498 115.298 89.6407C115.388 89.6295 115.476 89.6127 115.563 89.5903ZM113.881 89.3658C114.58 90.0479 115.699 90.0352 116.381 89.3363C116.784 88.9228 116.961 88.3373 116.853 87.7706C116.784 86.8009 115.943 86.0704 114.975 86.1397L114.899 86.1482C113.963 86.2531 113.225 87.0633 113.256 88.0204C113.275 88.5388 113.516 89.0089 113.881 89.3658ZM113.881 89.3658L114.48 89.9513C115.176 90.6292 116.291 90.6166 116.971 89.9198C117.643 89.2335 117.636 88.1357 116.96 87.4515L116.373 86.8576C115.687 86.1629 114.566 86.1565 113.871 86.8449C113.178 87.5313 113.172 88.65 113.861 89.3447L113.881 89.3658ZM114.48 89.9513C114.662 90.1297 114.784 90.3837 114.889 90.6125C115.288 91.4772 116.316 91.855 117.181 91.4541C118.004 91.0742 118.392 90.1213 118.069 89.2734C117.817 88.6059 117.466 87.9615 116.96 87.4515C116.276 86.7589 115.162 86.7547 114.471 87.4389C113.779 88.1232 113.774 89.2377 114.459 89.9303L114.48 89.9513ZM114.889 90.6125C114.792 90.4026 114.914 90.8243 114.923 90.8894C114.981 91.2777 115.017 91.6702 115.048 92.0627C115.174 93.5403 115.225 95.0262 115.273 96.508C115.305 97.4987 116.134 98.2774 117.124 98.2459C118.115 98.2144 118.894 97.3854 118.862 96.3948L118.858 96.3318C118.757 94.7996 118.652 93.2674 118.493 91.7415C118.409 90.9314 118.363 90.0437 118.069 89.2734C117.731 88.3835 116.734 87.9343 115.844 88.2743C114.952 88.6122 114.503 89.6091 114.843 90.5011C114.857 90.5389 114.872 90.5761 114.889 90.6125ZM115.273 96.508C115.42 101.123 115.663 105.737 115.94 110.346C116.003 111.391 116.902 112.186 117.947 112.123C118.992 112.06 119.788 111.162 119.725 110.117C119.448 105.52 119.159 100.926 118.858 96.3339C118.795 95.3433 117.939 94.5939 116.948 94.659C115.982 94.7219 115.242 95.5426 115.273 96.508ZM115.94 110.346C116.213 114.902 116.465 119.461 116.641 124.026C116.683 125.073 117.565 125.89 118.614 125.848C119.66 125.806 120.476 124.924 120.436 123.877C120.256 119.287 120.004 114.701 119.725 110.117C119.662 109.072 118.763 108.274 117.718 108.337C116.673 108.4 115.878 109.301 115.94 110.346ZM116.641 124.026C116.809 128.285 116.893 132.547 116.942 136.808C116.952 137.862 117.817 138.71 118.873 138.697C119.928 138.684 120.774 137.822 120.762 136.766V136.76C120.699 132.463 120.602 128.169 120.436 123.877C120.394 122.83 119.513 122.013 118.463 122.055C117.418 122.097 116.602 122.979 116.641 124.026ZM116.942 136.808C116.995 141.935 117.019 147.062 117.015 152.19C117.015 153.259 117.882 154.123 118.95 154.126C120.016 154.126 120.883 153.259 120.883 152.19V152.186C120.873 147.044 120.833 141.902 120.762 136.76C120.747 135.704 119.88 134.862 118.824 134.877C117.771 134.892 116.929 135.754 116.942 136.808ZM120.678 169.351C120.827 163.631 120.896 157.909 120.883 152.186C120.883 151.116 120.014 150.253 118.946 150.255C117.878 150.26 117.015 151.124 117.015 152.19C117.015 157.878 116.933 163.566 116.788 169.252C116.761 170.327 117.609 171.219 118.684 171.246C119.758 171.275 120.652 170.427 120.678 169.351ZM120.119 188.555C120.328 182.154 120.515 175.752 120.68 169.351C120.707 168.276 119.857 167.384 118.782 167.357C117.708 167.327 116.816 168.175 116.788 169.252C116.625 175.646 116.45 182.041 116.266 188.435C116.236 189.499 117.074 190.387 118.138 190.417C119.198 190.446 120.084 189.617 120.119 188.555ZM119.439 210.57C119.655 203.229 119.881 195.893 120.119 188.555C120.153 187.489 119.318 186.597 118.255 186.563C117.191 186.53 116.301 187.363 116.268 188.427V188.433C116.058 195.779 115.882 203.127 115.739 210.477C115.718 211.5 116.53 212.345 117.552 212.366C118.566 212.387 119.408 211.584 119.439 210.57ZM118.818 234.035C119 226.213 119.207 218.392 119.439 210.57C119.469 209.548 118.665 208.696 117.643 208.664C116.621 208.635 115.768 209.439 115.739 210.461V210.477C115.582 218.31 115.468 226.144 115.397 233.978C115.386 234.923 116.146 235.697 117.091 235.706C118.027 235.714 118.795 234.971 118.818 234.035ZM118.279 259.003C118.444 250.682 118.624 242.359 118.818 234.035C118.839 233.09 118.092 232.305 117.147 232.284C116.203 232.263 115.418 233.009 115.397 233.953V233.978C115.319 242.306 115.249 250.634 115.189 258.961C115.185 259.815 115.871 260.512 116.723 260.518C117.569 260.524 118.262 259.849 118.279 259.003ZM117.544 286.451C117.852 277.303 118.097 268.154 118.279 259.003C118.295 258.151 117.617 257.445 116.765 257.429C115.913 257.412 115.208 258.09 115.191 258.942V258.963C115.124 268.099 114.971 277.235 114.75 286.372C114.732 287.142 115.342 287.782 116.115 287.801C116.881 287.82 117.519 287.218 117.544 286.451ZM116.375 325.492C116.74 312.479 117.112 299.464 117.544 286.451C117.569 285.679 116.965 285.035 116.194 285.007C115.422 284.982 114.778 285.587 114.75 286.359V286.372C114.436 299.389 114.079 312.404 113.714 325.419C113.693 326.153 114.272 326.766 115.006 326.787C115.741 326.808 116.354 326.229 116.375 325.492ZM115.661 360.249C115.67 355.688 115.756 351.127 115.85 346.569C115.993 339.544 116.178 332.517 116.375 325.492C116.396 324.757 115.817 324.147 115.082 324.126C114.347 324.105 113.735 324.684 113.714 325.419C113.39 337.017 113.059 348.613 112.775 360.211C112.757 361.009 113.386 361.67 114.184 361.691C114.981 361.71 115.642 361.08 115.661 360.283V360.249ZM115.68 378.053C115.656 372.119 115.649 366.184 115.661 360.249C115.661 359.451 115.019 358.805 114.222 358.803C113.437 358.803 112.794 359.428 112.775 360.211C112.631 366.157 112.517 372.101 112.471 378.047C112.465 378.935 113.176 379.657 114.062 379.663C114.95 379.672 115.672 378.958 115.678 378.072L115.68 378.053ZM115.609 397.338C115.668 390.911 115.708 384.482 115.68 378.053C115.676 377.168 114.954 376.452 114.068 376.456C113.191 376.46 112.477 377.17 112.471 378.047C112.422 384.47 112.367 390.89 112.305 397.308C112.297 398.219 113.029 398.966 113.942 398.975C114.853 398.983 115.6 398.251 115.609 397.338ZM113.174 418.288C113.227 418.813 113.699 419.197 114.224 419.143C114.694 419.092 115.059 418.706 115.08 418.232C115.395 411.272 115.544 404.306 115.609 397.338C115.615 396.427 114.885 395.68 113.972 395.673C113.061 395.665 112.314 396.397 112.305 397.308C112.242 404.308 112.452 411.322 113.172 418.288" fill="black"/>
</svg>
