<svg width="400" height="400" viewBox="0 0 400 400" fill="none" xmlns="http://www.w3.org/2000/svg">
<path d="M59.7491 207.951C57.2759 225.764 54.8441 243.572 52.453 261.374C51.9958 264.718 54.3518 267.763 57.6748 268.221C61.0154 268.661 64.0742 266.32 64.5138 262.976L64.5492 262.518C65.5865 244.74 67.8021 227.049 70.2636 209.429C70.6679 206.525 68.6457 203.849 65.7446 203.444C62.8436 203.022 60.1717 205.046 59.7674 207.951M52.4884 261.268C51.3631 268.643 50.2723 276.019 49.4987 283.447C49.0943 287.443 51.9952 291.016 56.0039 291.438C59.995 291.843 63.5649 288.939 63.9869 284.925L64.0212 284.168C64.0036 276.916 64.2857 269.664 64.5846 262.412C64.7077 259.068 62.105 256.216 58.7468 256.076C55.6348 255.97 52.9455 258.187 52.4884 261.268ZM49.4987 283.447C48.9712 288.516 47.7411 295.117 53.2267 298.057C53.9417 298.456 54.6917 298.726 55.477 298.867C56.2623 299.007 57.0537 299.031 57.8508 298.937C59.4507 298.743 60.9445 298.057 62.14 297C64.6191 294.783 65.4103 291.227 64.1092 288.164C64.0506 286.838 64.0212 285.506 64.0212 284.168C64.0212 280.155 60.7513 276.899 56.7251 276.899C53.0153 276.899 49.8861 279.715 49.5169 283.429M54.1936 282.672L51.2049 286.087C48.3918 289.308 48.7079 294.202 51.9078 297.018C54.8616 299.606 59.2572 299.588 62.1583 296.983L65.5515 293.955C68.8569 290.998 69.138 285.929 66.2018 282.62C63.248 279.31 58.1847 279.029 54.8793 281.986C54.6331 282.197 54.4045 282.432 54.1936 282.69M59.2566 270.615C57.6918 275.033 56.1801 279.592 53.5604 283.517C51.0989 287.196 52.0835 292.177 55.7582 294.642C58.7999 296.684 62.8263 296.402 65.5515 293.973C70.4393 289.608 72.6716 282.056 74.7814 276.089C76.2759 271.794 74.0256 267.094 69.7356 265.58C65.4632 264.084 60.7686 266.337 59.2566 270.615ZM68.1184 243.806C65.3287 252.795 62.3744 261.732 59.2566 270.615C57.7445 274.91 59.9956 279.609 64.268 281.123C68.558 282.637 73.2693 280.384 74.7814 276.089C77.9813 266.971 80.8476 257.765 83.5552 248.489C84.786 244.212 82.3419 239.723 78.0694 238.49C73.8498 237.258 69.437 239.617 68.1184 243.806ZM78.5448 214.481C74.6885 224.127 71.2128 233.902 68.1184 243.806C66.7822 248.066 69.1555 252.608 73.3928 253.928C77.6476 255.266 82.184 252.907 83.5027 248.647L83.5552 248.489C86.3332 238.902 89.4693 229.437 92.9622 220.096C94.4743 216.083 92.434 211.629 88.4605 210.116C84.5221 208.637 80.1096 210.573 78.5448 214.481ZM90.0959 190.577C85.5246 198.146 81.8327 206.261 78.5448 214.481C76.9625 218.442 78.8788 222.948 82.8523 224.55C86.8083 226.134 91.3086 224.215 92.9086 220.255L92.9622 220.079C95.7402 212.721 98.922 205.381 103.194 198.745C105.48 195.154 104.46 190.384 100.873 188.078C97.2865 185.772 92.5043 186.81 90.2011 190.401L90.0959 190.577ZM90.0959 190.577C87.8982 194.221 89.0588 198.973 92.6982 201.174C96.285 203.339 100.926 202.265 103.194 198.745C104.109 197.319 105.129 195.805 106.482 194.731L106.482 194.749C110.913 195.295 114.957 192.144 115.502 187.69C116.03 183.413 113.111 179.452 108.856 178.713C100.382 177.217 94.087 183.994 90.0959 190.577ZM103.916 193.974C105.674 197.178 106.201 201.279 106.728 204.835C107.467 209.64 111.95 212.949 116.75 212.228C121.568 211.488 124.873 207 124.134 202.195L124.046 201.684C123.026 196.879 121.761 191.968 119.476 187.585C117.26 183.36 113.762 179.576 108.856 178.713C104.461 177.939 100.241 180.896 99.4847 185.296C98.8517 188.852 100.662 192.408 103.897 193.992L103.916 193.974ZM106.728 204.835C108.299 215.209 109.495 225.623 110.316 236.079C110.738 241.395 115.379 245.355 120.688 244.951C126.016 244.528 129.972 239.881 129.55 234.565L129.515 234.09C128.132 223.212 126.315 212.416 124.064 201.702C123.045 196.931 118.368 193.886 113.621 194.89C109.05 195.858 106.025 200.223 106.728 204.835ZM110.316 236.079C111.019 245.056 111.81 254.033 112.971 262.958C113.709 268.591 118.843 272.551 124.469 271.829C130.095 271.09 134.068 265.933 133.33 260.318L133.26 259.86C131.766 251.305 130.623 242.697 129.515 234.09C128.829 228.809 124.011 225.06 118.719 225.729C113.62 226.38 109.929 230.939 110.316 236.079ZM112.971 262.958C113.727 268.855 114.553 275.631 118.069 280.613C121.48 285.401 128.109 286.51 132.891 283.112C137.533 279.803 138.745 273.431 135.651 268.661C134.069 266.197 133.752 262.676 133.26 259.86C132.293 254.28 126.965 250.531 121.374 251.516C115.976 252.467 112.267 257.501 112.971 262.958ZM124.293 264.084C118.579 265.422 115.045 271.16 116.381 276.881C116.721 278.231 117.284 279.475 118.069 280.613C122.06 286.228 129.673 287.302 135.299 283.605C138.288 281.634 140.521 278.712 142.42 275.737C145.638 270.738 144.178 264.067 139.185 260.846C134.191 257.624 127.511 259.085 124.293 264.084ZM135.686 241.676C132.258 249.263 128.812 257.061 124.293 264.084C121.076 269.083 122.552 275.755 127.546 278.976C132.539 282.197 139.203 280.736 142.42 275.737C147.519 267.781 151.334 258.909 155.043 250.249C157.364 244.862 154.867 238.631 149.505 236.326C144.213 234.037 138.078 236.431 135.686 241.694M152.073 206.648C146.47 218.266 141.008 229.948 135.686 241.694C133.278 247.028 135.633 253.312 140.961 255.723C146.288 258.152 152.565 255.776 154.974 250.443L155.062 250.266C160.09 238.555 165.253 226.908 170.551 215.326C172.889 210.186 170.639 204.131 165.505 201.772C160.459 199.484 154.482 201.631 152.073 206.648ZM170.322 172.869C163.641 183.783 157.629 195.119 152.073 206.648C149.629 211.718 151.756 217.825 156.838 220.29C161.919 222.736 168.019 220.589 170.463 215.502L170.551 215.326C175.597 204.272 181.03 193.376 187.078 182.814C189.733 178.15 188.116 172.183 183.456 169.525C178.885 166.902 173.083 168.398 170.322 172.869ZM188.661 151.042C180.749 156.2 175.175 164.966 170.322 172.869C167.509 177.446 168.934 183.466 173.523 186.282C178.094 189.098 184.089 187.673 186.902 183.079L187.078 182.814C189.276 178.96 191.597 175.157 194.322 171.637C195.693 169.841 197.188 167.941 199.069 166.656C203.342 163.734 204.45 157.89 201.531 153.612C198.648 149.388 192.933 148.261 188.661 151.042ZM188.661 151.042C184.318 153.859 183.087 159.668 185.918 164.033C187.501 166.445 190.067 167.993 192.933 168.257L192.933 168.24C194.023 173.52 199.175 176.882 204.432 175.809C209.706 174.7 213.064 169.543 211.992 164.262L211.922 164.033C210.814 159.28 208.933 154.352 205.012 151.219C200.142 147.346 193.689 147.751 188.661 151.042ZM192.845 167.764C193.619 172.781 193.829 177.903 194.005 182.973C194.286 191.422 194.269 199.906 194.181 208.355C194.093 214.481 198.999 219.515 205.1 219.585C211.236 219.656 216.247 214.763 216.318 208.637L216.318 207.968C215.896 199.167 215.386 190.366 214.524 181.618C213.944 175.738 213.276 169.789 211.922 164.015C210.691 158.787 205.469 155.548 200.229 156.763C195.271 157.925 192.054 162.73 192.845 167.764ZM194.181 208.355C194.005 221.733 193.407 235.375 194.603 248.735C195.201 255.389 201.091 260.3 207.737 259.701C214.4 259.103 219.306 253.224 218.708 246.552L218.673 246.235C217.196 233.562 216.915 220.712 216.318 207.968C216.019 201.86 210.831 197.125 204.713 197.407C198.876 197.689 194.269 202.494 194.181 208.355ZM194.603 248.735C195.271 255.987 197.54 263.697 203.236 268.626C207.702 272.445 214.436 271.935 218.268 267.481C220.501 264.876 221.346 261.338 220.537 258.012C219.605 254.139 219.148 250.178 218.673 246.235C217.899 239.599 211.869 234.847 205.223 235.621C198.717 236.378 194.023 242.205 194.603 248.735ZM203.236 268.626C206.928 271.794 211.57 273.941 216.475 274.082C220.291 274.17 223.473 271.143 223.561 267.306C223.585 266.015 223.28 264.812 222.647 263.697C221.645 261.937 221.012 259.965 220.537 257.994C219.13 252.273 213.381 248.77 207.667 250.161C201.953 251.569 198.436 257.325 199.843 263.046C200.37 265.211 201.548 267.165 203.236 268.608" fill="black"/>
<path d="M263.888 166.067C256.679 168.021 254.287 175.608 253.848 182.279C253.235 191.569 253.721 200.946 254.263 210.219C254.265 210.264 254.268 210.309 254.27 210.355C254.985 222.524 255.325 234.698 255.29 246.879C255.302 258.849 255.067 270.818 254.551 282.788C254.551 282.792 254.551 282.797 254.551 282.802L253.829 298.929L253.756 300.497C253.75 300.596 253.745 300.695 253.742 300.795C253.737 300.926 253.733 301.056 253.731 301.185L253.707 301.904C253.76 307.889 258.454 312.853 264.432 313.205C267.843 313.416 271.184 312.078 273.505 309.561C275.509 307.396 276.44 304.703 276.563 301.851C276.564 301.844 276.564 301.837 276.564 301.83L277.443 282.929C277.446 282.882 277.447 282.835 277.449 282.789C278.047 270.223 279.218 257.675 280.772 245.162L280.784 245.084C282.63 230.28 285.073 215.547 287.869 200.902C290.562 186.757 294.559 172.804 300.38 159.631C300.394 159.6 300.409 159.568 300.423 159.537L300.476 159.413C302.709 154.414 305.223 149.468 308.405 145.015C310.181 142.551 312.255 140.016 314.875 138.396C317.021 137.083 320.339 135.093 323.054 135.69C323.142 135.709 323.229 135.731 323.315 135.756C324.437 136.086 324.935 137.46 325.275 138.556C325.335 138.749 325.389 138.932 325.442 139.101C326.264 141.98 328.107 144.291 330.466 145.751C328.424 147.502 326.965 149.942 326.475 152.766C326.443 152.95 326.415 153.136 326.392 153.323C325.78 158.043 324.215 162.607 321.696 166.67C321.679 166.697 321.661 166.725 321.644 166.753C321.638 166.763 321.632 166.772 321.627 166.782C319.135 170.821 316.45 174.806 313.222 178.301C311.08 180.614 308.897 182.955 306.976 185.473C304.242 185.727 302.109 187.943 301.935 190.693C301.588 196.322 306.327 199.942 311.353 201.041C317.888 202.998 324.749 199.398 329.592 195.199C329.816 195.004 330.032 194.802 330.238 194.594C335.012 190.295 338.864 185.055 342.235 179.621C342.246 179.603 342.257 179.586 342.267 179.568C346.653 172.495 349.333 164.489 350.155 156.235C350.169 156.158 350.177 156.075 350.179 155.985C350.179 155.984 350.179 155.982 350.18 155.981C350.187 155.896 350.194 155.81 350.2 155.725C350.905 147.974 350.121 140.096 347.704 132.669C347.703 132.666 347.702 132.662 347.701 132.658L347.672 132.572C347.629 132.442 347.586 132.312 347.543 132.183C344.536 123.241 337.75 116.024 328.22 114.369C319.429 112.838 310.831 116.253 303.693 121.199C293.513 128.24 287.166 140.122 282.12 151.088C282.113 151.102 282.106 151.117 282.1 151.132C275.935 164.539 271.409 178.676 268.125 193.063C267.802 189.514 267.538 185.961 267.369 182.402C267.361 182.246 267.347 182.091 267.329 181.938C267.273 180.624 267.266 179.174 267.722 177.939C267.769 177.922 267.821 177.902 267.879 177.878C271.079 176.558 272.59 172.914 271.289 169.728C270.093 166.824 266.912 165.257 263.888 166.067Z" fill="black"/>
</svg>
