<svg width="400" height="400" viewBox="0 0 400 400" fill="none" xmlns="http://www.w3.org/2000/svg">
<path d="M59.7491 193.951C57.2759 211.764 54.8441 229.572 52.453 247.374C51.9958 250.718 54.3518 253.763 57.6748 254.221C61.0154 254.661 64.0742 252.32 64.5138 248.976L64.5492 248.518C65.5865 230.74 67.8021 213.049 70.2636 195.429C70.6679 192.525 68.6457 189.849 65.7446 189.444C62.8436 189.022 60.1717 191.046 59.7674 193.951M52.4884 247.268C51.3631 254.643 50.2723 262.019 49.4987 269.447C49.0943 273.443 51.9952 277.016 56.0039 277.438C59.995 277.843 63.5649 274.939 63.9869 270.925L64.0212 270.168C64.0036 262.916 64.2857 255.664 64.5846 248.412C64.7077 245.068 62.105 242.216 58.7468 242.076C55.6348 241.97 52.9455 244.187 52.4884 247.268ZM49.4987 269.447C48.9712 274.516 47.7411 281.117 53.2267 284.057C53.9417 284.456 54.6917 284.726 55.477 284.867C56.2623 285.007 57.0537 285.031 57.8508 284.937C59.4507 284.743 60.9445 284.057 62.14 283C64.6191 280.783 65.4103 277.227 64.1092 274.164C64.0506 272.838 64.0212 271.506 64.0212 270.168C64.0212 266.155 60.7513 262.899 56.7251 262.899C53.0153 262.899 49.8861 265.715 49.5169 269.429M54.1936 268.672L51.2049 272.087C48.3918 275.308 48.7079 280.202 51.9078 283.018C54.8616 285.606 59.2572 285.588 62.1583 282.983L65.5515 279.955C68.8569 276.998 69.138 271.929 66.2018 268.62C63.248 265.31 58.1847 265.029 54.8793 267.986C54.6331 268.197 54.4045 268.432 54.1936 268.69M59.2566 256.615C57.6918 261.033 56.1801 265.592 53.5604 269.517C51.0989 273.196 52.0835 278.177 55.7582 280.642C58.7999 282.684 62.8263 282.402 65.5515 279.973C70.4393 275.608 72.6716 268.056 74.7814 262.089C76.2759 257.794 74.0256 253.094 69.7356 251.58C65.4632 250.084 60.7686 252.337 59.2566 256.615ZM68.1184 229.806C65.3287 238.795 62.3744 247.732 59.2566 256.615C57.7445 260.91 59.9956 265.609 64.268 267.123C68.558 268.637 73.2693 266.384 74.7814 262.089C77.9813 252.971 80.8476 243.765 83.5552 234.489C84.786 230.212 82.3419 225.723 78.0694 224.49C73.8498 223.258 69.437 225.617 68.1184 229.806ZM78.5448 200.481C74.6885 210.127 71.2128 219.902 68.1184 229.806C66.7822 234.066 69.1555 238.608 73.3928 239.928C77.6476 241.266 82.184 238.907 83.5027 234.647L83.5552 234.489C86.3332 224.902 89.4693 215.437 92.9622 206.096C94.4743 202.083 92.434 197.629 88.4605 196.116C84.5221 194.637 80.1096 196.573 78.5448 200.481ZM90.0959 176.577C85.5246 184.146 81.8327 192.261 78.5448 200.481C76.9625 204.442 78.8788 208.948 82.8523 210.55C86.8083 212.134 91.3086 210.215 92.9086 206.255L92.9622 206.079C95.7402 198.721 98.922 191.381 103.194 184.745C105.48 181.154 104.46 176.384 100.873 174.078C97.2865 171.772 92.5043 172.81 90.2011 176.401L90.0959 176.577ZM90.0959 176.577C87.8982 180.221 89.0588 184.973 92.6982 187.174C96.285 189.339 100.926 188.265 103.194 184.745C104.109 183.319 105.129 181.805 106.482 180.731L106.482 180.749C110.913 181.295 114.957 178.144 115.502 173.69C116.03 169.413 113.111 165.452 108.856 164.713C100.382 163.217 94.087 169.994 90.0959 176.577ZM103.916 179.974C105.674 183.178 106.201 187.279 106.728 190.835C107.467 195.64 111.95 198.949 116.75 198.228C121.568 197.488 124.873 193 124.134 188.195L124.046 187.684C123.026 182.879 121.761 177.968 119.476 173.585C117.26 169.36 113.762 165.576 108.856 164.713C104.461 163.939 100.241 166.896 99.4847 171.296C98.8517 174.852 100.662 178.408 103.897 179.992L103.916 179.974ZM106.728 190.835C108.299 201.209 109.495 211.623 110.316 222.079C110.738 227.395 115.379 231.355 120.688 230.951C126.016 230.528 129.972 225.881 129.55 220.565L129.515 220.09C128.132 209.212 126.315 198.416 124.064 187.702C123.045 182.931 118.368 179.886 113.621 180.89C109.05 181.858 106.025 186.223 106.728 190.835ZM110.316 222.079C111.019 231.056 111.81 240.033 112.971 248.958C113.709 254.591 118.843 258.551 124.469 257.829C130.095 257.09 134.068 251.933 133.33 246.318L133.26 245.86C131.766 237.305 130.623 228.697 129.515 220.09C128.829 214.809 124.011 211.06 118.719 211.729C113.62 212.38 109.929 216.939 110.316 222.079ZM112.971 248.958C113.727 254.855 114.553 261.631 118.069 266.613C121.48 271.401 128.109 272.51 132.891 269.112C137.533 265.803 138.745 259.431 135.651 254.661C134.069 252.197 133.752 248.676 133.26 245.86C132.293 240.28 126.965 236.531 121.374 237.516C115.976 238.467 112.267 243.501 112.971 248.958ZM124.293 250.084C118.579 251.422 115.045 257.16 116.381 262.881C116.721 264.231 117.284 265.475 118.069 266.613C122.06 272.228 129.673 273.302 135.299 269.605C138.288 267.634 140.521 264.712 142.42 261.737C145.638 256.738 144.178 250.067 139.185 246.846C134.191 243.624 127.511 245.085 124.293 250.084ZM135.686 227.676C132.258 235.263 128.812 243.061 124.293 250.084C121.076 255.083 122.552 261.755 127.546 264.976C132.539 268.197 139.203 266.736 142.42 261.737C147.519 253.781 151.334 244.909 155.043 236.249C157.364 230.862 154.867 224.631 149.505 222.326C144.213 220.037 138.078 222.431 135.686 227.694M152.073 192.648C146.47 204.266 141.008 215.948 135.686 227.694C133.278 233.028 135.633 239.312 140.961 241.723C146.288 244.152 152.565 241.776 154.974 236.443L155.062 236.266C160.09 224.555 165.253 212.908 170.551 201.326C172.889 196.186 170.639 190.131 165.505 187.772C160.459 185.484 154.482 187.631 152.073 192.648ZM170.322 158.869C163.641 169.783 157.629 181.119 152.073 192.648C149.629 197.718 151.756 203.825 156.838 206.29C161.919 208.736 168.019 206.589 170.463 201.502L170.551 201.326C175.597 190.272 181.03 179.376 187.078 168.814C189.733 164.15 188.116 158.183 183.456 155.525C178.885 152.902 173.083 154.398 170.322 158.869ZM188.661 137.042C180.749 142.2 175.175 150.966 170.322 158.869C167.509 163.446 168.934 169.466 173.523 172.282C178.094 175.098 184.089 173.673 186.902 169.079L187.078 168.814C189.276 164.96 191.597 161.157 194.322 157.637C195.693 155.841 197.188 153.941 199.069 152.656C203.342 149.734 204.45 143.89 201.531 139.612C198.648 135.388 192.933 134.261 188.661 137.042ZM188.661 137.042C184.318 139.859 183.087 145.668 185.918 150.033C187.501 152.445 190.067 153.993 192.933 154.257L192.933 154.24C194.023 159.52 199.175 162.882 204.432 161.809C209.706 160.7 213.064 155.543 211.992 150.262L211.922 150.033C210.814 145.28 208.933 140.352 205.012 137.219C200.142 133.346 193.689 133.751 188.661 137.042ZM192.845 153.764C193.619 158.781 193.829 163.903 194.005 168.973C194.286 177.422 194.269 185.906 194.181 194.355C194.093 200.481 198.999 205.515 205.1 205.585C211.236 205.656 216.247 200.763 216.318 194.637L216.318 193.968C215.896 185.167 215.386 176.366 214.524 167.618C213.944 161.738 213.276 155.789 211.922 150.015C210.691 144.787 205.469 141.548 200.229 142.763C195.271 143.925 192.054 148.73 192.845 153.764ZM194.181 194.355C194.005 207.733 193.407 221.375 194.603 234.735C195.201 241.389 201.091 246.3 207.737 245.701C214.4 245.103 219.306 239.224 218.708 232.552L218.673 232.235C217.196 219.562 216.915 206.712 216.318 193.968C216.019 187.86 210.831 183.125 204.713 183.407C198.876 183.689 194.269 188.494 194.181 194.355ZM194.603 234.735C195.271 241.987 197.54 249.697 203.236 254.626C207.702 258.445 214.436 257.935 218.268 253.481C220.501 250.876 221.346 247.338 220.537 244.012C219.605 240.139 219.148 236.178 218.673 232.235C217.899 225.599 211.869 220.847 205.223 221.621C198.717 222.378 194.023 228.205 194.603 234.735ZM203.236 254.626C206.928 257.794 211.57 259.941 216.475 260.082C220.291 260.17 223.473 257.143 223.561 253.306C223.585 252.015 223.28 250.812 222.647 249.697C221.645 247.937 221.012 245.965 220.537 243.994C219.13 238.273 213.381 234.77 207.667 236.161C201.953 237.569 198.436 243.325 199.843 249.046C200.37 251.211 201.548 253.165 203.236 254.608" fill="black"/>
<path d="M263.888 152.067C256.679 154.021 254.287 161.608 253.848 168.279C253.235 177.569 253.721 186.946 254.263 196.219C254.265 196.264 254.268 196.309 254.27 196.355C254.985 208.524 255.325 220.698 255.29 232.879C255.302 244.849 255.067 256.818 254.551 268.788C254.551 268.792 254.551 268.797 254.551 268.802L253.829 284.929L253.756 286.497C253.75 286.596 253.745 286.695 253.742 286.795C253.737 286.926 253.733 287.056 253.731 287.185L253.707 287.904C253.76 293.889 258.454 298.853 264.432 299.205C267.843 299.416 271.184 298.078 273.505 295.561C275.509 293.396 276.44 290.703 276.563 287.851C276.564 287.844 276.564 287.837 276.564 287.83L277.443 268.929C277.446 268.882 277.447 268.835 277.449 268.789C278.047 256.223 279.218 243.675 280.772 231.162L280.784 231.084C282.63 216.28 285.073 201.547 287.869 186.902C290.562 172.757 294.559 158.804 300.38 145.631C300.394 145.6 300.409 145.568 300.423 145.537L300.476 145.413C302.709 140.414 305.223 135.468 308.405 131.015C310.181 128.551 312.255 126.016 314.875 124.396C317.021 123.083 320.339 121.093 323.054 121.69C323.142 121.709 323.229 121.731 323.315 121.756C324.437 122.086 324.935 123.46 325.275 124.556C325.335 124.749 325.389 124.932 325.442 125.101C326.264 127.98 328.107 130.291 330.466 131.751C328.424 133.502 326.965 135.942 326.475 138.766C326.443 138.95 326.415 139.136 326.392 139.323C325.78 144.043 324.215 148.607 321.696 152.67C321.679 152.697 321.661 152.725 321.644 152.753C321.638 152.763 321.632 152.772 321.627 152.782C319.135 156.821 316.45 160.806 313.222 164.301C311.08 166.614 308.897 168.955 306.976 171.473C304.242 171.727 302.109 173.943 301.935 176.693C301.588 182.322 306.327 185.942 311.353 187.041C317.888 188.998 324.749 185.398 329.592 181.199C329.816 181.004 330.032 180.802 330.238 180.594C335.012 176.295 338.864 171.055 342.235 165.621C342.246 165.603 342.257 165.586 342.267 165.568C346.653 158.495 349.333 150.489 350.155 142.235C350.169 142.158 350.177 142.075 350.179 141.985C350.179 141.984 350.179 141.982 350.18 141.981C350.187 141.896 350.194 141.81 350.2 141.725C350.905 133.974 350.121 126.096 347.704 118.669C347.703 118.666 347.702 118.662 347.701 118.658L347.672 118.572C347.629 118.442 347.586 118.312 347.543 118.183C344.536 109.241 337.75 102.024 328.22 100.369C319.429 98.838 310.831 102.253 303.693 107.199C293.513 114.24 287.166 126.122 282.12 137.088C282.113 137.102 282.106 137.117 282.1 137.132C275.935 150.539 271.409 164.676 268.125 179.063C267.802 175.514 267.538 171.961 267.369 168.402C267.361 168.246 267.347 168.091 267.329 167.938C267.273 166.624 267.266 165.174 267.722 163.939C267.769 163.922 267.821 163.902 267.879 163.878C271.079 162.558 272.59 158.914 271.289 155.728C270.093 152.824 266.912 151.257 263.888 152.067Z" fill="black"/>
</svg>
