<svg width="18.5" height="18" viewBox="0 0 33 32" fill="none" xmlns="http://www.w3.org/2000/svg">
<path d="M16.5 0C7.392 0 0 7.168 0 16C0 24.832 7.392 32 16.5 32H24.75V28.8H16.5C9.339 28.8 3.3 22.944 3.3 16C3.3 9.056 9.339 3.2 16.5 3.2C23.661 3.2 29.7 9.056 29.7 16V18.288C29.7 19.552 28.5285 20.8 27.225 20.8C25.9215 20.8 24.75 19.552 24.75 18.288V16C24.75 11.584 21.054 8 16.5 8C11.946 8 8.25 11.584 8.25 16C8.25 20.416 11.946 24 16.5 24C18.777 24 20.856 23.104 22.341 21.648C23.4135 23.072 25.2615 24 27.225 24C30.4755 24 33 21.44 33 18.288V16C33 7.168 25.608 0 16.5 0ZM16.5 20.8C13.761 20.8 11.55 18.656 11.55 16C11.55 13.344 13.761 11.2 16.5 11.2C19.239 11.2 21.45 13.344 21.45 16C21.45 18.656 19.239 20.8 16.5 20.8Z" fill="black"/>
</svg>
