<?xml version="1.0" encoding="utf-8"?>
<!-- Generator: Adobe Illustrator 25.0.1, SVG Export Plug-In . SVG Version: 6.00 Build 0)  -->
<svg version="1.1" xmlns="http://www.w3.org/2000/svg" xmlns:xlink="http://www.w3.org/1999/xlink" height="80px" width="80px"
	 viewBox="0 0 960 960" style="enable-background:new 0 0 960 960;" xml:space="preserve">
<style type="text/css">
	.st0{display:none;}
	.st1{fill:#90B54A;}
	.st2{opacity:0.33;clip-path:url(#SVGID_2_);fill:#578A2C;}
	.st3{fill:none;stroke:#444444;stroke-width:26;stroke-linecap:round;stroke-linejoin:round;stroke-miterlimit:10;}
	.st4{clip-path:url(#SVGID_4_);fill:#C0D397;}
	.st5{opacity:0.33;clip-path:url(#SVGID_4_);fill:#578A2C;}
	.st6{clip-path:url(#SVGID_6_);fill:#C0D397;}
	.st7{opacity:0.33;clip-path:url(#SVGID_6_);fill:#578A2C;}
	.st8{display:inline;fill:#578A2C;}
	.st9{display:inline;fill:#90B54A;}
</style>
<g id="Layer_2">
	<g>
		<path class="st1" d="M504.33,803.94c-13.24-16.13-19.97-36.55-25.02-56.8c-32.35-129.63-6.21-265.73-6.97-399.33
			c-7.54-8.59-16.74-7.45-26.95-12.6c-16.76,102.81-33.57,206.11-34.32,310.27c-0.39,55.02,4.42,112.43,32.65,159.67
			C464.68,807.73,483.92,809.32,504.33,803.94z"/>
		<g>
			<defs>
				<path id="SVGID_1_" d="M504.33,803.94c-13.24-16.13-19.97-36.55-25.02-56.8c-32.35-129.63-6.21-265.73-6.97-399.33
					c-7.54-8.59-16.74-7.45-26.95-12.6c-16.76,102.81-33.57,206.11-34.32,310.27c-0.39,55.02,4.42,112.43,32.65,159.67
					C464.68,807.73,483.92,809.32,504.33,803.94z"/>
			</defs>
			<clipPath id="SVGID_2_">
				<use xlink:href="#SVGID_1_"  style="overflow:visible;"/>
			</clipPath>
			<path class="st2" d="M465.68,779.08c2.88,11.2,6.33,22.88,13.92,30.55c9.85,9.96,24.17,10.75,37.21,9.8
				c10.56-0.77,21.53-2.53,30.29-9.43c15.3-12.04,19.58-36.04,19.37-57.5c-0.54-55.55-22.09-107.7-45.23-156.31
				c-13.57-28.51-27.89-56.63-39.52-86.32c-4.96-12.67-20.86-61.41-31.3-30.73c-9.38,27.54-7.55,68.34-8.1,97.62
				c-0.61,32.69,0.85,65.44,4.4,97.88C450.58,709.98,456.91,744.95,465.68,779.08z"/>
		</g>
		<path class="st3" d="M504.33,803.94c-13.24-16.13-19.97-36.55-25.02-56.8c-32.35-129.63-6.21-265.73-6.97-399.33
			c-7.54-8.59-16.74-7.45-26.95-12.6c-16.76,102.81-33.57,206.11-34.32,310.27c-0.39,55.02,4.42,112.43,32.65,159.67
			C464.68,807.73,483.92,809.32,504.33,803.94z"/>
	</g>
	<g>
		<path class="st1" d="M940.33,273.29c-63.11-29.07-128.34-58.67-197.78-61.03c-55.76-1.89-111.15,14.22-160.59,40.08
			s-93.35,61.19-134.11,99.29c45.01,27.99,100.22,45.27,153.21,46.14s105.62-8.76,157.15-21.15
			C828.28,359.78,895.8,329.95,940.33,273.29z"/>
		<g>
			<defs>
				<path id="SVGID_3_" d="M940.33,273.29c-63.11-29.07-128.34-58.67-197.78-61.03c-55.76-1.89-111.15,14.22-160.59,40.08
					s-93.35,61.19-134.11,99.29c45.01,27.99,100.22,45.27,153.21,46.14s105.62-8.76,157.15-21.15
					C828.28,359.78,895.8,329.95,940.33,273.29z"/>
			</defs>
			<clipPath id="SVGID_4_">
				<use xlink:href="#SVGID_3_"  style="overflow:visible;"/>
			</clipPath>
			<path class="st4" d="M763.88,252.17c-47.58-4.19-96.37,2.29-140.26,18.61c-16.77,6.24-34.79,16.23-36.82,31.85
				c17.47,6.36,37-1.59,54.57-7.75c56.64-19.88,119.77-21.68,180.7-16.93c13.13,1.02,31.22,5.88,37.56-5.82
				C830.14,261.28,795.79,254.97,763.88,252.17z"/>
			<path class="st5" d="M680.16,337.42c81.94-16.65,162.4-46.53,246.01-45.41c3.61,13.97-7.17,27.19-17.14,37.61
				c-31.06,32.46-62.12,64.92-93.17,97.38c-13.36,13.96-27.11,28.21-44.49,36.65c-30.64,14.87-66.64,9.27-100.69,8.98
				c-25.89-0.22-52.44,2.76-77.16-4.92c-16.24-5.04-30.73-14.43-44.99-23.7c-22.16-14.41-44.58-29.03-63.72-47.41
				c-22.51-21.61-39.92-41.51,2.04-41.43C551.63,355.29,616.59,350.33,680.16,337.42z"/>
		</g>
		<path class="st3" d="M940.33,273.29c-63.11-29.07-128.34-58.67-197.78-61.03c-55.76-1.89-111.15,14.22-160.59,40.08
			s-93.35,61.19-134.11,99.29c45.01,27.99,100.22,45.27,153.21,46.14s105.62-8.76,157.15-21.15
			C828.28,359.78,895.8,329.95,940.33,273.29z"/>
	</g>
	<g>
		<path class="st1" d="M457.69,342.69c-47.36,26.76-100.53,44.17-154.88,46.29c-54.35,2.11-109.86-11.62-154.7-42.4
			c-19.75-13.55-37.25-30.2-52.83-48.4c-34.91-40.77-60.3-89.63-73.61-141.63C179.84,133.38,367.29,210.85,457.69,342.69z"/>
		<g>
			<defs>
				<path id="SVGID_5_" d="M457.69,342.69c-47.36,26.76-100.53,44.17-154.88,46.29c-54.35,2.11-109.86-11.62-154.7-42.4
					c-19.75-13.55-37.25-30.2-52.83-48.4c-34.91-40.77-60.3-89.63-73.61-141.63C179.84,133.38,367.29,210.85,457.69,342.69z"/>
			</defs>
			<clipPath id="SVGID_6_">
				<use xlink:href="#SVGID_5_"  style="overflow:visible;"/>
			</clipPath>
			<path class="st6" d="M110.11,225.15c2.66,4.67,7.67,6.71,12.44,7.42c5.64,0.83,11.91-0.02,16.02-4.6
				c1.35-1.51,2.41-3.36,3.22-5.33c6.39-15.55-4.33-34.66-19.21-34.25C109.36,188.75,103.6,213.71,110.11,225.15z"/>
			<path class="st6" d="M291.75,241.31c-27.55-17.43-58.02-29.85-89.36-30.68c-9.26-0.24-21.06,3-22.46,13.67
				c-0.89,6.81,3.5,13.32,8.83,16.3c5.33,2.98,11.43,3.27,17.33,3.75c32.93,2.68,65.98,13.24,92.99,35.34
				c6.84,5.6,60.58,54.46,58.38,17.67C356.31,278.29,305.1,249.75,291.75,241.31z"/>
			<path class="st7" d="M158.35,306.66c71.09,51.25,166.31,67.35,250.3,42.33c14.13-4.21,28.19-9.55,42.92-10.01
				c-11.91,24.63-31.67,45.39-55.69,58.5c-42.08,22.96-93.29,21.42-140.38,12.45c-57.72-10.99-113.46-32.27-163.83-62.52
				c-27.01-16.22-53.19-35.78-69.2-62.91C4.34,253.78,1.13,216.74-0.29,181.11c-0.67-16.75,8.38-37.88,28.16-26.17
				c13.95,8.26,25.15,36.6,34.49,49.7C89.54,242.75,120.15,279.12,158.35,306.66z"/>
		</g>
		<path class="st3" d="M457.69,342.69c-47.36,26.76-100.53,44.17-154.88,46.29c-54.35,2.11-109.86-11.62-154.7-42.4
			c-19.75-13.55-37.25-30.2-52.83-48.4c-34.91-40.77-60.3-89.63-73.61-141.63C179.84,133.38,367.29,210.85,457.69,342.69z"/>
	</g>
</g>
</svg>
